<?xml version="1.0" standalone="no"?>
<!DOCTYPE svg PUBLIC "-//W3C//DTD SVG 1.1//EN" "http://www.w3.org/Graphics/SVG/1.1/DTD/svg11.dtd" >
<svg xmlns="http://www.w3.org/2000/svg">
<metadata></metadata>
<defs>
<font id="push_ups_weakregular" horiz-adv-x="1081" >
<font-face units-per-em="2048" ascent="1638" descent="-410" />
<missing-glyph horiz-adv-x="614" />
<glyph unicode="&#x2e;&#x2e;&#x2e;" horiz-adv-x="1290" d="M90 -16q-18 18 -24 45q-7 17 -13.5 104t0.5 96q13 13 146 13q20 0 48.5 -1t35.5 -1q17 0 51.5 -26.5t48.5 -45.5q6 -12 6 -111q0 -23 -0.5 -47.5t-0.5 -40.5l-1 -16q-1 -8 -115.5 -23.5t-126.5 -11.5q-7 2 -18 15t-23 30.5t-14 20.5zM313 184q-6 -3 -5 -62t7 -67 q34 -45 47 -37q7 5 2 68t-10 70q-7 10 -22 21t-19 7zM299 33q-5 3 -91 -6.5t-93 -16.5q-4 -4 12 -28t27 -29q9 -3 94.5 6t91.5 16q4 4 -13.5 27.5t-27.5 30.5zM80 197q-8 -13 -0.5 -80t14.5 -72q17 -11 98.5 2t88.5 23q8 13 2 68.5t-13 60.5q-8 8 -82 8q-101 0 -108 -10z M934 -2q-21 28 -25 43q-6 19 -12.5 100t0.5 88q11 11 125 11q78 0 98 -2q18 0 53 -24t46 -42q8 -11 8 -129q0 -16 -0.5 -33.5t-1 -28.5t-0.5 -12q-3 -7 -114.5 -20t-123.5 -10q-6 1 -14.5 9.5t-15 17.5t-14.5 19.5t-9 12.5zM1151 188q-5 -4 -3.5 -58.5t7.5 -61.5 q5 -10 20.5 -25t24.5 -10q7 4 1.5 62.5t-9.5 64.5q-6 11 -20.5 21t-20.5 7zM1139 45q-5 4 -90.5 -4.5t-90.5 -15.5q-4 -4 11 -26.5t26 -27.5q8 -3 92.5 6t90.5 15q4 4 -13 26t-26 27zM924 199q-8 -11 -0.5 -74t14.5 -68q18 -10 96 2t86 23q7 11 2 62.5t-12 56.5q-8 8 -84 8 q-95 0 -102 -10zM817 172q9 -15 17 -114.5t2 -104.5q-12 -9 -115.5 -12.5t-120.5 0.5q-9 2 -14 3.5t-12 6t-11.5 8.5t-19 16t-27.5 23q-14 11 -23 23t-13 28t-5.5 27t-3 33.5t-2.5 33.5q-9 42 -1.5 61.5t50.5 26.5q32 5 90 6.5t74 2.5h14q12 2 63 -26.5t58 -41.5zM512 195 q-5 -156 20 -158q28 -3 100.5 3t82.5 13q3 3 1.5 72.5t-7.5 73.5q-58 2 -111 2q-78 0 -86 -6zM598 -25q17 -1 89.5 -0.5t98.5 2.5q-3 10 -17 23t-24 18q-1 0 -88 -2t-112 -6q27 -33 53 -35zM811 18q3 3 -2.5 63t-9.5 69q-3 8 -20 18t-23 4q-3 -4 -0.5 -53.5t6.5 -55.5 q9 -15 25 -33t24 -12z" />
<glyph unicode="&#xfb01;" horiz-adv-x="1015" d="M930 147q3 -115 -2 -120q-4 -4 -82 -7q-81 -5 -101 0q-4 0 -22.5 22.5t-22.5 29.5q-6 18 -6 51q-1 70 -13 198t-15 181q-7 132 -7 346q0 13 -1 38t-1 36q0 77 9 86q9 7 66.5 8.5t72.5 -4.5q32 -12 57.5 -34.5t34.5 -37.5q15 -21 21 -137.5t4 -220.5v-76q0 -121 8 -359z M731 121q3 -11 8 -15q8 -3 53.5 1.5t53.5 11.5q6 2 6 28q-1 53 -7 197t-5 223q3 91 -15 363q-3 33 -7 40.5t-19 10.5q-11 3 -46 4.5t-42 -0.5q-24 0 -27 -18q-1 -34 0.5 -116.5t1.5 -88.5q0 -74 14 -328q13 -219 31 -313zM891 49q2 5 -10.5 22.5t-18.5 18.5q-4 3 -59.5 -4 t-57.5 -10q-2 -4 7.5 -20t17.5 -17q7 -2 63.5 0.5t57.5 9.5zM911 72q3 3 -0.5 86t-9 206.5t-6.5 188.5v143q0 214 -10 226q-28 34 -35 36q0 -12 9 -275.5t13 -352.5q0 -1 2 -43.5t4 -98.5t3 -75q0 -3 6 -14.5t13.5 -20.5t10.5 -6zM760 1333q-3 -2 -9 -0.5t-12 3.5l-6 3 q-3 1 -38 15t-52 14q-88 4 -127 -16q-34 -21 -59 -85t-27 -122v-43q0 -43 2 -45q2 -4 16.5 -14.5t16.5 -14.5t24 -31q9 -6 25 -22l4 -14q-2 -117 -6 -119q-5 -4 -32.5 -8.5t-28.5 -6.5q-5 -5 -5 -61v-90v-68v-41v-51v-18v-47q-1 -10 -1 -49t0.5 -83.5t0.5 -46.5 q0 -11 -4.5 -57.5t-3.5 -71.5q0 -9 3.5 -32t4.5 -37q0 -1 1 -12t1 -19t-3.5 -16.5t-10.5 -10.5q-12 -6 -28 -6q-9 -1 -33 -2t-35 -2q-51 -6 -64 -2q-10 3 -24.5 29t-16.5 39q-4 20 -4 34q2 25 2 76v74q-4 61 -8 185.5t-6 170.5q-1 19 -4 59t-4 56q0 3 1.5 33t0.5 50.5 t-6 25.5q-7 8 -38.5 -1t-37.5 -8q-8 2 -17.5 13.5t-20 29t-13.5 21.5q0 1 -5.5 9l-11 16t-6.5 10q-6 3 -2 41.5t4 42.5t-0.5 9t-0.5 7.5v5t1.5 5t3.5 5.5q7 7 30.5 8.5t44.5 0t36 0.5q3 0 13.5 2.5t11.5 5.5q6 3 6 63q8 108 18 156q17 72 29 96q3 6 9 19.5t9 19.5 q3 8 7 14.5t7 11t9 11t8.5 9l11 11l11.5 11.5q38 38 69 55q4 2 22.5 11t26.5 12l24 9t30 8t30 3q56 4 99 0q25 0 39 -2h11.5h9h6.5t6.5 -1.5t5 -4l6.5 -6.5q14 -16 18 -23q6 -8 17.5 -21t19 -22.5t8.5 -17.5q3 -11 0 -27q0 -7 -2 -27t-2 -32q0 -58 -6 -62zM713 1524 q-3 -1 -4.5 -36t0.5 -42q1 -2 3 -8t5 -13t6 -16t6.5 -16.5t6.5 -14t5.5 -10t3.5 -2.5q5 2 8 50t-3 65q-4 9 -18.5 27.5t-18.5 15.5zM207 868q2 12 2 20.5t-1.5 12.5t-6 6t-8.5 2.5t-11 0.5t-12 1q-25 2 -72 2q37 -56 41 -57q1 -1 6.5 0t12 2.5t8.5 1.5q8 1 22 4t19 4z M397 39q2 3 -7 15.5t-15 13.5q-9 6 -31 6q-16 4 -43 4q-33 0 -35 -2q-4 -3 5 -22t14 -21q12 -6 73 0q36 0 39 6zM420 395q-1 31 1.5 106t0.5 115q-1 18 -2 54.5t-2 54.5q0 12 1 35.5t1 34.5q0 59 -23 77q1 -45 -4 -235v-260v-125q1 -13 -0.5 -36.5t-1.5 -31.5q0 -76 6 -96 q2 -4 11 -14.5t10 -7.5q-4 29 -4 84q0 37 3.5 104.5t4.5 95.5q0 7 -1 22.5t-1 22.5zM483 852q4 0 0 4q-37 51 -41 53q-7 2 -26.5 0t-20.5 -6q0 -1 8.5 -13t20 -25t16.5 -17q8 -4 43 4zM463 932l-2 -27q1 -6 18.5 -21.5t20.5 -15.5q5 2 5.5 40t-5.5 55q0 3 -12.5 11t-18.5 7 q-6 -6 -6 -49zM442 1018q-4 4 -40.5 5.5t-39.5 4.5t-3.5 26t1.5 42q0 72 17 155q16 59 22 72q21 40 58 70q56 53 143 59q15 2 35 0.5t28.5 -2.5t16.5 2q6 6 6 59q0 21 -6.5 29t-20.5 10q-46 4 -71 4q-71 0 -117 -14q-38 -10 -76 -35t-61 -53q-3 -4 -11.5 -13t-15 -16.5 t-10.5 -15.5q-69 -130 -66 -301q0 -1 1 -18t0.5 -30t-3.5 -18q-7 -14 -61 -14q-70 0 -76 -8q-6 -6 -8 -37t4 -37q2 -3 92 -16q5 0 14 -0.5t13.5 -1t10.5 -2t9.5 -4t5.5 -7.5q4 -8 12 -209t14.5 -398.5t8.5 -199.5q1 -2 8 -2.5t18.5 -0.5t18.5 -1q4 0 17.5 -2t21 -2.5 t13.5 2.5q2 3 2 97q-2 45 -2 141q0 90 2 129v131q0 84 2 129v125q0 65 6 74q1 2 33 1.5t36 2.5q4 5 4 44.5t-6 43.5zM580 1389q40 4 71 0.5t70 -21.5q-3 14 -13.5 32.5t-19.5 22.5q-14 7 -72 7q-105 0 -174 -89q-42 -58 -51 -217q-1 -15 -1.5 -24.5t0 -21.5t3.5 -18t8 -5 q4 26 8 77.5t10 88.5t19 67q6 19 17 35q13 27 52.5 44.5t72.5 21.5z" />
<glyph unicode="&#xfb02;" horiz-adv-x="1030" d="M963 141q4 -4 4 -14q0 -11 -33 -85.5t-43 -78.5q-14 -7 -83.5 14.5t-80.5 34.5q-72 87 -72 262q0 23 1 62.5t1 54.5q-1 74 2 213t3 195q0 31 -5 168q-8 144 -8 211q0 55 2 82v26l-28 4q-70 8 -119 -18q-35 -20 -61.5 -79t-26.5 -112q0 -5 -1 -19t-1 -22q0 -41 2 -45 q2 -2 16.5 -11.5t16.5 -14.5q2 -4 24 -31q2 -2 12.5 -11.5t12.5 -11.5l2 -12l-2 -98q0 -17 -12.5 -22t-26.5 -2.5t-23 -4.5q-3 -2 -4.5 -7.5t-2 -12.5t-0.5 -13.5t0.5 -15t0.5 -12.5v-86v-66v-39v-51v-16v-45v-172q0 -20 -4 -62t-4 -63q0 -9 3.5 -31t4.5 -35q0 -1 1 -12 t1 -18.5t-3.5 -16t-10.5 -10.5q-2 0 -13 -2t-14 -2q-9 -1 -31.5 -2t-33.5 -2q-52 -6 -62 -2q-9 3 -23 27.5t-16 37.5q-4 20 -4 33q4 46 2 74v71q-4 45 -6 102.5t-3.5 129.5t-2.5 110q-1 11 -4.5 51.5t-3.5 59.5q-1 8 0.5 33.5t1 46t-5.5 24.5q-8 7 -38.5 -1t-35.5 -7 q-8 2 -17 14t-18.5 27.5t-13.5 20.5q0 1 -5.5 8.5t-11 15.5t-6.5 10q-6 2 -2 39.5t4 40.5q0 5 -0.5 11t-0.5 8.5t1 5.5t4 6q7 7 28 8.5t46.5 0t32.5 -0.5q16 0 24 8q1 1 4 27.5t3 34.5q3 75 16 151q18 70 29 93q4 12 16 36q17 33 53 66q35 35 68 51q76 41 127 43q52 5 94 0 q32 0 176 -18q3 0 7 -1t6 -1t5 -0.5t4 -1t3.5 -1.5t3.5 -1.5t3 -2t3.5 -3l3.5 -3.5l4 -4q4 -5 9 -10.5t8 -9.5q6 -9 17.5 -21t19 -21.5t8.5 -17.5v-24q-4 -36 -4 -60q0 -3 -3.5 -69.5t-6.5 -149.5t-3 -125q-2 -117 -2 -344v-141q1 -117 26.5 -195t51.5 -108q1 -1 11 -12 t12 -13zM821 1100q-2 -33 -4 -88.5t-5.5 -202.5t-2.5 -264q2 -49 7.5 -115.5t24 -159t44.5 -118.5q2 -2 5 -5.5t5 -5.5q3 -2 9 -2.5t7 -1.5q3 0 11 -1t12.5 -1.5t7.5 0.5q0 5 -16 23q-88 90 -88 532q0 37 1 90.5t1 67.5q0 11 5.5 144t10.5 260.5t4 131.5q-1 9 -16.5 25 t-20.5 14q-2 -2 -2 -139v-184zM201 813q2 12 2 20t-2.5 12t-6 6t-8 2.5t-10.5 0.5h-12q-23 4 -68 4q2 -5 18.5 -29.5t20.5 -25.5q1 -1 11.5 0.5t13.5 3.5q35 5 41 6zM383 14q2 3 -6.5 14.5t-14.5 14.5q-5 2 -16.5 4t-13.5 2q-7 1 -21.5 2t-19.5 2q-33 0 -35 -2q-3 -3 6 -22 t14 -21q14 -6 70 0q34 0 37 6zM406 358q-1 34 1 105.5t1 107.5q-1 17 -2.5 52.5t-2.5 52.5q-1 14 0 40.5t1 42.5t-5 33t-16 25q1 -39 -0.5 -121.5t-1.5 -103.5q-2 -68 -2 -217q0 -107 2 -154q0 -8 -1.5 -31t-0.5 -34q0 -82 4 -95q7 -13 16 -20q3 -2 4 0q-4 27 -4 80 q0 35 4 99.5t5 92.5q0 7 -1 22.5t-1 22.5zM446 877l-2 -27q1 -6 16.5 -19.5t18.5 -11.5l2 19v32q0 2 0.5 9t1 12t-1.5 11.5t-6 10.5q-11 11 -14 11q-1 2 -4 1.5t-4 -3.5q0 -2 -3.5 -19t-3.5 -26zM436 834q-22 25 -49 16q18 -39 37 -55q8 -4 43 4q2 0 0 4l-29 26q-2 3 -2 5z M559 1315q33 3 90 -6v41q-44 6 -55 6q-102 0 -166 -86q-45 -59 -49 -209q-5 -68 8 -68q4 27 7 77t8.5 86t19.5 63q17 34 45.5 57t50.5 30.5t41 8.5zM793 12q5 0 9.5 4t8 10t4.5 7l16 20q49 69 33 92q-27 33 -45.5 89.5t-21.5 105.5q-13 177 -13 324q0 58 4 180 q11 445 11 567q0 21 -5.5 29t-19.5 10q-14 1 -55 7.5t-86 11t-84 4.5q-41 0 -94 -11q-35 -7 -71.5 -31.5t-61.5 -52.5q-28 -33 -35 -45q-67 -126 -64 -289q0 -1 1 -18t0.5 -29.5t-3.5 -17.5q-7 -14 -59 -14q-67 0 -74 -7q-6 -4 -7.5 -34.5t3.5 -36.5q4 -4 40.5 -9.5 t49.5 -5.5q6 -1 20 -2t20.5 -3.5t10.5 -8.5q3 -7 8 -139t10 -281t7 -178q1 -8 1 -17.5t-0.5 -21.5t-0.5 -18q0 -121 4 -125q2 -2 10.5 -2t18.5 0.5t20 -0.5q3 0 15.5 -2t19.5 -2.5t12 2.5q3 3 3.5 18t-0.5 41t-1 33v262q1 28 1.5 115t2.5 135v106q0 78 6 86q1 0 33 -0.5 t33 4.5q3 4 3 42.5t-3 41.5q-4 6 -38 7.5t-38 3.5q-6 2 -6 65q3 74 19 150q10 46 20 67q22 42 55 68q57 54 140 59q7 0 77 -8q8 0 10.5 -2t2.5 -12q0 -90 4 -230q4 -62 6 -131t3.5 -152.5t2.5 -129.5v-183q0 -113 2 -172q1 -82 3 -125.5t12.5 -100t29.5 -85.5q20 -38 60 -35 zM942 115q1 1 1 2t-1.5 2t-5.5 2q-11 0 -27 4q-10 0 -12 -4q-8 -10 -16 -27q-1 -1 -17 -25t-26 -43t-7 -26q3 -12 23 -12q26 -9 33 2q15 25 28 63l11 19q12 23 16 43z" />
<glyph horiz-adv-x="0" />
<glyph horiz-adv-x="682" />
<glyph horiz-adv-x="0" />
<glyph horiz-adv-x="0" />
<glyph unicode="&#xd;" horiz-adv-x="1024" />
<glyph unicode=" "  horiz-adv-x="614" />
<glyph unicode="&#x09;" horiz-adv-x="614" />
<glyph unicode="&#xa0;" horiz-adv-x="614" />
<glyph unicode="!" horiz-adv-x="489" d="M418 1427q3 -21 2.5 -37t-4.5 -63t-4 -51q-4 -47 -32.5 -411t-33.5 -433v-7q-1 -21 -2.5 -32t-5.5 -27.5t-12.5 -25t-22.5 -10.5q-42 -6 -70 -6q-55 0 -69 22q-6 12 -17 26.5t-15.5 26.5t-6.5 33q-29 337 -33 418q-3 83 -17.5 284.5t-19.5 251.5q-4 40 -4 64q0 25 8 38 t31 13q123 -2 186 -8q11 -1 30 -1t30.5 -1t19.5 -4q4 -1 8 -3.5t8.5 -6.5t8 -7.5t9.5 -10t8.5 -9.5t10 -11.5t9.5 -11.5zM158 416q5 -4 67 -4q26 0 31 8q7 8 33 402t26 442q0 22 3.5 75.5t4 78t-3.5 40.5q-3 3 -54 6.5t-99 3.5q-71 0 -76 -8q-7 -12 -2 -65q2 -98 31 -534.5 t39 -444.5zM293 354q3 5 -9.5 19t-19.5 18q-6 3 -48.5 0t-47.5 -6q-3 -3 8.5 -17.5t18.5 -21.5q5 -3 50 0.5t48 7.5zM369 1008q4 40 17.5 220t10.5 187q-2 7 -14.5 18.5t-20.5 10.5q-12 -12 -47 -516t-32 -516q4 -9 11.5 -17t14 -11.5t8.5 -0.5q3 4 7.5 74.5t10.5 158.5 t9 117t25 275zM287 229q9 -2 38 -22.5t35 -30.5q7 -10 13.5 -85.5t1.5 -80.5q-10 -7 -87.5 -9.5t-90.5 1.5q-5 1 -9 2.5t-7 2.5t-8 5t-8.5 7t-13.5 11t-18 15q-11 9 -17.5 18t-9.5 21.5t-4.5 20t-2 25.5t-1.5 26q-8 32 -2.5 46t39.5 19q32 5 86.5 8t65.5 0zM127 188 q-7 -4 -0.5 -58.5t18.5 -55.5q22 -2 76.5 3t61.5 11q3 1 2.5 55t-6.5 58q-7 5 -75.5 0t-76.5 -13zM195 29q14 -1 67.5 -0.5t75.5 2.5q-3 8 -13.5 18.5t-17.5 11.5q-7 2 -68.5 -1t-84.5 -7q22 -22 41 -24zM354 61q3 1 -1 47t-7 52q-2 6 -16.5 18t-18.5 8q-3 -3 0 -45t6 -47 q1 -1 10 -12.5t16 -18t11 -2.5z" />
<glyph unicode="&#x22;" horiz-adv-x="710" d="M324 1516q7 -14 14 -243.5t2 -234.5q-9 -9 -89.5 -12.5t-92.5 0.5q-4 1 -7 2.5t-5.5 2.5t-5.5 3.5t-5 4.5l-7 7t-8.5 9t-11.5 12.5t-14 15.5q-17 17 -25 101.5t-10.5 187.5t-3.5 115q-6 42 -0.5 60.5t39.5 25.5q18 4 52 6.5t58 2.5l25 1q11 0 50 -27t45 -40zM88 1536 q-3 -13 1.5 -213t16.5 -203q22 -2 77.5 5t62.5 14q3 3 -1.5 205t-8.5 206q-15 11 -78.5 6t-69.5 -20zM305 1061q1 8 -12.5 24t-22.5 19q-7 3 -78.5 -0.5t-74.5 -9.5q-2 -2 6 -11t20.5 -18.5t20.5 -11.5q13 -2 77 1t64 7zM319 1104q3 1 -2 191t-8 198q-4 10 -19.5 27 t-19.5 12q-3 -4 3.5 -191.5t9.5 -193.5q1 -1 9.5 -16t15.5 -23t11 -4zM627 1516q6 -15 13 -244.5t1 -233.5q-8 -9 -87.5 -12.5t-92.5 0.5q-4 1 -7 2.5t-5.5 2.5t-5.5 3.5t-5 4.5l-7 7t-8.5 9t-11.5 12.5t-14 15.5q-17 17 -25.5 98.5t-11 193t-2.5 112.5q-6 42 -0.5 60.5 t37.5 25.5q19 4 53.5 6.5t59.5 2.5l24 1q10 0 49 -27t46 -40zM391 1536v-3q0 -3 -0.5 -8.5t-1 -12t-0.5 -16v-19.5q0 -109 6 -231.5t15 -125.5q22 -2 76.5 5t62.5 14q3 3 -1.5 205t-10.5 206q-13 11 -76.5 6t-69.5 -20zM608 1061q0 8 -13.5 24t-21.5 19t-79.5 -0.5 t-75.5 -9.5q-1 -2 7.5 -11t21 -18.5t20.5 -11.5q13 -2 76.5 1t64.5 7zM623 1104q3 1 -2.5 191t-8.5 198q-2 5 -10.5 16t-17.5 19t-11 4q-3 -5 3 -192t10 -193q3 -6 6.5 -12t9.5 -16t12 -14t9 -1z" />
<glyph unicode="#" horiz-adv-x="1183" d="M526 1276q14 -5 36 -34t24 -38q2 -6 -6.5 -65t-6.5 -66q3 -6 37.5 -12t40.5 0q11 11 17 63q1 11 2 52.5t2.5 70.5t3.5 31q10 10 119 10q50 0 59 -6q14 -8 38.5 -36.5t31.5 -41.5q4 -9 -5.5 -89t-5.5 -85q3 -5 76.5 -4.5t79.5 -1.5q11 -6 34.5 -35.5t26.5 -40.5 q6 -18 0 -79t-20 -68q-19 -7 -113.5 -2.5t-97.5 2.5q-5 -5 -5.5 -39.5t5.5 -34.5q9 -1 61.5 -2t61.5 -6q10 -5 37.5 -30.5t30.5 -35.5q2 -9 -9 -100t-16 -96q-7 -8 -98.5 -24t-96.5 -23q-6 -9 -29.5 -140.5t-27.5 -134.5q-10 -6 -89.5 -15t-92.5 -1q-10 6 -36.5 40t-31.5 46 q-1 4 6 103t6 102t-29.5 2.5t-31.5 -4.5q-9 -11 -26.5 -144.5t-20.5 -136.5q-9 -12 -92 -12q-58 0 -88 6q-9 2 -16 6.5t-11.5 8t-10.5 14t-8 14.5t-9 19t-9 20q-6 14 -1 111l5 98q-2 5 -60.5 8.5t-60.5 7.5q-2 5 -14.5 22t-23.5 36.5t-15 35.5q-6 16 -1.5 74t16.5 74 q1 1 94 5.5t98 22.5q10 45 10 56q0 2 -59 2q-64 0 -70 2q-12 4 -43 43.5t-35 50.5q-6 11 5 71.5t24 69.5q20 11 137 11q80 0 86 6q5 5 23 126t31 134q5 6 74 9t83 -3zM705 1133q-4 -98 -17 -111q-5 -6 -18 -7.5t-37 -0.5t-37 0q-20 -2 -62 -0.5t-47 8.5q-5 15 -4.5 51.5 t4.5 65.5q10 79 5 86q-8 10 -46 12.5t-43 -4.5q-3 -2 -21 -126.5t-26 -131.5q-12 -12 -123 -12q-108 0 -112 -2q-5 -5 -9.5 -52.5t3.5 -48.5h78q95 0 106 -8q17 -14 12 -76q-1 -10 -2.5 -26t-2 -25.5t-2 -22t-3 -20l-3 -15t-4 -11.5t-5.5 -5q-8 -4 -117 -8q-68 0 -72 -2 q-10 -6 -12 -57.5t6 -55.5q12 -10 79.5 -2.5t84.5 0.5q10 -5 10 -71q0 -32 -2.5 -96t-3 -89t3.5 -43q10 -8 63.5 -5t61.5 16q6 7 15 141t16 143q4 7 93.5 3.5t100.5 -13.5q7 -6 -3.5 -134.5t-4.5 -135.5q9 -10 54.5 -6t58.5 12q3 3 4.5 6.5t2.5 9.5t1.5 10.5t1 14t0.5 16.5 q4 55 14.5 132.5t18.5 86.5q5 5 102 20t101 19q6 4 9.5 60t0.5 59q-5 5 -79 6.5t-81 7.5q-8 5 -8 62q0 38 4 75.5t8 40.5q15 7 109 13t100 12q7 8 5.5 44.5t-7.5 41.5q-8 6 -106.5 3t-102.5 3q-9 10 2.5 130t7.5 124q-8 7 -60.5 2t-59.5 -12q-3 -3 -4 -28.5t-1 -49.5z M514 1073q2 -3 18.5 -5t22.5 1q6 6 8.5 62t-0.5 63t-16 16.5t-19 8.5q-7 -3 -13 -69.5t-1 -76.5zM840 1034q7 -4 23 -4.5t20 2.5t13.5 78.5t6.5 81.5q-7 13 -20.5 25t-20.5 8q-6 -3 -16.5 -95.5t-5.5 -95.5zM1063 883q5 -14 17.5 -30t19.5 -15q2 2 8.5 48.5t3.5 49.5l-12 14 q-11 15 -21.5 26t-13.5 9q-3 -1 -3.5 -49.5t1.5 -52.5zM1038 870q-6 3 -93.5 -2.5t-88.5 -9.5q-1 -2 7 -9t18.5 -13.5t15.5 -8.5q8 -5 90 -8.5t84 0.5q3 5 -12.5 27t-20.5 24zM879 725q3 2 2 42.5t-4 43.5q-1 4 -13.5 11t-15.5 5q-4 -3 -10.5 -50t-3.5 -50q2 -3 21 -4t24 2z M266 831q-3 5 -71 1.5t-72 -9.5q-3 -5 9.5 -24t21.5 -23q5 -3 59 -2t59 4q4 3 0 25.5t-6 27.5zM999 549q2 -5 22 -26t23 -21t13.5 71t7.5 74q-4 6 -25 22t-24 13q-3 -1 -10 -62t-7 -71zM831 506q-3 -4 19.5 -29.5t30.5 -27.5q5 -2 74 11t69 17q2 5 -22.5 29t-30.5 24 q-15 0 -75.5 -9.5t-64.5 -14.5zM229 504q-5 2 -65.5 -1.5t-61.5 -10.5q-1 -4 11 -23.5t18 -22.5q10 -3 53.5 -7.5t44.5 -0.5q0 4 1 21.5t1 30t-2 14.5zM580 444q2 4 3.5 16t1.5 21t-1 11q-5 5 -53.5 6.5t-53.5 -2.5q-4 -4 15 -27t26 -27q7 -2 20.5 -2t27.5 1.5t14 2.5z M453 182q-1 19 8 77t18 108.5t8 54.5q-1 8 -8.5 21t-16 23t-11.5 9q-6 -1 -20 -117.5t-11 -134.5q2 -10 33 -41zM752 231q33 -57 45 -51q3 3 25 119t22 121q-2 14 -26.5 40.5t-31.5 22.5q-6 -5 -22 -122.5t-12 -129.5zM397 199q-9 7 -66.5 3t-60.5 -12q-2 -7 6.5 -24.5 t16.5 -18.5q9 -3 71 0t62 7q1 4 -10 21.5t-19 23.5zM731 201q-7 3 -68.5 0.5t-64.5 -8.5q-3 -4 17 -25t28 -23q9 -2 64.5 4.5t56.5 10.5q3 6 -10.5 22t-22.5 19zM670 874q8 -4 0.5 -87t-17.5 -93q-27 -24 -135 -24q-64 0 -74 10q-13 15 -4.5 95.5t17.5 86.5q12 9 105 14 t108 -2zM514 844q-4 -3 3.5 -16.5t12.5 -18.5t41.5 -4t49.5 8q7 5 6 19t-6 16q-5 3 -54.5 1t-52.5 -5zM475 719q7 -4 24.5 -6.5t20.5 0.5q3 5 2.5 32t-2.5 31q-6 9 -22 25.5t-21 13.5q-2 -2 -3.5 -48t1.5 -48zM549 780l-4 -53q10 -7 39 -6t34 6q3 1 9 64q-9 0 -36 -5t-42 -6 z" />
<glyph unicode="$" horiz-adv-x="937" d="M338 1104q-31 45 -31 110q0 58 25.5 91.5t73.5 15.5q4 0 4 -86q0 -141 -9 -150q-3 -6 -12.5 -8t-24 4t-26.5 23zM373 1126q1 0 1.5 6t1.5 17.5t1.5 25.5t1 31.5t1 33t1 34t0.5 29.5q-45 -14 -45 -84q0 -33 11.5 -62t25.5 -31zM539 872q11 0 32 -30.5t43 -75t36 -76 l22 -49.5q26 -70 26 -133q0 -96 -51 -158q-53 -76 -106 -76q-9 0 -9 115v84q1 14 1 51.5t-0.5 99t-0.5 95.5q0 153 7 153zM588 332v4q0 4 0.5 11t1 15.5t0.5 20.5v23q0 196 -10 333q-3 22 -7.5 36.5t-9.5 24t-6 11.5q-2 -10 -2 -236q0 -235 2 -260q6 0 17 5t14 12zM612 350 q58 31 58 142q0 68 -21.5 139.5t-48.5 103.5q12 -79 12 -385zM829 700q33 -79 33 -182q0 -93 -24 -170q-14 -51 -31.5 -85t-63.5 -97q-9 -14 -61.5 -58.5t-60.5 -52.5q-7 -4 -0.5 -109t0.5 -116q-11 -18 -29 -23q-74 -16 -94 -16q-19 0 -62.5 35t-44.5 65q-1 17 0 45.5 t3 47.5l1 20q-62 -5 -178 38.5t-133 96.5q-2 7 -12.5 36.5t-16.5 53.5t-4 37q4 22 45 58.5t58 19.5l16.5 -16.5l19.5 -19.5t18 -16.5t21 -17t20 -12.5t23 -10q10 -5 60 -1.5t57 15.5q10 18 10 219q0 342 -12 424q-3 22 -45.5 55.5t-48.5 41.5q-74 90 -74 223q0 88 37 149 q43 71 96 92q28 12 45 29q2 2 2 14t-1 33t-1 31q0 5 -1 20.5t-0.5 24t3.5 12.5q7 7 55.5 8t57.5 -4q3 -1 25.5 -12.5t33 -19.5t15.5 -17q3 -5 1.5 -35.5t0.5 -37.5q1 -3 10 -6l27 -9t34 -14q69 -37 74 -86q13 -50 10 -66q-31 -76 -49 -86q-26 -17 -100 4q-4 0 -4 -77 q0 -177 6 -195q4 -6 21 -21t34 -24q44 -24 80 -65.5t56 -79t42 -91.5zM586 1282q5 -1 22.5 -6.5t30 -9t14.5 -2.5q0 4 -9.5 27.5t-14.5 31.5q-7 7 -45.5 17.5t-40.5 7.5q-3 -3 17.5 -34.5t25.5 -31.5zM571 1176q-1 14 0.5 35.5t2 31.5t-2.5 21q-1 1 -12.5 20t-19.5 30.5 t-11 10.5q-4 0 -4 -86q0 -191 6 -215q2 -5 10 -10t14.5 -6.5t8.5 0.5q8 12 8 168zM713 1389q-7 -2 -32 -31.5t-22 -38.5q2 -2 6 -16t8 -27t7 -14q6 0 25.5 34t21.5 45q0 27 -10 45q-2 3 -4 3zM541 1593q-3 -4 -4.5 -30t0.5 -35q1 -2 8.5 -4t14.5 -3l7 -1q4 0 4 26.5t-2 30.5 q-1 3 -7.5 7.5t-13 7.5t-7.5 1zM393 31q2 0 2 7.5t-1 15.5t-3 9q-57 7 -101 19.5t-69 22.5t-54.5 34t-39.5 34.5t-41 45.5q0 -14 10 -45t19 -43q25 -31 93.5 -56.5t124 -36t60.5 -7.5zM584 -168q3 4 -15.5 22.5t-25.5 20.5q-6 3 -52 -5.5t-47 -12.5q-4 -8 17.5 -21t36.5 -18 q7 -2 44.5 4t41.5 10zM600 -137q1 30 -0.5 102.5t-3.5 79.5t-21.5 18t-25.5 7q-6 -7 -2.5 -82.5t8.5 -83.5q4 -6 22 -21t23 -20zM610 82q5 2 27 21.5t55 56.5t63.5 80t52.5 98t21 104q-17 -59 -37.5 -104.5t-44 -76.5t-33.5 -42t-30 -29q-33 -31 -64.5 -51.5t-44 -27 t-12.5 -11.5q2 -5 21 -13t26 -5zM676 219q63 53 97 141.5t34 188.5q0 99 -34 187.5t-99 146.5q-84 72 -146 104q-6 3 -11 12.5t-7.5 24.5t-4.5 29.5t-2.5 34t-0.5 30.5v27.5v17.5q0 11 -1 38t-1 44q0 74 12 109q4 13 24 14t42 -6t41.5 -14.5t21.5 -6.5q8 1 32.5 32t24.5 36 q-1 12 -30 32t-52 29q-3 1 -31.5 8.5t-48.5 15t-22 13.5q-5 18 -6.5 42t-1.5 40t-2 19q-8 10 -49 6q-34 -4 -35 -6q0 -1 2 -21.5t4 -43.5t3 -44.5t-1 -23.5q-3 -5 -25 -11q-60 -13 -112 -88q-41 -52 -41 -145q0 -118 57 -195q9 -12 56.5 -44.5t50.5 -41.5q8 -25 11 -52.5 t3.5 -65.5t1.5 -54q6 -79 6 -162q0 -71 -8 -223q0 -6 -1.5 -49.5t-4 -76t-6.5 -34.5q-6 -1 -23 -3.5t-25 -3.5t-23.5 -2.5t-25.5 -1.5t-23 0.5t-24 2.5q-36 7 -65.5 29t-45.5 41.5t-18 19.5q-10 3 -33.5 -17.5t-23.5 -31.5q0 -17 27.5 -44.5t46.5 -41.5q36 -27 76.5 -46 t61 -25.5t62.5 -15t46 -9.5q10 -2 16 -12t7.5 -25.5t1.5 -29t-1.5 -30t-1.5 -22.5t-0.5 -15.5t-1 -14.5t-0.5 -13t1 -10.5t3 -9t5 -7t8 -4t12 -1.5t16 1q45 7 51 13t5 47q-1 11 -1 20q-6 100 2 127q4 15 22.5 30t57 40.5t68.5 50.5z" />
<glyph unicode="%" horiz-adv-x="1253" d="M991 1407q-74 -148 -92 -203q-23 -62 -241.5 -591t-243.5 -584q-11 -22 -75.5 -27.5t-80.5 4.5q-5 2 -29.5 41.5t-25.5 48.5q-1 8 4 21.5t14 32.5t12 26q11 27 31 73.5t35.5 85t26.5 73.5q24 71 87 206.5t87 202.5q26 74 88 209t84 191q28 72 88 208q2 4 9.5 26 t15.5 37.5t16 16.5q12 2 69 2q70 0 82 -10q4 -4 21.5 -45t17.5 -45zM389 485q-16 -54 -51.5 -143.5t-59.5 -150t-22 -62.5q4 -4 37.5 -5t36.5 1q3 3 144.5 325.5t286 660.5t148.5 368q-79 12 -94 0q-4 -3 -82.5 -186t-160.5 -378t-91 -213q-58 -115 -92 -217zM375 35 q3 9 -11 35t-22 26q-97 0 -102 -10q-3 -4 15 -31.5t24 -29.5q13 -2 53 0.5t43 9.5zM395 59q2 1 53 122.5t124 299t144.5 353t126 308.5t58.5 142q7 17 21.5 44.5t21.5 45.5q17 40 17 41q-5 24 -23 45q-2 -3 -5 -12t-5 -12q-369 -852 -416 -971q-25 -63 -76 -166 q-73 -165 -69 -180q2 -11 13 -35.5t15 -24.5zM293 827q-39 -12 -88 5t-76 49q-78 89 -78 247q0 96 29.5 186t84.5 148.5t120 57.5q58 6 107.5 -22.5t81 -78t49 -105.5t18.5 -108q1 -68 -13.5 -127.5t-43.5 -110t-78 -87t-113 -54.5zM266 1493q-56 -16 -97 -74.5t-60 -134.5 t-19 -158q0 -108 35.5 -182t99.5 -74q25 0 60 15q82 37 138.5 143.5t51.5 200.5q-1 11 -1.5 41t-2 47t-6.5 41.5t-15.5 42.5t-27.5 31q-7 6 -23.5 19t-24 18.5t-22 14t-25.5 11t-27.5 2.5t-33.5 -4zM418 958q-11 -17 -23 -30t-21 -21t-26.5 -17.5t-25 -13t-32 -14 t-34.5 -14.5q56 -8 114.5 33t88.5 94q53 101 53 215q0 48 -12 94v-66t-4 -83q-13 -76 -78 -177zM381 1182q-3 -25 -8.5 -52.5t-18.5 -64.5t-29.5 -63.5t-43.5 -40.5t-58 -5q-71 20 -71 174q0 57 8 97q41 205 139 205q90 -2 90 -152q0 -48 -8 -98zM219 1239q6 40 27.5 94.5 t58.5 71.5q-14 1 -25 -4.5t-16 -11t-16 -19.5q-20 -26 -37.5 -66t-20.5 -69q-6 -54 -6 -90q0 -106 33 -139q-8 44 -8 108q0 75 10 125zM236 1085q0 -36 8 -62t22 -26q18 0 41 41q15 26 24.5 68.5t11.5 66t5 72.5q3 65 -13 111q-19 55 -53 -20q0 -1 -1 -3q-21 -49 -33 -119 t-12 -129zM954 731q52 6 96 -15t73 -58t49 -85.5t29 -96t9 -91.5q1 -83 -29 -157.5t-91.5 -128t-143.5 -66.5q-74 -11 -125.5 29t-74.5 108.5t-23 155.5q0 94 26.5 182.5t81 151.5t123.5 71zM762 295q5 -51 17.5 -96.5t42 -82t69.5 -36.5q35 0 80 29q94 64 137.5 168.5 t32.5 224.5q-2 25 -7 48.5t-18.5 53.5t-33.5 50t-55 32.5t-79 7.5q-59 -7 -105.5 -83t-66 -164t-14.5 -152zM928 59q56 -8 113 32.5t87 94.5q54 94 54 211q0 49 -13 99v-76q0 -49 -4 -74q-10 -74 -69 -162q-32 -50 -70 -76.5t-98 -48.5zM969 643q82 -2 82 -131 q0 -37 -11 -117q-23 -151 -64 -200q-34 -41 -83 -27q-42 12 -60 69.5t-18 127.5q0 50 6 77q9 42 25 83.5t49.5 79.5t73.5 38zM889 453q3 22 10.5 50t28.5 64t49 49q-43 -12 -72.5 -47.5t-39.5 -66t-13 -58.5q-4 -32 -4 -82q0 -123 41 -145q-12 30 -12 90q0 91 11 149l1 1v-2 v-2q-2 -6 -2 -9q2 2 2 9zM1018 457q5 94 -13 124q-14 23 -42 -22q-29 -48 -44 -128t-12 -142q1 -26 5.5 -45.5t13 -29t22 -1t29.5 36.5q6 10 11.5 22.5t9 23.5t6.5 27.5t5 26t3.5 29t2 26.5l2 28t1.5 24z" />
<glyph unicode="&#x26;" horiz-adv-x="1353" d="M1286 225q27 -39 27 -69q0 -8 -44.5 -66.5t-54.5 -62.5q-7 -4 -48 -10.5t-52 -4.5q-35 9 -192 166q-5 4 -14.5 -7.5t-27 -33.5t-41 -45.5t-64.5 -44.5t-89 -29q-83 -14 -164 -14q-107 0 -190.5 28.5t-135.5 74t-86 108t-47.5 126t-13.5 132.5q0 96 24 179t58 118 q54 54 109 91t85.5 51t32.5 18q0 2 -31 66.5t-32 68.5q-19 55 -19 125q0 44 7.5 85t26.5 83.5t48.5 74.5t78 52.5t110.5 21.5q73 1 137 -36.5t104 -97.5t63 -130t23 -137q0 -32 -6 -62q-8 -38 -35.5 -93t-51 -95.5t-23.5 -46.5q-1 -3 13.5 -27.5t35.5 -56t43 -62.5t39 -50 t20 -15q13 14 46.5 53t60 68.5t31.5 32.5q18 9 80 -2.5t77 -18.5q8 -7 25.5 -39t17.5 -37q3 -18 -10 -47q-15 -28 -39 -81.5t-39 -80.5q-10 -15 -4 -34q5 -14 131 -187zM1264 188q3 4 -62.5 102t-73.5 101q-16 4 -46.5 6.5t-37.5 -2.5q-3 -7 78.5 -106.5t91.5 -102.5 q8 -3 25 -3.5t25 5.5zM1122 426q6 1 53.5 100.5t45.5 104.5q-1 7 -26.5 8.5t-31.5 -0.5q-10 -4 -74.5 -101t-62.5 -102q3 -5 41.5 -8.5t54.5 -1.5zM1098 733q-1 -4 23 -27.5t32 -25.5q9 -4 34.5 -8.5t29.5 -1.5q3 2 1 10.5t-8.5 18.5t-11.5 12q-4 3 -28.5 9.5t-48 11 t-23.5 1.5zM782 713q-42 69 -47 84q-5 8 -42 25.5t-40 11.5q-4 -4 31 -57t89 -117t93 -87q3 -2 12.5 4t8.5 9q0 1 -19 22t-45.5 52t-40.5 53zM795 940q4 11 22 49.5t24.5 64t6.5 58.5q0 44 -17 105q-5 -111 -61 -216q-12 -21 -38.5 -53t-46 -55.5t-19.5 -28.5 q1 -8 26.5 -21.5t32.5 -11.5q7 3 33 43.5t37 65.5zM889 199q1 2 -2.5 8.5t-7.5 11.5t-5 4q-124 -141 -280 -184q60 -2 130.5 29.5t116 69.5t48.5 61zM1073 92q18 -12 28 -16.5t18.5 -2t12.5 7.5t16 18t23 24q27 25 26.5 35.5t-23.5 36.5q-28 31 -109 112q-17 17 -51 61 t-35 54q-1 8 76.5 119t77.5 114q0 6 -33 37t-39 33q-3 0 -23 -24t-49 -58.5t-41 -48.5q-50 -54 -86 -51q-9 0 -56.5 44t-66.5 70q-14 21 -42 61.5t-42 61.5q-3 4 -8.5 11.5t-7.5 11t-6 9.5t-6 10t-3.5 8.5t-2 9t-0.5 8.5q0 18 20 35q67 67 111.5 162t44.5 184 q0 167 -158 233q-46 17 -86 17q-55 0 -111 -27q-120 -62 -131 -248q-6 -100 37 -194q3 -7 12 -20t16 -24t14 -24t6.5 -20t-7.5 -13l-23 -11q-22 -10 -39.5 -19t-48.5 -29.5t-54.5 -41.5t-50.5 -54t-45 -69t-30 -84.5t-12 -102.5q0 -62 14 -125q37 -164 132 -246t221 -82 q104 0 198 49q72 38 140 94q8 6 33.5 28t46.5 38t28 16q3 0 32 -36.5t34 -45.5q49 -55 108 -96zM1208 55q11 11 40.5 48.5t25.5 41.5q-1 4 -15 6t-20 -1q-11 -3 -50 -49.5t-38 -55.5q2 -2 13 -0.5t25.5 4.5t18.5 6zM551 1008q-70 -7 -103.5 39.5t-31.5 119.5q4 203 153 219 q53 4 82 -44.5t29 -120.5q0 -80 -34 -143.5t-95 -69.5zM629 1311q-31 70 -77 -14q-18 -35 -28 -70q-10 -52 -10 -84q0 -37 14 -78q23 -58 71 7q20 27 30 52q16 46 16 99q0 55 -16 88zM449 1229q0 -1 -1.5 -14.5t-2 -28.5t1.5 -36t7 -38.5t16.5 -34.5t29.5 -26 q-26 55 -21 125q2 85 84 176q2 3 -3 3q-22 -1 -56 -30q-47 -39 -55 -96zM430 772q44 15 57 0q1 -1 29 -31.5t63 -69t77.5 -87t76 -89.5t55.5 -73t19 -41q-23 -75 -197 -170q-57 -31 -121 -31q-86 0 -162 51t-112 138q-18 47 -18 94q0 100 66.5 188.5t166.5 120.5zM440 743 q-91 -21 -147.5 -102t-56.5 -178q0 -119 81 -191q-67 150 -47 238q23 89 69.5 136t135.5 75q-5 12 -20 27zM764 383q1 4 -62.5 82.5t-129 155t-70.5 75.5q-63 -13 -112.5 -59.5t-72 -105t-14.5 -109.5q12 -85 69.5 -143t135.5 -58q48 0 100 27q33 17 71.5 49t61.5 56.5 t23 29.5z" />
<glyph unicode="'" horiz-adv-x="407" d="M324 1516q7 -14 14 -243.5t2 -234.5q-9 -9 -89.5 -12.5t-92.5 0.5q-4 1 -7 2.5t-5.5 2.5t-5.5 3.5t-5 4.5l-7 7t-8.5 9t-11.5 12.5t-14 15.5q-17 17 -25 101.5t-10.5 187.5t-3.5 115q-6 42 -0.5 60.5t39.5 25.5q18 4 52 6.5t58 2.5l25 1q11 0 50 -27t45 -40zM88 1536 q-3 -13 1.5 -213t16.5 -203q22 -2 77.5 5t62.5 14q3 3 -1.5 205t-8.5 206q-15 11 -78.5 6t-69.5 -20zM305 1061q1 8 -12.5 24t-22.5 19q-7 3 -78.5 -0.5t-74.5 -9.5q-2 -2 6 -11t20.5 -18.5t20.5 -11.5q13 -2 77 1t64 7zM319 1104q3 1 -2 191t-8 198q-4 10 -19.5 27 t-19.5 12q-3 -4 3.5 -191.5t9.5 -193.5q1 -1 9.5 -16t15.5 -23t11 -4z" />
<glyph unicode="(" horiz-adv-x="495" d="M426 80q5 -25 -45 -57q-46 -29 -76 -21q-8 0 -40 18t-44 35q-25 30 -82 241.5t-71 321.5q-15 111 -15 185q0 180 78 502q10 42 41 115.5t39 76.5q9 3 64.5 -19t64.5 -34q5 -5 20 -45t15 -45q1 -4 -37 -107q-53 -136 -53 -336q0 -38 4 -104q1 -9 3 -44.5t3 -46.5 t4.5 -45.5t6.5 -54.5t8.5 -58.5t13 -73t17.5 -81.5t23 -101.5t29 -117.5q3 -10 9.5 -32t11.5 -40.5t8 -31.5zM250 84q10 -4 43 7.5t33 17.5q0 13 -38 147t-42 158q-28 139 -40.5 231t-12.5 193q0 24 -2.5 70.5t-2.5 68.5q0 39 5 70q9 81 38 208q7 32 27.5 74t36.5 70t14 33 q-3 9 -36 22.5t-48 11.5q-3 -1 -18 -37t-36.5 -102.5t-41.5 -146.5t-33.5 -182.5t-11.5 -196.5q2 -60 26.5 -208.5t53.5 -260.5q37 -157 61 -209q18 -36 25 -39zM393 70q2 3 -6 8.5t-18 9.5t-15 4q-15 -2 -88 -39q15 -19 33 -24q8 -2 49 16t45 25zM352 123q4 -6 19.5 -11 t23.5 -3q-7 27 -27.5 88t-27.5 88q-33 121 -57.5 299.5t-24.5 320.5q3 127 37 289q1 3 26 70.5t25 74.5q2 9 -9 34t-18 26q-4 0 -21.5 -42t-21.5 -54q-34 -77 -45 -197q-8 -88 -8 -193q0 -291 64 -538q52 -234 65 -252z" />
<glyph unicode=")" horiz-adv-x="421" d="M332 1139q6 -51 6 -154q0 -40 -1 -85t-2.5 -100t-2.5 -85q-2 -139 -41 -381q-11 -70 -31 -149t-37 -127.5t-22 -51.5q-11 -4 -58 -4.5t-53 4.5q-7 5 -22 41t-15 55q0 9 7 52t17 104.5t15 91.5q43 279 43 471q0 164 -43 490q-3 20 -10 50t-10.5 48t-1.5 21q4 9 37.5 35 t58.5 36q7 3 51 -15.5t49 -23.5q11 -11 35 -135t31 -188zM115 317q-1 -10 -10.5 -60.5t-16.5 -91.5t-4 -44q8 -6 31 -7t28 5q8 10 47 256.5t52 341.5q12 89 12 184t-14 221q-11 88 -40.5 218t-39.5 130q-4 1 -33 -22.5t-29 -28.5q-1 -3 4.5 -26t13 -52.5t9.5 -42.5 q6 -28 14 -77t16.5 -155.5t8.5 -217.5q0 -267 -49 -531zM184 29q1 1 -13 28t-17 29q-7 3 -40 4.5t-34 -0.5q-2 -2 5 -30t11 -31q3 -1 44 -1t44 1zM303 784q4 94 4 140q0 99 -10 229q-3 46 -23.5 163t-25.5 124q-6 9 -26 19t-23 7q-2 -2 6 -36q71 -272 71 -547q0 -85 -6 -164 q-7 -85 -39.5 -289t-46.5 -260q-4 -13 -8 -39.5t-2 -34.5q2 -6 13.5 -18t15.5 -8q1 1 18 69q67 313 82 645z" />
<glyph unicode="*" horiz-adv-x="667" d="M592 1311q-11 -16 -31.5 -43.5t-33.5 -46t-13 -21.5l23 -96q18 -70 18 -74q0 -10 -29 -45q-3 -2 -13 -12.5t-19.5 -18t-14.5 -8.5q-3 -2 -31.5 10.5t-31.5 16.5q-2 2 -17.5 25t-32 45t-24.5 28q-18 -24 -54 -70t-55 -69q-20 -24 -40 -39q-5 -1 -9 -0.5t-13 3t-16 4.5 t-17.5 5.5l-16.5 5.5q-20 6 -33 32t-16 58q0 10 26 62q43 62 39 74q0 18 -35 41q-5 3 -16 9t-18 11t-11 10q-6 10 -5.5 54t5.5 75q8 47 39 47q12 0 29 -6.5t30 -15t27 -15.5t21 -8t10 7q2 15 6.5 63t8.5 86t8 43q7 10 47 10q41 -2 52.5 -7.5t37.5 -37.5q5 -7 13 -15 t11.5 -12.5t3.5 -7.5q7 -20 13 -61q7 2 30 19.5t44 29.5t30 6q18 -12 45.5 -39.5t30.5 -40.5q10 -43 7 -53q-2 -8 -9 -18zM532 1425q-3 -1 7.5 -29t13.5 -30q3 -3 16.5 -11t14.5 -5q2 2 -0.5 16.5t-5.5 17.5q-2 3 -23.5 22.5t-22.5 18.5zM360 1489q-1 -5 7 -49.5t10 -46.5 q5 -3 10.5 -1t7.5 7q0 4 -5.5 34.5t-8.5 34.5q-1 3 -5.5 9t-9.5 10t-6 2zM78 1219q1 -4 37.5 -26t38.5 -22q5 1 8.5 9.5t3.5 11.5q-3 5 -43 31.5t-43 23.5q-3 -1 -3.5 -13t1.5 -15zM174 915q6 2 2 22.5t-10 25.5q-8 6 -35.5 16.5t-30.5 7.5q-3 -1 5 -24t12 -29 q3 -4 28.5 -12.5t28.5 -6.5zM328 1096q1 4 -1.5 11.5t-6.5 13.5t-7 5q-4 -1 -61 -76.5t-59 -80.5q-3 -13 4 -42l2 -3q3 0 66 84.5t63 87.5zM418 1010q5 -2 34.5 19t30.5 32q0 5 -21 55t-32 70q-10 16 -13.5 26.5t-0.5 24t18 25.5q101 81 103 90q0 10 -14 43t-17 35 q-3 1 -24 -12t-50 -31t-45 -25q-12 -6 -21.5 2.5t-9.5 28.5q-15 120 -26 127q-6 6 -34.5 5.5t-31.5 -5.5q-4 -4 -16 -97q0 -21 -8.5 -69.5t-14.5 -48.5q-11 1 -42 15.5t-58.5 28t-30.5 11.5q-7 -4 -10.5 -42t-1.5 -42q2 -3 14 -10t31.5 -18.5t32.5 -20.5q35 -25 35 -31 q1 -6 -41 -88q-5 -9 -20 -29.5t-25 -36t-9 -20.5q2 -6 35.5 -22t40.5 -13q8 4 45 51l23 37q23 37 43 58t32 12q8 -6 31.5 -39.5t44.5 -64t23 -31.5zM475 967q4 -2 26 20t19 27q-2 1 -7 5t-9 7t-8 4q-7 1 -33.5 -19t-26.5 -22q0 -4 17.5 -13t21.5 -9zM532 1042q3 3 -17 74 t-26 78q-5 8 -27.5 19.5t-25.5 7.5q-5 -4 26 -79.5t36 -80.5q6 -6 19 -13.5t15 -5.5zM496 1221q7 2 43 49q6 8 17 20.5t18.5 21t7.5 11.5q0 4 -9 9t-14 5q-6 -2 -58 -45t-55 -49q-1 -1 3 -4t10.5 -6.5t13.5 -6.5t13.5 -4.5t9.5 -0.5z" />
<glyph unicode="+" horiz-adv-x="913" d="M846 768q16 -40 16 -137q0 -60 -6 -78q-10 -37 -55 -37h-62q-41 0 -61 -2q-12 -1 -17 -7t-5.5 -11t0.5 -17.5t1 -17.5q0 -2 0.5 -22t0 -34.5t-1 -33.5t-3 -30t-6.5 -13q-12 -6 -93.5 -16.5t-100.5 -8.5q-21 3 -60 42t-43 52q-4 8 -7.5 39t-7 56.5t-7.5 25.5 q-46 -4 -74 -4q-30 0 -76 4q-19 1 -58 34t-57 56q-14 17 -14 133q0 77 8 90q7 11 123 21.5t121 15.5q3 3 3 19t-1.5 45.5t-1.5 46.5q0 48 8 59q4 7 59 14t107 7q57 0 68 -8q16 -12 42 -42.5t29 -45.5q2 -7 3.5 -33.5t3 -49t4.5 -24.5q2 -2 32 -3t65.5 -3.5t47.5 -5.5 q18 -4 43 -31.5t33 -44.5zM547 991q-3 -5 -1 -69.5t5 -69.5t22.5 -4.5t22.5 6.5q1 3 -0.5 52t-3.5 52q-6 11 -21.5 26.5t-23.5 6.5zM328 551q3 2 1 31t-5 34q-5 5 -62 5q-126 0 -135 -15q-5 -6 16.5 -29t34.5 -26h150zM377 643q2 -2 2 -121q0 -63 4 -65q8 -8 70 -8 q88 0 94 6q3 6 -1 98t-3 94q2 6 13.5 7t34 -0.5t36.5 -0.5q16 2 47 1.5t47.5 -1t23.5 1.5q5 5 5 62q0 83 -5 88q-4 3 -114 5.5t-113 6.5q-2 2 -3 29.5t-1.5 66t-1.5 52.5q0 50 -8 55q-9 6 -78.5 4t-75.5 -8q-5 -5 -3.5 -93.5t-2.5 -95.5q-4 -6 -121 -15.5t-121 -14.5 q-5 -5 -1 -77t14 -77q6 -3 132.5 3t129.5 -3zM598 352q1 10 -18.5 35t-26.5 27q-5 1 -46 0t-80 -4t-38 -7q0 -9 29 -36.5t45 -30.5q8 -1 41.5 3t63.5 9zM629 403q7 7 6 59t-6 60q-7 11 -27.5 36t-21.5 20q-3 -3 -2 -61t4 -66q2 -8 22.5 -30t24.5 -18zM809 557q2 3 -22 30.5 t-31 30.5q-27 9 -99 9q-54 0 -57 -9q-3 -8 16.5 -33.5t34.5 -31.5q4 -2 64 -2q91 0 94 6zM836 588q4 6 1 65.5t-6 71.5q-5 13 -23 36.5t-24 22.5q-2 0 -2.5 -13t-0.5 -33v-39t0.5 -35t0.5 -17q1 -7 13.5 -22.5t25.5 -27t15 -9.5z" />
<glyph unicode="," horiz-adv-x="501" d="M356 238q10 -7 43.5 -50t36.5 -57q8 -40 8 -76q0 -136 -75 -270q-24 -43 -76 -66.5t-76 -21.5q-21 4 -60 22t-48 35q-5 10 4 39t25.5 70.5t21.5 64.5q-10 7 -49 42.5t-45 43.5q-5 6 -9 48t-4 83q0 67 10 72q14 7 148.5 18t144.5 3zM119 2q-1 -4 10.5 -14t23 -17t11.5 -4 q3 6 2.5 19t-4.5 16q-4 4 -14.5 4t-19.5 -1.5t-9 -2.5zM186 -92q-2 -7 -18.5 -49t-22.5 -64q-5 -14 3.5 -22t27.5 -4q174 46 170 270q0 2 1 27t1 43q0 81 -16 94q-9 6 -62 6t-113.5 -5t-64.5 -9q-4 -3 -2.5 -79t6.5 -85q5 -4 32.5 -3t33.5 3q12 0 20.5 -4t11.5 -12.5 t4.5 -17.5t0 -22.5t-3.5 -22.5t-5 -23.5t-4 -20.5zM365 -156q22 43 34.5 106.5t15 106t-0.5 49.5q-3 11 -14.5 30t-18.5 26q-1 -4 -0.5 -17t1.5 -36t1 -31q2 -58 -8.5 -111.5t-35 -102t-70.5 -81.5t-109 -43q10 -8 36 -11t40 1q38 8 76 45.5t53 68.5z" />
<glyph unicode="-" horiz-adv-x="788" d="M700 831q5 -7 16.5 -18.5t18 -20.5t8.5 -16q3 -9 1 -57.5t-5 -54.5q-7 -10 -288.5 -25t-292.5 -10q-18 7 -86 55q-19 11 -19 98q0 33 4.5 63.5t10.5 33.5q14 3 277.5 2.5t285.5 -2.5q23 -2 69 -48zM240 729q57 1 168.5 3t171 3.5t61.5 3.5q5 8 2.5 54.5t-6.5 48.5 q-4 4 -35 4t-77 -2t-62 -2h-133q-35 0 -105 1t-100 0.5t-33 -3.5q-7 -5 -6 -51.5t6 -53.5q4 -6 148 -6zM721 690q3 2 4 39t-2 43q-4 8 -15 21t-21.5 22t-12.5 6q-3 -3 -3 -46.5t3 -47.5q1 -6 22.5 -22.5t24.5 -14.5zM649 709q-6 2 -272.5 -4.5t-267.5 -10.5q-2 -5 19 -21 t34 -20q9 -2 268.5 7.5t263.5 13.5q3 3 -17.5 18t-27.5 17z" />
<glyph unicode="." horiz-adv-x="514" d="M442 156q9 -15 9 -144q0 -24 -0.5 -50.5t-0.5 -43.5l-1 -16q-3 -8 -137 -25t-148 -14q-13 4 -64 76q-20 20 -30 53q-6 25 -13 122t0 113q15 15 174 15q73 0 93 -2q22 0 62.5 -30.5t55.5 -53.5zM88 190q-9 -16 0 -93.5t16 -84.5q20 -14 116 1t104 28q9 16 1.5 80.5 t-14.5 71.5q-11 8 -96 8q-116 0 -127 -11zM393 -70q4 5 -16 32t-31 34q-7 4 -108 -6.5t-109 -18.5q-5 -5 14 -34t31 -33q11 -4 111.5 7t107.5 19zM420 -20q8 7 2 80.5t-12 80.5q-9 12 -26.5 25.5t-23.5 9.5q-6 -6 -4 -74.5t9 -78.5q38 -51 55 -43z" />
<glyph unicode="/" horiz-adv-x="854" d="M748 1487q4 -3 22 -43t16 -43q0 -2 -17 -41t-38 -88.5t-29 -73.5q-28 -79 -225 -598t-219 -567q-9 -21 -71.5 -28t-80.5 1q-4 1 -28.5 39.5t-26.5 46.5t3 22t13.5 32.5t10.5 25.5q9 24 28 72.5t32.5 85.5t23.5 71q22 72 80.5 207t79.5 199q23 76 80.5 212t76.5 187 q23 63 82 205q1 3 5.5 18.5t8.5 27.5t11 22.5t14 11.5q11 2 35 2.5t31 1.5q67 5 82 -8zM223 479q-15 -53 -47 -141.5t-55 -148.5t-21 -62q5 -4 37.5 -4t36.5 2q3 3 133 323t262 655t136 365q-30 4 -57.5 3.5t-35.5 -5.5q-4 -3 -75.5 -184.5t-147 -375t-84.5 -212.5 q-61 -138 -82 -215zM219 39q3 6 -3.5 20.5t-15.5 26t-14 10.5q-17 0 -57 -3t-43 -7q-2 -5 16 -32t25 -27q10 -2 50.5 1.5t41.5 10.5zM741 1366q16 37 15 41q0 20 -23 43q-6 -19 -10 -25q-336 -843 -379 -962q-6 -17 -70 -164q-70 -160 -65 -180q3 -10 15.5 -33t15.5 -23 q5 1 221 573.5t241 641.5q4 10 18 39t21 49z" />
<glyph unicode="0" horiz-adv-x="862" d="M621 887q0 -103 -21 -303q-7 -70 -37 -153t-69 -148q-47 -76 -118.5 -71.5t-115.5 75.5q-88 149 -84 403q0 1 0.5 29t1 44t3 53.5t6 64t9.5 67.5t14.5 72.5t21 71t28 71.5t36.5 64.5t46 58.5q41 42 88.5 46.5t84 -24.5t54.5 -79q24 -66 38 -163.5t14 -178.5zM213 745 q0 -79 1.5 -118.5t8 -110t24.5 -126t48 -101.5q-76 209 -43 577q4 52 47 213q12 51 57 138q25 45 68 88q-37 -16 -62 -41t-35.5 -44.5t-25.5 -54.5q-91 -212 -88 -420zM506 367q110 246 80 626q0 5 -1 14q-4 60 -8.5 97t-20.5 91.5t-42 80.5q-12 12 -23.5 17t-22.5 2.5 t-21 -7.5t-20 -16.5t-18 -21.5t-16.5 -25.5t-13.5 -24.5t-11 -22.5t-8 -16.5q-114 -230 -81 -647q3 -42 6 -67.5t11.5 -65t24.5 -69.5t39 -50q18 -18 37 -15t35 14t31.5 32t25.5 39t17 35zM715 1284q34 -85 53 -238.5t16 -320.5v-20q-2 -70 -3.5 -110.5t-7 -114.5 t-17.5 -126t-31 -114.5t-50.5 -113t-72.5 -89.5q-32 -30 -100 -39.5t-140.5 3t-136.5 60t-86 121.5q0 1 -12 41t-14.5 49t-13.5 50t-14 59t-11.5 61.5t-11 72t-7 74.5t-4.5 86t1 90t5 101q25 313 115 468t254 167q103 7 176.5 -55t112.5 -162zM293 57q49 -24 92.5 -28.5 t77.5 12.5t63 41.5t50.5 68t38.5 82t29.5 94.5t21 93.5t14.5 90.5t8.5 74.5t5.5 56.5v1q0 4 1 17q4 37 6 65.5t4.5 94t1.5 118t-7 124.5t-18.5 127t-34.5 112.5t-53 94.5t-77 59t-103 18q-119 -8 -206 -161t-111.5 -397.5t28.5 -554.5q9 -51 19 -87.5t28.5 -82.5t49 -79.5 t71.5 -53.5zM737 455q26 207 10.5 474.5t-59.5 354.5q41 -142 45 -311q3 -96 3 -161.5t-5 -177.5t-25.5 -218.5t-54.5 -200.5q-15 -39 -52 -97.5t-81 -90.5q40 8 87.5 61t66.5 100q47 117 65 267z" />
<glyph unicode="1" horiz-adv-x="645" d="M563 176q6 -12 6 -61q0 -76 -12 -88q-5 -15 -39 -17q-225 -10 -325 -10q-5 0 -17.5 14t-28.5 34.5t-18 23.5q-8 10 -8 75q0 81 6 93q2 5 64 8.5t67 7.5q1 6 0.5 22t-1.5 44.5t-1 37.5q2 57 2 170q0 78 -2 117q-2 29 -2 94q0 52 14 416q-21 -15 -46.5 -35t-40 -31 t-17.5 -12q-8 -3 -34 15t-38 32q-9 11 -25.5 74.5t-13.5 91.5q1 22 109 116.5t131 96.5q124 8 158 -12q14 -9 61 -107q6 -12 6 -135q0 -119 -5.5 -331.5t-11 -379.5t-5.5 -175q0 -37 -4 -95v-28q1 -2 4 -2.5t8.5 -3t11.5 -7.5q5 -3 25.5 -26t21.5 -27zM463 1423 q-7 -4 -24 -588.5t-13 -590.5q2 -3 20 -5.5t21 1.5q2 6 17 555t14 559q-1 5 -5.5 16.5t-10 24t-11 21t-8.5 7.5zM174 1112q2 0 14.5 10.5t36.5 31t45 36.5q4 64 -2 67q-4 4 -30 -16.5t-65 -54t-56 -45.5q5 -5 29 -17t28 -12zM145 119q0 -17 17 -17q17 -2 48.5 -2t64.5 1 t36 1q2 0 31 -1t51 -1q91 0 94 6q4 16 2.5 55.5t-10.5 47.5q-8 7 -42.5 7t-39.5 7q0 197 4 238q7 86 14 418t7 510q0 77 -2 79q-2 3 -59 6.5t-64 0.5q-5 -3 -40.5 -33t-76 -65t-51.5 -44q-34 -28 -39 -37q-4 -9 3 -66.5t13 -60.5q2 -1 43 35t85 71t53 32q18 -5 18 -146 q0 -127 -14 -305q-4 -31 -4 -164q0 -208 4 -286q0 -165 -10 -173q-3 -4 -8 -5t-18 -2t-17 -1t-26.5 -0.5t-41 -3t-23.5 -8.5q-4 -4 -4.5 -23t1 -44.5t1.5 -26.5zM528 37q1 3 -12 18t-18 17q-6 6 -232 6q-98 0 -102 -4q-3 -4 19 -23t28 -22q5 -2 160.5 1.5t156.5 6.5zM547 74 q3 3 4 28t-2 39q-1 10 -17.5 25.5t-21.5 15.5q-4 -1 -4 -39.5t2 -44.5q1 -5 10.5 -12t18.5 -11t10 -1z" />
<glyph unicode="2" horiz-adv-x="747" d="M662 250q3 -13 3.5 -112.5t-3.5 -108.5q-10 -16 -18.5 -19.5t-29.5 -5.5q-46 -3 -223.5 -3.5t-238.5 1.5q-18 1 -50.5 29.5t-42.5 44.5q-8 13 -8 41v219q-1 22 10.5 42.5t35.5 48t34 42.5q158 230 244 397.5t69 263.5q-4 24 -7 37t-11.5 27t-22 18t-36.5 3.5t-56 -9.5 q-1 0 -27 -11t-38 -11q-3 0 -23.5 11.5t-44 29t-28.5 30.5q-1 2 -8 15t-12.5 24t-11.5 26t-8.5 27.5t-0.5 20.5q6 19 41 43q98 72 172 86q88 14 161 -13.5t119 -86.5t71.5 -137t25 -167t-26.5 -175q-61 -212 -152 -369q-7 -13 -47 -76.5t-70.5 -114.5t-27.5 -55 q3 -3 57.5 -3t105 1t70.5 -2q20 -5 35 -20.5t19 -28.5zM651 971q37 187 -8 295q4 -21 3.5 -66.5t-7 -122.5t-37 -179.5t-80.5 -199.5q-8 -15 -23.5 -45.5t-25 -49t-25.5 -45.5t-32 -52q-131 -190 -129 -201q0 -1 12.5 -3t24.5 -3t18 2q9 7 101 176t104 199q79 179 104 295z M246 1219q4 0 22.5 7t38 13t50 3.5t59.5 -17.5q-25 24 -56 35.5t-58 11.5t-50.5 -4.5t-37 -10.5t-13.5 -8q1 -8 19 -19t26 -11zM82 299q-9 -175 8 -188q7 -3 238 2.5t241 11.5q7 6 6.5 69.5t-4.5 71.5q-4 4 -164.5 4.5t-164.5 5.5q-4 6 29 59t86 141t107.5 190t97 227 t50.5 231q2 33 1.5 64t-5.5 65t-15 62.5t-26.5 56.5t-40 46t-55.5 31.5t-74 13.5t-94 -9q-48 -10 -96 -39.5t-62 -46.5q-7 -5 15.5 -48.5t32.5 -39.5q62 26 109.5 28t69.5 -8t46 -30q43 -34 55.5 -92.5t-2.5 -126t-36.5 -123.5t-49.5 -109q-21 -38 -77 -126t-112 -173.5 t-65 -99.5q-10 -16 -25.5 -35t-19.5 -29q-2 -5 -2.5 -13t-0.5 -21t-1 -23zM629 39q3 4 -13.5 27.5t-27.5 29.5q-24 2 -57.5 0.5t-103 -6t-79.5 -4.5q-245 -13 -246 -16t10 -11.5t25 -16.5t23 -11q8 -2 237 1t232 7zM645 78q3 3 5 75t-1 80t-18.5 17t-18.5 6q-5 -6 -4.5 -64 t2.5 -67q2 -5 9.5 -17t15.5 -22t10 -8z" />
<glyph unicode="3" horiz-adv-x="817" d="M735 584q0 -48 0.5 -99t-7 -104t-18.5 -102.5t-34.5 -95t-54 -81t-77.5 -60t-106 -32.5q-95 -13 -163 -0.5t-114 37t-71.5 55.5t-36 54t-8.5 32q8 20 51 57t76 40q15 3 35 -17q77 -82 129 -80q25 1 46.5 12t36 25.5t26.5 39t19 43.5t13.5 49.5t8.5 47t6 44.5 q11 80 -2.5 185t-40.5 132q-23 18 -68 16q-7 0 -12 1.5t-8.5 3t-7 5.5t-5 6.5t-5 8t-5.5 8.5q-5 8 -14.5 22.5t-14.5 22.5q-5 10 -7.5 77t3.5 75q7 10 45 16q31 3 67.5 22t55.5 42q33 41 25 80t-37 68t-62 38q-61 15 -120 -4q-17 -5 -39 -13t-33.5 -11.5t-18.5 -2.5 q-3 0 -25 20t-30 29q-5 4 -12 20.5t-8 18.5q-4 10 -12.5 27t-13 27.5t-7.5 22t-2 18.5q6 15 33 30q67 32 184 43q221 16 330 -114q59 -71 70 -193t-36 -215q-4 -9 -12.5 -21.5t-16 -22t-15.5 -19.5t-9 -11q-3 -3 0.5 -7t10.5 -10t10 -11q102 -126 108 -295zM578 926 q39 38 59 71.5t20 47.5v14q-23 -37 -39 -55.5t-43 -37t-32 -22.5q-4 -3 11 -11q19 -10 24 -7zM246 1288q35 12 61.5 18t61 6t67.5 -16t62 -49q-14 42 -51 63.5t-82 21.5t-84.5 -7.5t-67.5 -19.5q-32 -8 -39 -15q0 -3 10 -11.5t13 -8.5q2 -1 49 18zM436 801q13 -2 -10 30 l-8 9q-4 2 -37.5 5.5t-34.5 0.5q-3 -3 8 -18t15 -19q2 -1 33 -4t34 -4zM391 47q88 21 150.5 93t89.5 166.5t34 197.5t-9 193.5t-48 146.5q-14 24 -40.5 46t-44.5 34.5t-17 17.5q0 4 14 17.5t34 30t26 22.5q28 25 52 65.5t25 73.5q5 106 -33.5 178t-140.5 117q-64 28 -174 28 t-166 -30q-36 -22 -39 -27q0 -10 24.5 -57.5t37.5 -42.5q48 22 101.5 33t112 4.5t101.5 -35.5q64 -43 64 -122.5t-56 -133.5q-12 -12 -27.5 -20.5t-24 -11.5t-31.5 -9t-29 -8q-33 -7 -39 -15q-6 -5 -6 -58t8 -60q2 -2 25.5 -2.5t50.5 -6t41 -20.5q36 -39 58 -182.5 t11 -227.5q-5 -31 -8.5 -49t-11 -51t-16.5 -55t-22.5 -46.5t-32.5 -41.5t-42 -25q-33 -13 -61 -13.5t-53 12t-44.5 28.5t-44.5 43q-11 9 -37.5 -1.5t-35.5 -21.5q-31 -36 -33 -45q0 -7 20 -37q37 -49 88 -74.5t100 -26.5t99 9zM686 309q27 152 22.5 266t-49.5 203 q2 -6 7 -26t11.5 -54.5t8.5 -60.5q25 -299 -90 -479q-47 -74 -154 -117q63 1 117.5 45t85.5 103.5t41 119.5z" />
<glyph unicode="4" horiz-adv-x="937" d="M846 698q9 -98 -4 -116q-8 -10 -45 -9.5t-39 -3.5q-2 -2 2 -70.5t10 -152.5t6 -94q9 -199 4 -203q-15 -15 -96 -35q-42 -11 -51 -8q-9 2 -68 47q-10 7 -13 16t-5 31q-2 38 -3.5 93.5t-2.5 68.5q0 54 -4 156q0 12 0.5 33.5t0.5 34.5t-0.5 28t-2 23t-3.5 10q-30 5 -96.5 4 t-174 -4.5t-116.5 -3.5q-7 0 -15.5 5.5t-18.5 16t-18 20t-18 22t-14 16.5q-8 8 -12.5 17t-4.5 19.5t-0.5 18.5t5.5 21t8 19t11 20t11.5 18t13 19t11.5 16q42 63 171.5 249.5t173.5 247.5q153 209 184 215q12 3 49.5 -28t44.5 -45q5 -10 12 -126t14.5 -282.5t8.5 -183.5 q1 -12 0.5 -20.5t0 -15.5t3.5 -11q4 -4 18 -7q10 -1 34 -25t26 -32q2 -4 2 -29zM668 1450q-2 -11 -1.5 -25.5t3.5 -52.5t4 -51q4 -57 6.5 -184t7.5 -193q1 -14 4 -55t5.5 -67.5t4.5 -28.5q3 -3 15 -2t12 4q3 3 -8 304.5t-14 309.5q-3 9 -19.5 26t-19.5 15zM532 582 q0 3 1 13.5t0.5 17.5t-3.5 10q-5 4 -47.5 4t-95 -2t-57.5 -2q-16 0 -80.5 2.5t-97.5 2.5t-50 -3q-3 -4 14.5 -24.5t26.5 -25.5q23 -2 91 0t169 5t129 2zM582 82q3 -3 54.5 4t53.5 10q7 12 -4 137q-1 70 -8.5 199t-9.5 182q-2 25 2 34.5t18 10.5q70 0 72 5q1 1 -0.5 45.5 t-3.5 46.5q-1 1 -39 -0.5t-39 2.5q-6 6 -10 43q-4 40 -7 112.5t-4 87.5l-24 461q-3 2 -51 -58.5t-113.5 -149.5t-108.5 -154q-123 -180 -172 -246l-20 -28q-21 -27 -36 -48.5t-33.5 -49.5t-25.5 -45t-1 -19q8 -5 475 -5q8 0 14.5 -11.5t7.5 -31.5q2 -31 2 -114 q7 -417 11 -420zM745 53q1 3 -6.5 8t-16 9t-11.5 4q-10 0 -59 -5.5t-52 -9.5q-1 -4 14 -14t23 -12q7 0 57.5 8.5t50.5 11.5zM762 70q-2 30 -10 156t-14.5 235.5t-8.5 120.5q-1 4 -7.5 10t-13.5 10l-6 4q18 -501 21 -504l5 -6q5 -6 10 -11t11.5 -9.5t12.5 -5.5zM809 598 q3 4 -11.5 19t-21.5 20q-2 2 -30 1.5t-33 -5.5q-2 -2 7 -10.5t20 -16.5t14 -8q1 0 15.5 -1t26.5 -1t13 2zM827 618q3 2 1 46.5t-5 50.5q-1 6 -17.5 21.5t-19.5 13.5q-3 -3 -2 -44t4 -47q4 -9 18.5 -27t20.5 -14zM541 1157q24 35 35 -9q4 -18 4 -44q0 -3 1 -64t2 -136t1 -111 q0 -19 -19 -19q-46 -4 -156 -4t-130 4q-9 5 -5 17q8 16 75 107.5t129 175.5zM375 801q10 3 91 122t83 128q4 24 4 65q-4 -7 -64.5 -85t-116 -151.5t-53.5 -76.5q1 -4 21 -4.5t35 2.5zM553 817q2 53 2 180q-12 -24 -55.5 -90.5t-73.5 -103.5q7 0 29 -0.5t35 -0.5t29.5 1 t25 4.5t8.5 9.5z" />
<glyph unicode="5" horiz-adv-x="899" d="M717 866q55 -79 76.5 -177t14.5 -195t-38 -201q-27 -88 -71.5 -147.5t-120.5 -102.5q-71 -41 -147 -46t-155 17q-57 14 -106.5 64.5t-79.5 107.5q-2 4 -9 15.5t-10.5 18.5t-8.5 18.5t-7 20t-2 19t4 19.5q4 12 23 23.5t51.5 24.5t36.5 15q18 9 33 9q13 -1 46.5 -12.5 t39.5 -16.5q11 -9 31.5 -37t35.5 -39q43 -28 93.5 -0.5t91.5 76.5t57 92q13 39 18 84t-4 93t-35 77q-37 42 -99 64.5t-122 22.5t-116 -11q-21 -5 -49 21t-42 51q-10 20 -10 24q-6 103 -10 225q-2 29 -8 170t-8 170q0 48 8 58q12 14 133 14q30 0 91 1t91 1q2 0 137 6h16.5h15 h11.5t10 -1t8 -2t9 -3.5t8 -4.5t9.5 -6.5t10 -8.5t13.5 -11q27 -22 27 -30q2 -7 2.5 -63.5t-4.5 -63.5q-5 -4 -157 -15t-155 -14q-6 -4 1.5 -127.5t13.5 -128.5q8 -8 47 -8q69 -3 143.5 -46.5t116.5 -103.5zM655 1458q-2 -4 -2.5 -43t2.5 -47q4 -7 18 -17t17 -5q3 7 3.5 35 t-3.5 44q-1 7 -16.5 21.5t-18.5 11.5zM668 1323q0 6 -12 18.5t-19 12.5q-3 0 -137 -8q-12 0 -62 -1t-77 -2.5t-27 -5.5q0 -5 17.5 -17t27.5 -13q10 -2 140 4.5t149 11.5zM377 1026q3 4 -3 123t-9 127q-5 8 -25 28t-23 19q-5 -3 4 -150t13 -149q6 -2 22.5 -2t20.5 4zM229 793 q118 21 197.5 2t144.5 -68q-52 59 -90 78q-67 30 -150.5 32.5t-129.5 -14.5q-8 -2 10 -19q12 -11 18 -11zM338 252q-15 11 -35 38t-24 29q-6 5 -19 9.5t-22 5t-11 -1.5q-2 -21 37.5 -52t73.5 -28zM215 84q55 -37 115 -44t114 12.5t100.5 54t84.5 81.5q18 21 43.5 78.5 t34.5 95.5q36 144 26 306q-8 137 -80 222.5t-196 100.5q-13 2 -46 1t-54.5 -2t-30.5 1q-13 4 -19 49q-7 84 -13.5 197t-2.5 117q6 5 30.5 7t62.5 3t54 2q32 0 107 3t80 7q5 3 3.5 53t-7.5 50q-22 2 -78.5 -0.5t-125.5 -6t-95 -4.5q-36 0 -108.5 -4t-76.5 -8q-6 -8 15 -307 q8 -178 18 -260q4 -28 8 -31q3 -3 35 0q238 33 332 -57q62 -59 87 -150t3.5 -186t-86.5 -158q-23 -23 -55 -43t-74 -33t-81.5 -10.5t-78 32t-63.5 87.5q-3 6 -28 -3.5t-50.5 -27.5t-30.5 -33q-3 -12 8 -30q3 -6 18 -34.5t21 -38t19.5 -30t28 -34t32.5 -25.5zM690 176 q21 26 44 87t41 140t14.5 172t-35.5 166q37 -303 -54 -493q-39 -84 -130 -154t-167 -71q56 -11 118 17t99.5 62.5t69.5 73.5z" />
<glyph unicode="6" horiz-adv-x="858" d="M365 707q67 4 115.5 -26t71 -79.5t27 -112.5t-9.5 -123t-46 -112t-77 -78q-41 -23 -100 -14.5t-96 39.5q-61 49 -74 176q-6 76 9.5 147t62 124.5t117.5 58.5zM240 586q-20 -34 -28.5 -92.5t-3.5 -119t32.5 -112.5t74.5 -69q-81 120 -73 256q6 86 42.5 144t112.5 89 q-100 -3 -157 -96zM483 240q42 47 57 164q18 137 -24 210q-44 76 -139 31q-43 -21 -68.5 -71.5t-31.5 -100.5t-3 -100q3 -60 30.5 -113t73.5 -68.5t105 48.5zM752 647q22 -56 34 -123.5t8 -148t-28.5 -149.5t-85 -126.5t-152.5 -81.5q-55 -16 -110 -14t-131 25 q-67 19 -115 69.5t-72.5 119t-35 134t-11.5 133.5q-5 276 97 619q20 62 46 121t65.5 122t94 105.5t115.5 50.5q10 2 25.5 1.5t21.5 -3.5q1 0 15 -8.5t24.5 -15.5t23 -20.5t17.5 -26.5q1 -4 -2 -37.5t-6 -51.5q-3 -9 -37 -26q-59 -29 -92 -64q-76 -81 -96 -217 q-22 -127 -13 -141q3 -5 10.5 -7.5t24.5 -4t23 -2.5q63 -10 105.5 -22t91.5 -36.5t85 -68t60 -105.5zM528 1481q-1 -3 0.5 -33.5t3.5 -38.5q3 -8 21.5 -30t21.5 -21q4 0 8 33t1 36q-4 8 -28 33t-28 21zM518 1391q-7 0 -29.5 -16.5t-57 -53.5t-62.5 -82q-63 -95 -84 -227 q-19 -113 -13 -119q4 -4 22.5 -6t20.5 0q4 6 6 39t11.5 92t29.5 117q16 48 41.5 85.5t51 58.5t48.5 34.5t38 20t16 7.5q2 5 -14.5 27.5t-24.5 22.5zM291 70q76 -26 154 -4t143 76t94 118q28 63 43 150.5t4 180.5t-57 140q-51 53 -133 86.5t-234 40.5q-50 3 -61 14 q-5 9 -3 37.5t9 57.5q31 151 69 236.5t125 168.5q19 19 36.5 29t24.5 12.5t7 5.5l1 20q1 20 0 32t-5 12q-42 0 -80.5 -16t-67 -41t-56 -63.5t-45.5 -73.5t-37 -83t-29 -80t-23 -75q-81 -287 -86 -551q-1 -54 7 -110t28 -122.5t64.5 -119.5t107.5 -78zM387 25q420 40 373 467 q-1 7 -4 34q4 -5 1.5 -46t-7 -88t-30.5 -113t-69 -121q-78 -100 -264 -133z" />
<glyph unicode="7" horiz-adv-x="937" d="M858 1270q0 -11 -16.5 -83.5t-18.5 -84.5q-2 -9 -12 -53t-18 -79t-7 -38q0 -2 9 -8t20 -14t14 -13q6 -6 2 -51q-1 -15 -2 -46.5t-2 -45.5q0 -7 -6 -13q-8 -7 -62.5 -14.5t-56.5 -9.5q-10 -6 -16 -68q-13 -109 -39 -205q-12 -44 -31.5 -127t-37.5 -150.5t-37 -125.5 q-3 -16 -56 -27q-61 -13 -67 -12q-6 2 -28 24t-28 33q-3 5 1.5 33t11.5 64t8 51q4 35 20 110.5t33.5 155t18.5 84.5q0 3 7 30.5t11 51.5t0 29q-2 6 -54 5l-52 -1q-22 13 -48 73q-6 15 -6 60q0 53 13 72q12 15 110 24q6 1 23.5 2.5t26.5 3t20.5 5.5t17.5 10q9 8 16.5 27.5 t12 36.5t9.5 41t7 30q23 114 29 149q7 42 2 45q-11 6 -53 0q-32 -4 -118.5 -8t-169.5 -6.5t-91 -3.5q-24 -1 -50 16.5t-44 40.5q-15 20 -17 35q-6 53 -6 141q0 13 35 25q27 8 211 8q83 0 240.5 -2t199.5 -2h9t9.5 0.5t9 -0.5t9.5 -2t8.5 -3.5t8.5 -6.5q16 -11 37.5 -35 t25.5 -31q5 -9 6 -31t-0.5 -61.5t-1.5 -54.5zM791 1450q-2 -9 -1 -28l3 -57t2 -56q4 -6 20.5 -15.5t18.5 -7.5q4 4 4 60q0 51 -4 63q-2 5 -21 24.5t-22 16.5zM147 1257q9 -3 232.5 12.5t226.5 18.5q3 1 2.5 10.5t-4.5 10.5q-8 4 -246 -9t-243 -16q-2 -1 2 -6t12.5 -11 t17.5 -10zM379 690q1 -1 16.5 -0.5t33 1.5t33.5 2l15 1q2 4 6.5 28.5t3.5 27.5q-4 2 -68 -3t-67 -10q-3 -7 6.5 -24t20.5 -23zM479 537q-92 -447 -88 -451q3 -3 36 0t36 6t6.5 11t7.5 21.5t6.5 23.5t6.5 28t6 25q7 26 24.5 97t31 121t28.5 97q11 35 26 101.5t25 114.5t12 50 q7 10 74 17q29 0 35 12q5 9 7.5 49t-1.5 45q-4 3 -30.5 4.5t-29.5 3.5q-4 6 4 31q20 68 35 176q3 21 16.5 85.5t14.5 99.5q2 45 0 101.5t-6 59.5q-3 3 -16 3t-33 -1.5t-27 -1.5h-59q-518 0 -541 -14q-6 -6 -6 -68q0 -52 6 -61q8 -10 135 -4q35 0 108.5 5t104.5 5 q23 -1 91 2.5t91 -0.5q13 -1 17.5 -17.5t2 -42t-6.5 -49.5t-9 -48.5t-6 -30.5q-3 -22 -34 -180q-16 -73 -23 -78q-12 -7 -82 -15q-3 0 -39.5 -2.5t-60.5 -4.5t-27 -5q-4 -4 -4 -84q2 -11 84 -2q4 0 28.5 3t41.5 3q10 0 18 -4q4 -4 -10 -91t-27 -146zM426 23q14 0 49 9t35 13 q0 3 -18 12t-25 11q-9 0 -41 -4.5t-33 -8.5q-3 -4 10.5 -17t22.5 -15zM623 453q2 8 9 40.5t15 66.5t15.5 70t12 60t3.5 27q-2 7 -6 15t-8.5 13t-6.5 3q-2 -1 -11 -42t-27 -120.5t-35 -147.5q-18 -73 -43.5 -161t-40 -137t-13.5 -52q2 -3 20 -16.5t19 -12.5q4 3 37.5 139.5 t59.5 254.5zM791 754q2 2 -2.5 9t-12.5 13t-14 6q-22 2 -55.5 -1t-34.5 -7q-2 -5 7.5 -16t20.5 -17q6 -3 47.5 3.5t43.5 9.5zM786 901q-6 -9 -6 -94q1 -7 12.5 -20t16.5 -13q3 0 6 46.5t0 53.5t-9 14t-12 11t-8 2zM756 942q4 4 41 153.5t34 157.5q-3 4 -16.5 10.5t-17.5 6.5 q-4 -1 -37 -155.5t-35 -172.5q1 -3 13.5 -2.5t17.5 2.5z" />
<glyph unicode="8" horiz-adv-x="960" d="M418 1012q-41 -1 -74.5 16.5t-51 46t-26.5 63.5t-1.5 70t24.5 64.5t51 48.5t78 20q55 2 93 -31t47 -81.5t0.5 -97.5t-46.5 -83.5t-94 -35.5zM373 1303q-29 -14 -50.5 -43t-30 -63t4 -72.5t47.5 -67.5q-29 77 -13 144.5t77 109.5q-22 0 -35 -8zM358 1139q0 -3 1 -10 q3 -22 5.5 -33.5t10 -27t22.5 -20.5t37 -1q76 16 92 94q12 64 -19 118q-30 50 -69 33q-9 -4 -18 -12q-72 -69 -62 -141zM418 838q49 6 87.5 -19.5t60.5 -67t35.5 -95t17.5 -100t2 -85.5q-2 -59 -15 -109t-37.5 -92.5t-67 -69t-98.5 -30.5q-80 -7 -135 48.5t-74.5 142 t-9.5 184.5q5 46 22 93.5t45.5 90.5t72 73t94.5 36zM217 436q2 -36 16.5 -90t40.5 -82q-34 120 -26 223.5t42.5 178.5t88.5 118q-83 -28 -127.5 -134.5t-34.5 -213.5zM512 248q31 36 48.5 82t20.5 99t0.5 96.5t-10.5 99.5q-4 30 -15.5 62.5t-30.5 58.5t-42 39.5t-52 4 t-58 -46.5q-65 -86 -87 -199t1 -206q16 -88 59 -119q30 -19 86 -8.5t80 37.5zM774 831q75 -139 92.5 -251.5t-6.5 -229.5q-20 -143 -129 -252q-46 -46 -90.5 -63t-118.5 -25q-138 -16 -239.5 49t-159.5 172q-60 108 -69.5 258.5t38.5 264.5q47 104 164 180 q-61 58 -94.5 114.5t-36.5 127.5q-4 76 30 149.5t99.5 123t144.5 52.5q126 3 221 -42t136 -142q63 -147 32 -266q-5 -21 -14 -43t-21 -48.5t-18 -41.5q-5 -12 0.5 -26.5t21.5 -36.5t17 -24zM721 1331q9 -39 14.5 -81t4.5 -96.5t-13 -90.5q-18 -56 -68 -117q-4 -6 13 -13 q32 -12 41 -3q32 78 44.5 137.5t4.5 125.5t-41 138zM403 49q72 -9 133.5 10t103.5 60t70 95t40 118q27 141 10 262q-19 119 -94 252q-22 44 -54 72q-9 12 -5 20t28 33l14 14q28 30 44.5 89t17 124t-26 129t-78.5 98q-48 30 -122.5 44t-143.5 -7q-93 -36 -143 -128.5 t-35 -194.5q7 -49 46.5 -106.5t80.5 -80.5q24 -12 -3 -38q-8 -7 -30 -25l-31 -25q-56 -47 -88.5 -103.5t-41.5 -119.5t-7 -117.5t14 -122.5q25 -140 101.5 -238t199.5 -114zM596 53q63 18 117 74.5t86.5 142t40 184.5t-24.5 214t-104 219q-1 0 -11 5q-41 17 -41 13 q20 -23 61.5 -100t57.5 -125q14 -43 20.5 -112.5t-1.5 -158t-35 -153.5q-34 -77 -67 -119t-99 -84z" />
<glyph unicode="9" horiz-adv-x="880" d="M385 1503q90 6 162.5 -24.5t119.5 -87t80 -133.5t48 -162t18 -173t-5 -167t-24 -144q-55 -213 -196 -424q-3 -5 -28.5 -43.5t-41.5 -61t-40 -48.5t-42 -33q-12 -4 -29 4.5t-30 20t-29.5 28.5t-21.5 21q-5 6 -19 19.5t-22.5 23.5t-8.5 14q0 10 15 25q10 14 36 42t38 46 q87 137 120 260q27 95 19 260q0 35 -10 45q-4 4 -17 4q-98 -4 -141 -8q-75 -6 -141 45t-104 140t-38 192q-1 130 96.5 220t235.5 99zM489 844q0 24 -4 26q-1 1 -14.5 -3.5t-40 -10t-53.5 -6.5q-115 -7 -195 45q19 -21 39 -35t32 -20.5t33.5 -9.5t27.5 -3h30q18 0 81 6.5 t64 10.5zM350 100q21 -22 29.5 -22t28.5 26q79 108 153 232q152 250 164 526q0 4 2 50l2.5 57.5t1 54.5t-1.5 60.5t-4.5 55t-8.5 59.5t-13.5 51.5t-20 52.5t-27.5 43q-133 184 -360 114q-83 -26 -138 -91t-68 -147t11 -173q19 -63 61 -105.5t94.5 -59t109.5 -13.5t110 26 q7 4 20 2t17 -10q7 -12 15.5 -65.5t9.5 -110.5q3 -117 -30.5 -241.5t-115.5 -235.5q-2 -3 -23.5 -27.5t-38.5 -46.5t-16 -29q0 -8 37 -33zM723 514q26 76 41.5 148t22.5 163t-7 195.5t-49 216.5q27 -168 29 -231q0 -109 -17 -263q-5 -47 -20 -102t-26 -84t-38 -98 q-38 -91 -120 -223q-15 -27 -69.5 -98t-61.5 -85q-3 -5 11.5 -15.5t18.5 -10.5q4 1 33 41.5t63.5 90.5t40.5 58q80 107 148 297zM387 1374q68 4 118.5 -50.5t59.5 -131.5q11 -73 -21.5 -136t-97.5 -81q-91 -25 -166.5 29t-84.5 139q-10 97 42 158.5t150 72.5zM367 1343 q-56 -3 -99.5 -54t-44.5 -115q-3 -99 101 -166q-69 91 -72 159q-3 63 33 111t82 65zM489 1028q25 19 38.5 65t7.5 95q-10 76 -56.5 118t-116.5 9q-38 -18 -59.5 -58.5t-19.5 -85.5q1 -58 28.5 -106t73 -63t104.5 26z" />
<glyph unicode=":" horiz-adv-x="491" d="M416 940q6 -12 6 -119q0 -24 -0.5 -51t-1.5 -44v-17q-1 -8 -124.5 -24t-137.5 -13q-7 2 -19 15.5t-25 32t-16 21.5q-18 24 -26 50q-6 18 -13 113t0 102q14 14 162 14q68 0 86 -2q19 0 56.5 -28t52.5 -50zM88 973q-8 -12 0.5 -85.5t15.5 -78.5q19 -13 106 1t95 26 q8 14 2 73t-14 66q-11 8 -88 8q-107 0 -117 -10zM369 733q4 6 -14.5 30.5t-28.5 31.5q-6 4 -99 -6.5t-100 -18.5q-4 -4 13 -30t28 -31q8 -3 101.5 7t99.5 17zM393 780q8 6 2.5 73.5t-10.5 74.5q-6 11 -22.5 22.5t-22.5 7.5q-6 -5 -5 -67.5t7 -71.5q37 -49 51 -39zM414 176 q10 -14 17 -114t1 -105q-12 -9 -115 -12.5t-120 0.5q-9 2 -14 3.5t-12 6t-11.5 8.5t-19 16t-27.5 23q-14 11 -23 23t-13 28t-5.5 27t-3 33.5t-2.5 33.5q-9 42 -1.5 62t50.5 27q31 5 89.5 6t76.5 2h12q12 2 63 -26.5t58 -41.5zM109 199q-5 -156 20 -158q27 -3 99.5 3t82.5 13 q5 3 2.5 72.5t-8.5 73.5q-57 2 -110 2q-78 0 -86 -6zM195 -20q17 -1 89.5 -0.5t98.5 2.5q-3 10 -16.5 23t-24.5 18q-12 -1 -56.5 -2t-85 -2.5t-59.5 -4.5q26 -32 54 -34zM408 23q3 3 -2.5 62t-8.5 69q-5 9 -22 18.5t-23 3.5q-3 -4 -0.5 -53t6.5 -55q9 -15 25.5 -33t24.5 -12 z" />
<glyph unicode=";" horiz-adv-x="546" d="M459 926q8 -11 8 -142q0 -102 -4 -110q-1 -10 -135.5 -27t-147.5 -12q-9 2 -22 17t-26.5 35.5t-16.5 23.5q-23 30 -29 51q-7 22 -14.5 122.5t0.5 112.5q15 15 161 15q84 0 107 -2q22 0 63 -30.5t56 -53.5zM104 961q-11 -16 -1.5 -94t18.5 -83q20 -14 114.5 1t104.5 28 q8 14 1 78.5t-15 71.5q-10 10 -99 10q-114 0 -123 -12zM408 700q5 5 -16 33t-32 35q-5 4 -107 -7.5t-110 -19.5q-5 -5 15 -33t32 -32q8 -5 109.5 6t108.5 18zM436 752q8 6 2 79t-12 80q-8 13 -25.5 26t-23.5 9q-6 -3 -6 -61q0 -78 8 -90q1 -1 9.5 -11t15.5 -17.5t16.5 -12.5 t15.5 -2zM436 135q8 -40 8 -76q0 -136 -75 -270q-24 -43 -76 -66.5t-76 -21.5q-21 4 -60 22t-48 35q-5 10 4 39t25.5 70.5t21.5 64.5q-10 7 -49 42.5t-45 43.5q-5 6 -9 48.5t-4 83.5q0 66 10 71q14 7 148.5 18t144.5 3q10 -7 43.5 -50t36.5 -57zM119 6q-2 -4 9 -14.5 t23.5 -16.5t14.5 0t1 17t-5 14q-6 6 -23 6.5t-20 -6.5zM186 -88q-1 -6 -13 -32q-39 -87 -23 -103q7 -8 26 -4q174 46 170 270q0 2 1 27t1 43q0 81 -16 94q-2 10 -118 0.5t-122 -8.5q1 -15 3.5 -56.5t5 -72t5.5 -35.5q3 -4 26.5 -3t29.5 3q12 0 20.5 -4t11.5 -12.5t4.5 -17.5 t0 -22.5t-3.5 -22.5t-5 -23.5t-4 -20.5zM365 -152q22 43 34.5 107t15 106.5t-0.5 49.5q-3 12 -16 32t-23 27q-2 -10 3 -45.5t5 -42.5q2 -58 -8.5 -111.5t-35 -102t-70.5 -81.5t-109 -43q10 -8 36 -11t40 1q38 8 76 45.5t53 68.5z" />
<glyph unicode="&#x3c;" horiz-adv-x="1392" d="M1354 956q0 -10 -1 -41.5t-2.5 -77t-2.5 -75.5q-1 -22 -14.5 -30.5t-49.5 -16.5q-114 -33 -176 -45q-6 -2 -56.5 -16t-114.5 -31.5t-95 -26.5q-35 -8 -174 -53q-2 -1 -28 -9t-53.5 -17.5t-39.5 -16.5q65 -20 339 -89.5t298 -76.5q17 -4 67 -48t52 -53q2 -8 -2.5 -94 t-8.5 -125q-5 -21 -63 -10q-48 10 -137 35q-28 8 -87.5 21.5t-89.5 21.5q-83 25 -100 29q-649 158 -661 170q-9 7 -48 51t-43 57q-2 3 -7 42.5t-5 53.5v62q0 60 2 76q1 9 1.5 24.5t1.5 22t5.5 13.5t12.5 11q252 72 342 103q19 10 96 28q8 3 40 15.5t50 15.5q18 5 137.5 48 t151.5 52q71 20 98 29q13 5 68.5 26.5t92.5 33.5t75 20q3 1 12.5 4.5t16 5.5t15.5 4t16.5 1t12.5 -5q41 -74 43 -78q1 -3 4.5 -10t6 -15.5t2.5 -15.5zM1227 266q-4 -4 -4 -90t2 -88q2 -6 23 -28t24 -21q4 4 2 92t-4 98q-3 10 -20.5 25t-22.5 12zM1237 33q1 1 -16.5 18 t-22.5 21q-15 7 -59 18.5t-86 21.5t-45 11q-9 4 -72.5 23t-77.5 22q-8 2 -192 54.5t-358.5 100t-178.5 42.5q-3 -7 11 -25.5t24 -26.5q9 -7 173 -45t167 -39q134 -40 233 -63q9 -3 60 -14q12 -3 39.5 -10t48.5 -12.5t24 -6.5q7 -2 54.5 -16t52.5 -15q23 -5 78.5 -20.5 t98 -27.5t44.5 -11zM326 522q0 7 76 33.5t176.5 57.5t103.5 32q19 6 63 20t76 25.5t62 24.5q43 17 59 22q4 2 63.5 26t75.5 28q5 1 81 23t83 24q3 25 7 80t5 67q1 6 2.5 14t2.5 12t1 9.5t-2.5 6.5t-8 3t-15.5 -2q-9 -2 -77.5 -24.5t-144.5 -48t-95 -31.5q-37 -12 -143.5 -48 t-197 -67t-96.5 -33q-37 -12 -139.5 -42t-174 -52.5t-75.5 -30.5q-6 -12 -6 -123q0 -93 6 -108q4 -10 80.5 -33t159 -44.5t90.5 -25.5q13 -7 145 -39t164 -38q6 -1 121 -36t222 -66t112 -27q13 9 8 100q-1 13 -0.5 27.5t0 30.5t-3.5 22q-5 10 -309.5 87t-411.5 93 q-33 6 -88.5 24t-56.5 27zM1280 756q2 10 -6 29t-21 24q-4 2 -29.5 -5t-63 -20.5t-70 -26t-65.5 -25t-36 -13.5q-8 -3 -32.5 -10t-38.5 -13q-13 -8 -68 -26q-23 -7 -199.5 -71.5t-197.5 -74.5q-4 -2 5 -4q3 -1 8 -2q8 -1 9 -2q2 -1 34 8.5t66.5 19.5t38.5 11q13 3 113 35 t125 39q19 5 78 20t88 25q6 2 73 20.5t127 37t62 24.5zM1313 784q4 3 8 90.5t2 96.5q-1 3 -4.5 11.5t-8.5 17t-9.5 15t-6.5 5.5q-5 -2 -9.5 -88.5t-0.5 -95.5q3 -9 6 -17.5t7 -18t8 -14t8 -2.5z" />
<glyph unicode="=" horiz-adv-x="1067" d="M1008 983q3 -6 -8.5 -86.5t-14.5 -87.5q-4 -7 -407.5 -17t-442.5 -8q-35 5 -39 7q1 -1 -8.5 13t-20 31t-12.5 21q-2 6 -2 76v90q1 6 1 16.5t0.5 16t2.5 11t6 7.5q6 2 35.5 -2t32.5 -4q1 0 78 1.5t168 3t127 1.5q8 0 115.5 2t209 3.5t105.5 0.5q17 0 45.5 -44t28.5 -52z M94 893q4 -4 84 -4q32 0 137.5 1.5t133.5 0.5q15 -1 94 3t98 3q35 0 98 3t101 3q5 0 21 -2t26 -3t16 1q7 8 5.5 69.5t-7.5 69.5q-17 3 -64.5 2t-119 -3.5t-76.5 -2.5h-254h-166q-1 0 -20.5 0.5t-36.5 0.5t-36 -1t-26 -4q-8 -2 -12.5 -64t4.5 -73zM797 823q8 0 51 -1t66 0 t24 5q0 4 -12.5 19.5t-20.5 19.5t-123 4q-186 0 -431.5 -6.5t-248.5 -13.5q-2 -3 1.5 -9t13 -18t10.5 -14q49 -4 124 -2.5t240 7t181 5.5q22 0 63.5 2t61.5 2zM969 846q2 3 5 26t7 53t6 44q1 4 -9.5 20.5t-21.5 30.5t-12 10q-2 -10 -6 -71t0 -74q1 -5 8.5 -15.5t14.5 -18 t8 -5.5zM1008 637q3 -6 -8.5 -86.5t-14.5 -87.5q-4 -7 -407.5 -17t-442.5 -8q-38 5 -39 6q1 -1 -8.5 13.5t-20 31.5t-12.5 21q-2 6 -2 76v90q1 6 1 16.5t0.5 16t2.5 11t6 7.5q6 2 35.5 -2t32.5 -4q1 0 78 1.5t168 3t127 1.5q14 0 220.5 3t209.5 3q17 0 45.5 -44t28.5 -52z M94 547q4 -4 84 -4q32 0 137.5 1.5t133.5 0.5q15 -1 94 3t98 3q35 0 98 3t101 3q5 0 21 -2t26 -3t16 1q7 8 5.5 69.5t-7.5 69.5q-17 3 -64.5 2t-119 -3.5t-76.5 -2.5h-254h-166q-1 0 -20.5 0.5t-36.5 0.5t-36 -1t-26 -4q-8 -2 -12.5 -64t4.5 -73zM797 477q139 -6 141 4 q0 4 -12.5 19.5t-20.5 19.5t-123 4q-186 0 -431.5 -6.5t-248.5 -13.5q-2 -3 1.5 -9t13 -18t10.5 -14q49 -4 124 -2.5t240 7t181 5.5q22 0 63.5 2t61.5 2zM969 500q2 3 5 26t7 53t6 44q1 4 -9.5 20.5t-21.5 30.5t-12 10q-2 -10 -6 -71t0 -74q1 -5 8.5 -15.5t14.5 -18t8 -5.5z " />
<glyph unicode="&#x3e;" horiz-adv-x="1462" d="M1405 508q1 -6 -4 -97.5t-4 -95.5q2 -5 -3.5 -13t-11.5 -9q-95 -19 -161 -39q-89 -27 -398 -94q-45 -12 -342 -84t-307 -72q-17 -3 -39 14q-29 22 -33 52q-6 30 -9.5 87.5t3.5 80.5q6 10 123.5 52t238 82t124.5 42q131 56 172 71q-39 16 -284 88t-265 82q-39 17 -51 31 q-16 21 -46.5 68t-33.5 63q-6 34 -16 127.5t-7 108.5q4 29 39 24q10 -1 320 -115.5t338 -125.5q410 -140 563 -191q7 -4 49.5 -66.5t44.5 -70.5zM176 707q14 -12 314 -106.5t315 -94.5q14 0 41.5 9t49 19t19.5 13q-5 6 -391.5 119.5t-390.5 109.5t15 -32t28 -37zM135 84 q4 -3 144 38t208 62q65 20 180 51t160 44q288 80 406 104q52 12 55 16q4 6 4 56q4 24 4 100q0 50 -6 59q-4 7 -106.5 42.5t-242.5 82.5t-198 70q-19 7 -119 44t-151 58h-2q-23 6 -47.5 15t-55.5 21t-46 18q-61 26 -105 41q-20 2 -48 11t-47.5 15.5t-23.5 3.5q-5 -5 0.5 -103 t16.5 -114q5 -5 428 -129.5t430 -130.5q22 -17 -23 -33q-4 -1 -10 -3t-8 -3q-107 -43 -156 -59q-17 -4 -33 -11t-36.5 -16.5t-30.5 -13.5q-5 -2 -142 -51t-270 -98t-137 -56q-5 -9 -2.5 -68t10.5 -63zM1343 315q5 9 -23.5 31t-41.5 19q-27 -8 -421 -113.5t-406 -108.5 q-99 -32 -150 -45q-23 -5 -59 -15.5t-63.5 -19t-28.5 -8.5q-12 -3 6 -16q11 -8 20 -8q13 0 588.5 138t578.5 146zM1370 346q4 7 7.5 74.5t0.5 75.5q-1 4 -12 21t-22.5 31.5t-14.5 12.5q-4 -1 -6.5 -72t0.5 -81q0 -2 10 -19t21.5 -32t15.5 -11z" />
<glyph unicode="?" horiz-adv-x="671" d="M569 1370q39 -65 39 -129q0 -35 -12 -78t-22 -66.5t-38 -79t-34 -67.5q-66 -138 -66 -329q0 -29 1 -83t1 -79q-1 -20 0.5 -43.5t2 -30.5t-2.5 -16q-10 -8 -78 -14.5t-77 3.5q-32 35 -43.5 56.5t-18.5 66.5q-18 130 -18 242q0 109 24 180q17 48 65 124t62 114q15 43 15 80 q0 63 -31 82q-29 20 -57 20q-36 0 -88 -33q-26 -14 -54 4q-81 47 -86 115q-6 64 219 86q94 14 173 -19t124 -106zM236 1333q44 15 92 0q-10 21 -40 28t-67 1q-11 0 -51.5 -14.5t-36.5 -22.5q1 -4 15.5 -11t19.5 -7q7 -1 20 4t29.5 13t18.5 9zM252 446q6 -14 10 -16 q5 -3 46.5 0t47.5 12q6 13 4 31q-2 33 -2 94q0 144 29 277q11 46 38.5 102t53.5 98.5t47.5 98.5t24.5 106q6 113 -58.5 170.5t-175.5 57.5q-21 0 -61 -4q-85 -10 -162 -52q-20 -13 -16.5 -30t17.5 -31.5t22 -11.5q70 34 141 34q103 0 127 -82q10 -42 10 -71 q0 -53 -18.5 -104t-56.5 -119t-50 -95q-39 -86 -39 -194q0 -13 5 -101q5 -128 16 -170zM397 387q2 3 -8.5 14.5t-17.5 12.5q-6 2 -47 -0.5t-45 -5.5t6.5 -15.5t19.5 -17.5q5 -3 46.5 1.5t45.5 10.5zM444 868q13 47 50.5 114.5t64.5 131t27 123.5q0 35 -8 66q-2 -20 -2.5 -51 t-2.5 -44q-8 -52 -31.5 -101t-62.5 -112q-51 -78 -76 -192q-24 -115 -24 -281q0 -80 4 -84q6 -9 13.5 -16.5t13 -10.5t6.5 -1q2 2 2 102q0 260 26 356zM416 238q13 0 39.5 -19.5t36.5 -34.5q4 -12 4 -82v-23t-0.5 -21.5t-1 -17t-0.5 -12.5v-5q-1 -5 -86.5 -16t-96.5 -9 q-5 2 -13 11.5t-17 22.5t-11 15q-10 11 -18 33q-4 16 -8.5 78.5t0.5 72.5q9 9 100 9q58 0 72 -2zM264 207q-7 -10 -1 -59.5t11 -53.5q13 -8 74 1.5t66 17.5q7 10 2 50.5t-10 45.5q-8 7 -72.5 5.5t-69.5 -7.5zM459 41q3 3 -10.5 20.5t-20.5 22.5q-4 2 -69 -5t-70 -11 q-3 -3 9 -21.5t21 -21.5q5 -3 70.5 3.5t69.5 12.5zM475 74q5 4 1.5 50t-7.5 52q-5 8 -16 17t-15 6t-3.5 -48t5.5 -51q6 -9 17.5 -19.5t17.5 -6.5z" />
<glyph unicode="@" horiz-adv-x="1257" d="M1188 575q4 -9 0 -52t-4.5 -48t-7.5 -48t-9 -52q-10 -59 -32.5 -102t-67.5 -103q-29 -38 -74 -76.5t-73 -50.5q-13 -5 -37 -6.5t-37 2.5q-53 18 -53 86q-1 20 3 43.5t8 37.5l5 13q-44 -30 -78.5 -42t-81.5 -11q-69 5 -149 61q-66 48 -76 166q-6 66 12 113.5t50.5 69.5 t60.5 31.5t53 10.5q3 0 32.5 -2t57 -3.5t29.5 -0.5q8 6 -2.5 32t-28.5 44q-27 21 -45 27q-58 11 -143 -17q-2 -1 -23 -10.5t-28 -11.5q-11 -7 -15 2q-2 1 -14 9.5t-21.5 15.5t-11.5 10q-6 12 -8 22q-3 15 -14 72q-3 20 6 20q20 15 55 23q109 33 158 31q107 -5 179 -50.5 t116 -138.5q41 -81 55 -194q3 -31 6 -94.5t6 -94.5q84 122 84 312q0 64 -8 116q-15 104 -144 189.5t-253 85.5q-43 0 -80 -15q-109 -42 -213 -174q-59 -77 -78 -151q-12 -56 -12 -101q0 -39 6 -88q7 -63 46.5 -127t90.5 -102q45 -34 94.5 -57t84 -32.5t71 -12.5t48 -2 t23.5 2h1q7 1 11.5 -0.5t6.5 -4t6 -8.5t8 -10q1 -1 8 -10t11.5 -15t5.5 -10q3 -13 1.5 -50t-7.5 -44q-1 -3 -69 2.5t-105 11.5q-101 13 -179 41t-151 84q-92 70 -146 172t-57 217q-3 114 42 238.5t120 210.5q56 64 103 99t117 55t169 20q86 0 225 -57q106 -44 164 -105 q79 -76 106 -113q23 -31 40 -65q16 -34 27 -72.5t14 -56.5t6.5 -62t3.5 -45zM717 117q-1 -3 -0.5 -39.5t2.5 -42.5q0 -3 7.5 -4t14.5 -1t7 1q4 1 4 22.5t-4 30.5q-7 11 -17.5 24t-13.5 9zM434 956q89 62 109 62q-25 0 -52.5 -10.5t-43.5 -20t-45 -31t-37 -26.5 q-93 -65 -160 -252q-19 -55 -19 -109q0 -114 65 -218t167 -148q-201 152 -201 354q0 36 10 84q28 133 111 221q8 9 23 25t23.5 25.5t22 22t27.5 21.5zM911 559q-4 25 -24 78.5t-39 75.5q4 -8 31 -95q2 -7 6.5 -23.5t5.5 -21.5q18 -105 22 -184q6 -115 9 -117q3 -4 10 9 q6 11 6 14q2 9 -8 82q-17 165 -19 182zM496 715q52 18 100 18q42 0 78 -16q-33 35 -70 35q-40 4 -85 -4.5t-72 -19t-29 -15.5q-1 -4 10 -12.5t16 -8.5q2 0 10 4.5t20 10t22 8.5zM575 203q35 -21 76 -21q35 0 74.5 12.5t61.5 24.5t22 14q0 13 -2 15q-1 0 -13 -6t-31 -14.5 t-47.5 -16.5t-63 -11t-77.5 3zM829 225q-12 -44 -12 -84q0 -74 68 -53q55 24 90 59q69 68 111.5 166.5t43.5 196.5q2 139 -36.5 251.5t-128.5 205.5q-69 71 -169 114.5t-202 51.5q-90 6 -189.5 -40.5t-162.5 -117.5q-149 -168 -168 -408q-13 -169 110 -321q64 -78 140 -120 t221 -79q12 -3 49 -7.5t67.5 -7.5t32.5 -3q2 11 0 47.5t-4 44.5q-7 7 -76 4v2q-98 3 -206 57q-76 38 -133 108t-91 157q-16 41 -16 104q0 133 61 242q36 63 67.5 100.5t78.5 69.5q50 35 91.5 52.5t94.5 18.5q106 2 211 -37t184 -120.5t91 -186.5q4 -27 4 -82 q0 -206 -97 -334q-2 -4 -6.5 -9.5t-13.5 -15t-16.5 -8t-10.5 16.5q-2 24 -3.5 73t-2.5 56q-4 66 -33 213q-17 67 -28 90q-43 93 -107 133q-20 14 -65 29q-15 5 -28.5 6.5t-34 2.5t-25.5 1q-16 1 -29.5 0.5t-20.5 -0.5t-19.5 -3t-15 -4t-19.5 -7t-21 -8q-30 -9 -62 -21 q-8 -3 -6 -22q2 -15 7.5 -41t8.5 -29q2 -1 11 2t21 8t16 6q87 34 161 23q75 -11 117 -104q20 -46 6 -66q-4 -4 -102 4q-25 1 -55 -7t-63 -26.5t-55 -58t-22 -94.5q0 -34 13 -88q29 -109 180 -109q41 0 76 6q10 1 59.5 21.5t52.5 21.5q4 1 7 -1.5t4 -12.5t-1 -29zM1128 313 q22 63 32.5 141t4.5 146q-8 152 -86 254q9 -13 29.5 -61.5t26.5 -69.5q16 -68 16 -168q3 -123 -57 -270q-35 -82 -109 -156q-48 -42 -98 -61q-14 -7 -43 -7q23 -9 49 -2q78 36 141.5 105.5t93.5 148.5zM762 483q7 -24 17.5 -69.5t13.5 -57.5q6 -26 -13 -44.5t-48.5 -24.5 t-59.5 -9t-45 1q-59 8 -87.5 61t-2.5 111q20 45 74 65.5t110 20.5q10 0 16.5 -1.5t11 -8.5t5.5 -10t4 -16.5t4 -17.5zM547 358q4 24 10 42.5t14 31t13 18.5t14 14t10 9q14 14 45.5 21t57.5 9t26 3q0 6 -8 18q-1 2 -6 2t-12 -1t-9 -1q-184 -29 -155 -166zM752 313 q10 6 15.5 12t6 15.5t0 14t-4.5 18.5t-5 18q-3 16 -10 44t-9 38q-3 10 -6 14t-6 2q-39 0 -59 -4q-43 -9 -72.5 -40.5t-38.5 -77.5q-7 -41 27.5 -59.5t77.5 -14.5q42 0 84 20z" />
<glyph unicode="A" horiz-adv-x="1198" d="M557 1171q3 3 6 3q10 0 27.5 -45t39 -123.5t38.5 -144.5t37.5 -149.5t23.5 -95.5v-4q0 -8 -6 -14t-17.5 -10t-24 -7.5t-30.5 -5t-32 -3t-32.5 -1.5h-29h-24.5h-15q-6 0 -30.5 -1t-37 0t-30 3.5t-25.5 11t-8 21.5q0 25 79 289t91 276zM461 612q3 5 16 44.5t19 62.5 q8 32 50 149.5t42 151.5q0 7 -6.5 27.5t-13 37.5t-5.5 17q-135 -455 -135 -488q0 -6 18 -6q13 0 15 4zM496 612l180 11q-50 266 -70 323q-40 -160 -110 -334zM1133 23q0 -11 -17 -20.5t-43.5 -15t-43 -8.5t-30.5 -4q-15 -1 -36.5 -5.5t-30.5 -4.5q-22 0 -60 30t-45 66 q-13 79 -39 144q-3 8 -92 8q-253 0 -264 -20q-3 -4 -34 -77t-64 -142.5t-45 -73.5q-31 -8 -88.5 -16.5t-85.5 -8.5q-17 0 -39.5 40t-22.5 54q0 15 11.5 70t11.5 57q10 53 20.5 106.5t23.5 112.5t23 104t26 112.5t25 104t28 112t26 103.5l28 112t27 106q101 392 117 404 q7 9 81.5 18.5t133.5 9.5q22 0 40 -5t36.5 -19.5t28 -23t32 -34t29.5 -33.5q13 -15 28 -72.5t30 -132.5t18 -87q13 -53 85 -342t122 -499t49 -230zM236 -74v6q0 22 -6.5 29.5t-30.5 7.5q-37 0 -73 -4t-36 -8q0 -9 12.5 -29.5t20.5 -25.5q4 -1 57.5 10.5t55.5 13.5zM367 137 q5 14 12 29t10.5 24t3.5 15q0 8 -17 41t-26 33q1 0 -24.5 -58.5t-52.5 -129t-27 -93.5q0 -5 8 -21t16 -28.5t9 -11.5q10 3 88 200zM776 248v2q0 8 -10 36.5t-12 30.5q-4 2 -68 2q-105 0 -204.5 -6.5t-100.5 -19.5q0 -23 31 -44.5t53 -21.5q60 0 183.5 8.5t127.5 12.5z M879 63q2 -2 10 -2q30 0 73.5 10.5t43.5 16.5q0 12 -16.5 79.5t-50 193.5t-40.5 151q3 -11 9.5 -34t9.5 -34q-59 204 -148 600q-90 409 -102 414h-15q-40 0 -120.5 -6t-86.5 -10q-5 -4 -15 -40t-21 -82.5t-15 -59.5q-27 -84 -67 -241t-58 -218q-26 -86 -102 -435t-76 -372 q0 -4 39 -4h46t25.5 6.5t14 9t10 23t13.5 32.5q4 12 27 92t42.5 124.5t36.5 46.5q246 24 381 24h29q32 -2 51.5 -70.5t35 -139t36.5 -75.5zM1065 14q0 9 -23 27t-36 18q-21 0 -51 -5.5t-50 -12t-20 -8.5q0 -10 15 -23t28 -16q9 0 72.5 8t64.5 12zM1104 39v4q0 20 -37 157.5 t-87 323.5t-71 289q-57 265 -88 373q-3 11 -20.5 83t-20.5 81q-5 12 -30 47t-31 35q-2 0 -2 -11q0 -16 4 -28q29 -107 106 -433t140.5 -596.5t66.5 -275.5q5 -9 32 -29t36 -20h2z" />
<glyph unicode="B" horiz-adv-x="1077" d="M995 530q28 -182 -22 -321q-35 -98 -178 -160q-56 -24 -118.5 -37t-145.5 -15t-122 -1t-137 6q-6 0 -23.5 1t-26 1.5t-22 3.5t-22.5 8q-46 23 -86 101q-29 55 -37 938q-7 365 0 372q30 40 158 60q145 30 264 0.5t205 -127.5q82 -97 113 -215t0 -246q-3 -18 -23 -51 q-1 -2 24 -21.5t57.5 -46.5t45.5 -43q45 -52 65 -95.5t31 -111.5zM784 1004q-2 28 -3 32q-1 1 -2 -3q-1 -3 -4 -18q-14 -75 -32 -102q-5 -8 -13.5 -22.5t-14.5 -25.5t-8 -13l43 -4q4 0 13 29t16 67.5t5 59.5zM123 137q64 -23 230 -32.5t325 10.5q69 11 126.5 60t89 108.5 t48.5 104.5t19 67q8 79 -22.5 161.5t-96.5 142.5t-148 66q-24 0 -28 21q0 8 12 27t28.5 41t18.5 26q20 34 22.5 87.5t-6 99.5t-22.5 90q-40 126 -157.5 199.5t-248.5 56.5q-59 -8 -129 -25t-92 -35q-8 -8 -11 -73t-0.5 -169.5t6 -204t8 -217.5t5.5 -169q1 -40 6 -135.5 t5 -145.5q0 -29 4.5 -95.5t7.5 -66.5zM858 119q99 71 122 231q7 53 3 58q-58 -166 -135.5 -239.5t-181.5 -86.5q-97 -13 -186.5 -15t-149.5 3t-105 12.5t-68.5 13t-25.5 4.5q-5 -3 8.5 -19t33 -31.5t30.5 -16.5q4 0 66 -3t127.5 -5t88.5 0q70 6 89 7.5t73.5 8.5t80 15.5 t62.5 24.5t68 38zM520 252q-28 -10 -78 -19.5t-103.5 -13.5t-72.5 12q-6 6 -9 57.5t-4 131.5t-1 88q0 12 -2.5 63t-3 79t3.5 48q3 4 9 7.5t10 5t13 4t11 2.5q97 22 166 22q69 4 121 -25t77 -76.5t30 -106.5t-11.5 -114t-57 -100.5t-98.5 -64.5zM465 268q49 8 92.5 40 t68.5 76t33 89.5t-14.5 86.5t-73.5 63q-23 10 -71.5 6.5t-84.5 -9.5t-57 -12q0 -56 7 -241q0 -97 6 -103q7 -7 94 4zM291 686q-4 -2 11.5 -14.5t34 -23.5t21.5 -9q74 26 168.5 18.5t116.5 -45.5q-31 56 -88.5 81.5t-120.5 19.5q-31 -2 -78 -10.5t-65 -16.5zM293 262 q4 -4 23 -4.5t24 6.5q2 3 0 38.5t-5.5 88t-4.5 78.5q0 137 -2 143q-1 7 -12 18.5t-22.5 18.5t-14.5 2q-4 -4 -4.5 -18t0.5 -37t1 -27q0 -45 6.5 -135t6.5 -96q0 -64 4 -76zM449 922q-106 -31 -170 -21q-23 4 -35.5 20.5t-14 37.5t-2 44.5t-0.5 43.5q-2 30 -2 182v16 q1 44 11 55.5t57 14.5q155 0 229 -66q51 -44 57.5 -114t-30 -130.5t-100.5 -82.5zM444 958q61 31 81.5 80.5t-7 94.5t-94.5 63q-81 21 -96 6q-6 -6 -6 -37q1 -43 2 -115.5t2 -115.5q7 1 36.5 4t47.5 7.5t34 12.5zM258 1284q-3 -2 6 -14t21 -23.5t18 -11.5q149 3 248 -90 q-1 41 -38 74t-72.5 46.5t-57.5 16.5q-103 15 -125 2zM256 969q2 -18 22 -32q11 -6 13 -1q3 106 0 213v57q0 9 -27 32q-14 12 -14 7q0 -72 4 -174q0 -69 2 -102z" />
<glyph unicode="C" horiz-adv-x="964" d="M274 1346q47 63 124.5 95.5t161.5 25.5t147 -56q81 -63 81 -88q0 -7 -52.5 -37.5t-57.5 -25.5q-7 8 -28.5 22.5t-33.5 20.5q-28 16 -57 17.5t-53.5 -8.5t-48 -28.5t-42.5 -40.5t-36 -48t-28.5 -47.5t-20.5 -41.5q-35 -86 -48.5 -194.5t-9 -207.5t22.5 -200 q29 -180 160 -268q37 -24 90 -29.5t104 12t76 53.5q9 12 21.5 38t21 45t10.5 20q6 5 47.5 -4.5t44.5 -16.5q1 -3 -6 -23t-23 -51t-40 -67t-61.5 -71.5t-82 -62.5t-106.5 -41.5t-131 -8.5q-39 3 -86 32.5t-94.5 82.5t-85.5 141.5t-52 195.5q-26 215 22 473.5t150 391.5z M504 1499h-8q-136 -10 -231 -112t-138 -244q-117 -399 -55 -715q11 -53 27.5 -104t49 -113.5t73.5 -108t105 -77t140 -31.5q68 0 126.5 10t99.5 24.5t76 38t56.5 44t40.5 49t28 46t20 41.5q3 6 4 9q14 28 12 37q-3 18 -15 45.5t-18 32.5q-7 6 -19 10.5t-19.5 6t-25.5 5 t-22 4.5q-50 10 -55 6q-7 -7 -27 -59q-14 -42 -47.5 -66.5t-77.5 -23.5q-62 2 -105.5 48t-64 112t-29.5 145.5t-7.5 143.5t8.5 112q0 4 6.5 51t8.5 58.5t8.5 52t13 59t17 49.5t23.5 54t29 43q24 29 57 34t60 -20l9.5 -9.5l9.5 -9.5t8.5 -8t9 -7t8.5 -4.5t10 -2.5 q12 -2 78 28t69 42q9 45 -4 78q-3 11 -12.5 30t-34.5 50t-59 56.5t-91.5 43.5t-125.5 16zM909 279q-66 -132 -161 -195q-52 -37 -135 -52l-5 -1q79 27 133 69q42 35 79 94t55.5 99.5t19.5 40.5q5 0 10.5 -24t3.5 -31zM805 1231q-6 -8 -55 -31.5t-58 -19.5q-4 4 -2 26.5 t4 26.5q2 6 53.5 33t57.5 24q4 -3 3 -29t-3 -30zM664 1192q-3 2 -13 11.5t-18 16.5t-23.5 15.5t-28.5 9.5t-32 -2q-36 -10 -59 -34t-41 -66q-44 -107 -74 -307q-6 -47 -9 -102.5t2 -136t21 -147.5t54.5 -126.5t95.5 -83.5q-86 11 -141 97.5t-70 182.5q-29 222 -21 336 q5 56 21.5 124t47 140t72 116t95.5 52t119 -51q7 -7 3 -41z" />
<glyph unicode="D" horiz-adv-x="839" d="M221 252q-10 27 -10 207q-1 65 -3 187t-3.5 232.5t-3 219t-0.5 175t4 70.5q20 26 157 -30q71 -33 119.5 -128t65.5 -213.5t15 -240.5t-26 -223t-63 -148q-69 -85 -199 -112q-46 -12 -53 4zM463 395q49 86 62.5 257.5t-11.5 325.5t-76 198q-26 22 -62.5 43t-62 32t-28.5 9 q-2 -1 1.5 -81t10 -215t8.5 -227q3 -97 4 -210.5t1 -174t1 -61.5q22 -8 74.5 26t77.5 78zM240 1325q-2 -2 18.5 -23t24.5 -22q101 -25 180 -106l8 -9q-31 64 -96 109q-29 18 -61.5 31t-52 17.5t-21.5 2.5zM219 1317q-4 0 8 -490q16 -545 19 -548q4 -3 19 -2.5t16 4.5 q1 9 -7 494.5t-10 490.5q-1 7 -21.5 30t-23.5 21zM754 600q0 -44 -3.5 -89t-13.5 -110t-34 -125.5t-60 -101.5q-27 -31 -51 -53t-66 -46.5t-91 -39.5t-123.5 -25t-166.5 -10q-9 0 -17.5 6t-18.5 20.5t-13 20.5t-14 25q-12 20 -12 47q-7 67 -7 180q0 38 -3 319.5t-5.5 546.5 t-1.5 287q0 48 17 51q92 2 200 -24q162 -38 271 -155.5t161 -299t52 -424.5zM92 403q0 -61 5.5 -185t8.5 -128q15 -7 138 0q49 4 106.5 22.5t119.5 51t117.5 88t86.5 123.5q42 94 45 238t-19.5 266.5t-56.5 203.5q-26 60 -41 89.5t-45.5 77t-72 84t-97.5 69.5 q-53 31 -126 50t-121.5 23t-53.5 -1q-3 -40 -2.5 -117t2.5 -237t2 -216q4 -336 4 -502zM635 211q34 42 55 92.5t25 80.5l4 30q-15 -42 -23 -60q-84 -179 -276 -252q-35 -12 -139 -34q-22 -4 -58.5 -7t-69.5 -4t-38 -2q-2 0 3 -8.5t12.5 -16.5t12.5 -7q35 0 130 10t126 18 q138 34 236 160z" />
<glyph unicode="E" horiz-adv-x="854" d="M803 37q1 -10 -9 -17t-29.5 -10.5t-39.5 -4.5t-47 -1q-25 0 -63 1t-44 1q-44 1 -92 -0.5t-63 -1.5q-9 0 -50 -2t-65 -2q-63 0 -80 12q-13 10 -23 20.5t-17 25.5t-11 23t-7 29.5t-4 26.5t-3 32t-2 30q-4 47 -16 183.5t-17 211.5q-8 125 -35 386.5t-35 399.5q-3 45 8 54 q6 4 15.5 6.5t18 3.5t27 2.5t32.5 3.5l454 51q13 0 17 -2q9 -7 17.5 -18t18.5 -26t11 -17q4 -12 1 -60.5t-7 -74.5q-2 -11 -152 -23.5t-150 -13.5q-2 -4 8 -79.5t21 -160t12 -102.5q0 -31 5 -31q6 -2 53 -2q14 -3 26 -19q27 -32 37 -61q2 -7 1.5 -61.5t-7.5 -61.5 q-4 -6 -50.5 -11t-49.5 -7q-3 -3 -3 -10.5t1.5 -20t1.5 -18.5q1 -52 11 -178.5t11 -178.5q1 -13 58.5 -21t134 -12t78.5 -4q23 -4 49 -18.5t31 -22.5q4 -4 5.5 -27.5t3 -61t3.5 -60.5zM461 860q-3 -3 -5 -43.5t1 -46.5q0 -3 17 -20t26 -23q0 9 1.5 29t2.5 36t0 19 q0 7 -18.5 30t-24.5 19zM449 745q-9 2 -42 -2t-34 -8t20 -21.5t27 -19.5q7 -3 36.5 -0.5t30.5 6.5q3 5 -12.5 25t-25.5 20zM399 485q-2 16 -2 101v82q-3 13 -35 45q-4 -19 -1.5 -119.5t7.5 -217.5l5 -116l35 -6q5 46 -9 231zM377 891q-1 58 -19.5 216.5t-23.5 164.5 q-6 7 -19 17t-24 17t-12 5q-4 -3 20 -209t29 -211q4 -4 49 0zM616 1475q-2 -2 -7.5 -48.5t-4.5 -50.5q3 -11 19 -28t20 -17q3 0 7.5 47t2.5 52q0 2 -8.5 13.5t-17.5 22t-11 9.5zM621 1315q3 3 -17 23.5t-29 25.5q-6 2 -139.5 -12t-138.5 -19q0 -2 30 -22t38 -23 q17 -3 134 9.5t122 17.5zM180 207q8 -98 13 -103q11 -4 73 0q85 0 266.5 -5t184.5 -5t4.5 26t-1.5 52.5t-11 26.5q-29 -2 -180.5 12t-170.5 20q-5 2 -7 9t-2 17t-1 13q-6 60 -6.5 199.5t-5.5 194.5q-11 90 14 96q6 1 30 -0.5t37.5 3t14.5 21.5q0 8 1.5 32t1.5 39t-3 15 q-9 1 -37.5 -4t-45.5 -6t-32 8q-15 19 -22 109q-1 29 -14 113.5t-23 156.5t-6 84q2 8 13 13.5t30 9.5t33 6t36.5 4t26.5 2q13 2 65.5 7t85.5 9t36 7q4 4 10 42t2 42q-4 3 -108 -8.5t-169 -20.5q-21 -3 -88 -8.5t-104 -11.5t-41 -15q-4 -11 11.5 -171t31.5 -280 q15 -97 26 -281.5t13 -207.5q3 -44 9 -134t9 -128zM754 31q2 1 -4 12t-14 21.5t-11 11.5q-11 2 -109.5 5.5t-134.5 2.5q-21 0 -104 1t-121 1q-59 0 -61 -2q-2 -3 25.5 -31.5t33.5 -29.5q12 -3 250.5 1t249.5 7zM782 43q3 2 0.5 59.5t-4.5 61.5q-4 7 -15 16.5t-15 5.5 q-3 -2 -3.5 -47.5t3.5 -54.5q1 -1 4 -7t7 -12l8 -12t8 -9t7 -1z" />
<glyph unicode="F" horiz-adv-x="796" d="M627 1501q24 -3 59.5 -47t40.5 -72q4 -9 2.5 -53t-0.5 -55q0 -36 -22 -47q-18 -6 -48 -6q-3 0 -97.5 1.5t-129.5 0.5q-3 0 -5.5 -0.5t-4 -2t-2.5 -3t-2 -4t-1.5 -4t-0.5 -5v-5.5v-6v-5q-8 -88 -4 -133l4 -56q18 -18 41 -36q30 -24 37 -38q3 -8 4 -18q2 -36 -2 -102 q0 -29 -17 -42t-37.5 -13.5t-39 -10.5t-21.5 -34q-4 -50 -4 -74q0 -21 2.5 -83t1.5 -102q0 -43 -5 -127.5t-5 -128.5q0 -7 1 -30t1 -37q0 -117 -66 -119q-20 0 -56 -2t-54 -2q-11 0 -20.5 4.5t-18 14.5t-13.5 17t-13 21.5t-11 18.5q-6 10 -10 24.5t-6 32t-2.5 29.5t-1.5 31 t-1 24q-2 33 -7 101t-7 96q-1 34 -4 140.5t-6 170.5q-11 207 -21 474.5t-6 275.5q6 9 240 16zM705 1253q3 5 6.5 64t-0.5 67q-18 38 -47 68q-10 10 -11 6q0 -1 -1 -32t-1.5 -54t0.5 -35q1 -3 8.5 -16t17.5 -29.5t18.5 -28.5t9.5 -10zM676 1247q1 11 -17 42.5t-24 35.5 t-153.5 -6.5t-149.5 -13.5q-2 -5 31 -33.5t40 -28.5q10 -2 144 -2q129 0 129 6zM637 1401q0 51 -4 61q-2 10 -29 6q-26 -1 -75.5 -3t-75.5 -3q-103 -2 -228.5 -9t-132.5 -15q-6 -8 -7 -21.5t0.5 -43.5t0.5 -54q-2 -99 6 -299q20 -728 39 -891q3 -28 16 -25q20 3 49 5t46 3.5 t20 4.5q8 12 8 59q4 148 4 189q0 50 -2 77q0 12 -1 37t-1 37q0 75 13 266q0 4 0.5 18.5t1.5 24t5 20.5t11 15q11 6 34 7.5t41.5 2t20.5 2.5q2 8 1.5 20t-2 32.5t-1.5 25.5q0 31 -4 33q-8 4 -53 0q-22 -3 -37 12q-4 6 -8 144t-2 172q1 7 8 12t21.5 7.5t24 3.5t29 2t21.5 1 q20 1 82.5 3t104 5t51.5 7q3 2 3.5 9.5t0 17.5t0.5 22zM475 813q4 1 5 47t-1 53q-2 8 -16.5 22t-28.5 23t-16 7q-3 -2 -4 -47.5t2 -51.5q2 -3 30 -28.5t29 -24.5zM467 780q4 6 -5.5 16t-31 26t-31.5 26q-5 3 -37 -0.5t-36 -9.5q-1 -2 12.5 -20t32.5 -35.5t30 -16.5 q62 7 66 14zM391 1147q1 19 1 47t-1 31q-2 6 -32.5 30.5t-34.5 20.5q-5 -2 -5 -172v-90q5 -11 34.5 -11.5t33.5 3.5t4 141zM309 727l-2 -10q-12 -86 -12 -223v-164q0 -32 -1 -95t-1 -94q0 -7 -1 -19t-1 -18.5t3 -16t9 -17.5q1 -1 8 -10t13.5 -16.5t9.5 -4.5q7 10 9 37 t1 59.5t0 38.5q3 47 6 140.5t6 140.5q2 26 0.5 92.5t-0.5 93.5q0 20 3 62.5t3 46.5q1 7 -14 29t-33 40q-3 -14 -4 -29t-1 -34t-1 -29zM305 29q2 2 -8 16t-24 27.5t-21 13.5q-9 2 -50 0.5t-44 -4.5q-7 -7 4 -25q19 -32 31 -32q5 1 33 1t52.5 0.5t26.5 2.5z" />
<glyph unicode="G" horiz-adv-x="1247" d="M623 1464l-41 -4q-149 -21 -277 -160q-215 -226 -215 -577q0 -240 92 -440q34 -69 111 -135.5t147 -81.5q104 -17 154 -17q22 0 39.5 2t37.5 10.5t27.5 12t34 18.5t33.5 19q278 151 278 608q0 25 -14 39q-8 7 -188 15t-185 3q-10 -17 -5.5 -82.5t16.5 -77.5 q6 -6 123 -1.5t124 -4.5q16 -22 13 -55q-2 -102 -27.5 -176t-93.5 -127q-75 -57 -158 -57q-86 0 -170 57t-138.5 141.5t-68.5 171.5q-10 65 -10 129q0 82 14.5 164t43.5 159.5t78.5 141t113.5 98.5q64 37 137 37q55 0 111 -24q3 -1 20.5 -10.5t41.5 -22.5t34 -18 q4 -2 35.5 24.5t60.5 55t25 32.5q-53 49 -94 64q-163 71 -260 69zM217 174q-69 75 -117.5 230t-48.5 327q0 93 15.5 181t52 176.5t92 162t141 135t193.5 99.5q50 16 96 16q95 0 244 -63q78 -38 127 -90q14 -18 29.5 -57.5t17.5 -57.5q1 -4 0 -8t-3.5 -8t-5 -6.5t-6.5 -7.5 t-6 -7q-47 -56 -100 -102q-16 -14 -32.5 -16t-24 0.5t-34 19t-36.5 22.5q-68 35 -143 35q-130 0 -185 -98q-90 -156 -90 -363q0 -179 72 -332q60 -120 180 -120q98 0 173 77t65 187q-9 -2 -148 -8q-11 0 -21.5 3t-17 6.5t-15 13.5t-11.5 14.5t-12 18.5t-11 17q-8 12 -14 39 q-10 58 -10 133q0 63 8 68q9 6 76 6q132 0 288 -12q59 -5 117 -51q31 -24 45 -64q10 -23 -15.5 -191.5t-56.5 -230.5q-35 -72 -120.5 -144.5t-167.5 -100.5q-69 -22 -123 -25q-24 0 -131 10q-191 15 -326 166zM1079 588q-30 -218 -112 -344q-35 -50 -141.5 -124.5 t-161.5 -88.5q-13 -3 3 -4q33 0 54 6q46 9 118.5 51t116.5 76q78 65 111 166q14 40 40 186t23 166q-4 22 -26 39q-9 6 -12 2q-1 -3 -2.5 -18t-3 -37.5t-3.5 -36.5q0 -5 -2 -19.5t-2 -19.5zM909 1112q7 -2 64.5 55t56.5 68q0 11 -8.5 38t-13.5 27q-7 0 -62 -56.5t-55 -67.5 q0 -13 7 -38.5t11 -25.5zM889 549q3 1 2.5 8.5t-3 16t-5.5 8.5q-19 3 -103 0t-88 -9q-7 -7 11 -22.5t32 -18.5q6 -2 154 17zM881 1114q-4 8 -12 31t-9 26q-4 12 -49 37.5t-72 34.5q-59 19 -90 19q-36 0 -82 -19q-66 -30 -129 -100t-92 -156q-30 -84 -40 -151t-9 -166 q5 -142 45 -219q35 -71 70 -114t59 -32q-104 163 -104 371q0 119 36 272q40 164 172 223q49 19 87 19q36 0 90 -14q18 -5 37.5 -13.5t29 -13.5t33.5 -18.5t29 -16.5z" />
<glyph unicode="H" horiz-adv-x="837" d="M698 1460q38 -43 60 -106q8 -18 8 -62q0 -6 -2.5 -198t-5 -436.5t-2.5 -378.5q1 -35 2 -106t2 -107q0 -12 -8.5 -19.5t-25 -10t-29 -3t-31 0.5t-21.5 1q-9 0 -26 0.5t-22.5 0.5t-17 1t-16 3.5t-12.5 6.5t-13 11t-12 16t-14 22q-8 13 -13 83t-5 126q0 49 -9 238 q0 10 -0.5 22t-0.5 17t-1 12t-1.5 8.5t-3.5 5.5t-5 4t-8 2t-11 2t-15 1.5t-19 3.5q-92 20 -113 4q-2 -2 -2 -217q-1 -68 0.5 -191t1.5 -162q3 -30 -8 -41q-9 -12 -37 -12q-3 0 -45 -1.5t-73 -1t-35 4.5q-30 20 -52 88q-4 12 -4 159t2 348t2 239q-1 70 -0.5 242.5t-1.5 230.5 q-2 36 -1 107t5 75q11 8 136 8q9 0 39 -29.5t51 -60.5q18 -28 18 -117q10 -200 12 -241q0 -11 0.5 -28t0.5 -28.5t1 -23t2.5 -19t4.5 -10.5q11 -8 57 -4q82 0 98 14q7 7 -0.5 254.5t-1.5 253.5q9 8 91.5 14.5t97.5 4.5q18 -4 32 -21zM227 1446q-2 -1 -2.5 -12t-0.5 -28v-33 t0.5 -31.5t0.5 -18.5q0 -12 0.5 -104t-0.5 -123q0 -144 8 -152q7 -5 30 -6t24 6q0 161 -4 223q-2 30 -4 80t-3 83.5t-4 39.5q-39 79 -45 76zM254 31q3 3 -24 32.5t-35 32.5q-17 7 -62 3t-45 -13q-2 -6 12 -31t21 -28q6 -3 68 -1.5t65 5.5zM274 66q6 -2 7 131.5t-1.5 273.5 t-5.5 158q-1 11 -20.5 30t-24.5 17q-4 -3 -4 -109q0 -47 -2 -142.5t-2 -141.5q-1 -26 -4 -69.5t-3.5 -59.5t1.5 -31q8 -13 30.5 -34t28.5 -23zM475 643q4 3 3.5 21.5t-3.5 21.5q-16 23 -115.5 20.5t-103.5 -14.5q-1 -3 14.5 -18.5t22.5 -18.5q16 -4 63 -4q20 0 48.5 -4 t31.5 -4q36 -3 39 0zM526 334q1 -17 3.5 -73t5 -93.5t6.5 -40.5q9 -6 67.5 -1.5t61.5 11.5q3 5 -13 324q-5 140 -2 399t6.5 395.5t-2.5 184.5q-11 10 -81.5 9.5t-73.5 -7.5q-2 -3 -2 -113q3 -65 6 -194.5t6 -196.5q1 -11 -77.5 -22t-147 -13t-82.5 4q-7 15 -8.5 70.5 t0 124.5t0.5 84v223q0 46 -11 57q-4 4 -52.5 4t-51.5 -6q-4 -4 -4.5 -63.5t0.5 -117.5t0 -91q-3 -81 3 -232.5t7 -201.5q1 -53 -0.5 -220.5t-2.5 -275.5t1 -141q1 -5 44 0t48 8q8 6 8 51q10 374 9 422q-2 38 -1 61t15.5 35.5t52.5 18.5q137 21 189 7q52 -13 53 -54 q3 -97 20 -336zM717 59q6 5 -6.5 24t-24.5 23q-10 4 -78.5 0.5t-68.5 -8.5t12.5 -19.5t19.5 -17.5q7 -2 74.5 -3.5t71.5 1.5zM748 1174q0 144 -7 165q-2 10 -10.5 28.5t-18 33.5t-14.5 12q-6 -4 -7.5 -35t0 -94.5t1.5 -77.5q0 -176 -6 -483q-8 -189 2 -344q6 -154 17 -248 q2 -14 25 -37q7 -8 7 -4q6 41 -2 143q-2 44 -3 119.5t-3 114.5q-2 71 2 198t4 175q-1 61 5.5 176.5t7.5 157.5z" />
<glyph unicode="I" horiz-adv-x="528" d="M418 1094q16 -318 20 -592q2 -110 2.5 -220.5t-0.5 -173t-2 -63.5q-6 -7 -69.5 -21t-96.5 -16q-12 -1 -46.5 39.5t-41.5 54.5q-8 11 -30.5 171.5t-30.5 240.5q-32 274 -45 467q-5 85 -25 459q-4 59 19 59q29 4 209 4q20 -2 51 -45q19 -27 53 -61q20 -23 23 -37 q2 -5 3 -52.5t2.5 -113t4.5 -100.5zM150 571q54 -427 65 -436q7 -4 58 1.5t57 10.5q2 2 -2 42t-9 95.5t-6 82.5q0 10 -17 391.5t-24 472.5q-1 17 -2.5 85t-5 108t-10.5 44q-28 11 -84.5 8t-79.5 -16q-11 -5 19 -495q13 -169 41 -394zM399 57q3 10 -21 37t-34 29 q-13 3 -67 -4.5t-58 -14.5q-2 -5 9 -24t31.5 -35.5t39.5 -11.5q4 1 30 6t47.5 9.5t22.5 8.5zM416 113q2 30 1 80t-4.5 163t-4.5 144q-2 61 -5.5 192.5t-5.5 192.5q-2 110 -8 281t-10 182q-2 8 -21 32.5t-39 44.5t-24 15q-2 -3 5.5 -131.5t18 -315t13.5 -291.5 q2 -91 14 -318.5t16 -236.5q3 -7 26.5 -22.5t27.5 -11.5z" />
<glyph unicode="J" horiz-adv-x="946" d="M858 1012q-1 -30 -2 -137t-2.5 -176t-10 -168t-22.5 -173q-44 -239 -196 -317q-73 -41 -176 -41q-70 0 -175 23q-45 11 -80.5 36.5t-59 62t-39 74.5t-27.5 85q-7 33 -13.5 95.5t-3.5 72.5q3 8 60 8q95 0 127 -8q12 -3 22.5 -14t23.5 -33t15 -25q13 -17 33.5 -67t44.5 -72 q25 -23 49 -24t42 13.5t34 40t26 50.5t17 49q19 65 27.5 133.5t12 175t5.5 137.5q15 187 16 219q2 18 1 83t-5 69q-22 14 -299 14h-21t-24 4q-11 8 -41.5 41t-36.5 41t-14.5 107t-5.5 102q9 6 94 6q109 0 288 -7t199 -11q23 -9 29 -17q13 -16 35.5 -55t32.5 -53 q8 -11 12 -40.5t5.5 -66.5t2.5 -45q2 -29 2 -82q0 -73 -2 -110zM272 1227q13 -2 165.5 -5t160.5 1q4 3 0.5 29t-8.5 28q-29 4 -141 4q-26 1 -94.5 5.5t-97.5 5.5t-46 -3q-1 -5 27 -34t34 -31zM289 346q-2 6 -10 14.5t-16 14t-9 4.5q-3 -3 11.5 -43.5t49 -86t76.5 -54.5 q-21 5 -38 21t-30 42t-19 43t-15 45zM371 35l24 -2q66 -1 120 24t90 66t63 102.5t42 123t24 138t11.5 138t2.5 131.5q0 28 -1.5 75.5t-1.5 65.5q-1 63 1 181t2 161q0 106 -5 180q0 15 -12 31q-4 6 -141 11t-260 5q-127 0 -133 -6q-8 -9 0.5 -74.5t11.5 -68.5q8 -4 82 -4 q105 -3 252 -13h25t22.5 0.5t16.5 -1.5t14 -7t9 -14.5t5 -24.5q4 -46 4 -96q0 -142 -16.5 -380.5t-30.5 -338.5q-6 -39 -21 -83t-38.5 -86.5t-59 -70.5t-76.5 -28q-31 0 -65 18q-67 36 -109 179q-3 10 -5 23.5t-4 19t-7 8.5q-7 5 -56.5 7.5t-62.5 -7.5q-6 -9 -6 -27 q0 -74 33 -155q38 -96 98 -145t158 -56zM795 377q13 73 20.5 169.5t9 164.5t2.5 171t2 134v149q0 140 -4 150l-4 7q-4 8 -6.5 13.5t-7 14.5t-8.5 15.5t-8 12.5t-7.5 9t-5.5 2q-2 -34 -1.5 -92t2 -213t1.5 -246q0 -176 -4 -217q-17 -201 -45.5 -311.5t-77.5 -170.5t-141 -108 q-7 -4 -2 -4q27 2 83 36q138 85 187 251q9 30 15 63z" />
<glyph unicode="K" horiz-adv-x="956" d="M901 41q4 -11 -2 -19.5t-21.5 -14.5t-26.5 -9t-31.5 -6.5t-22.5 -3.5q-10 -3 -23.5 -2.5t-25.5 10.5q-5 5 -24.5 23.5t-31.5 31.5t-20 27q-34 58 -92.5 152t-99.5 158l-42 65q-58 -45 -77 -114.5t-19 -164.5v-72q0 -112 -6 -129q-5 -14 -84 -14h-78q-9 0 -16.5 1.5 t-14.5 6t-11 7t-12 9.5t-11 9q-36 32 -43 67q-5 20 -5 279q0 94 0.5 213.5t1 205.5t0.5 97q0 262 -10 569q-5 58 25 60q7 1 29.5 4t46.5 5.5t43 2.5q50 0 63 -16q9 -11 34.5 -37.5t36.5 -42t13 -29.5q1 -3 4.5 -54t9.5 -115t11 -97q24 44 58.5 114t37.5 76q18 33 41.5 90.5 t36.5 83.5q11 23 16 25q13 9 90 12.5t86 -4.5q14 -14 45 -72t27 -75q-9 -39 -28.5 -85.5t-52 -111.5t-36.5 -72q-47 -97 -88 -206q-4 -12 -15 -35.5t-18.5 -42.5t-14 -42t-5.5 -43.5t10 -37.5q30 -49 78.5 -140.5t67.5 -125.5q18 -32 51 -96.5t43 -84.5q3 -5 24 -49t35 -67 q2 -4 20 -31.5t23 -42.5zM741 1438q-1 -1 -5 -11t-10 -23t-9 -20q-9 -19 -133 -309q-6 -15 -31.5 -78.5t-44.5 -112.5t-19 -53q0 -8 12.5 -33.5t24.5 -33.5q62 184 148 354q73 140 96 201q14 35 14 53q0 4 -9.5 20.5t-20 31.5t-13.5 14zM317 1370q-1 6 -13.5 24t-25.5 33 t-16 13q-2 -16 -1 -49t3 -100t2 -99q2 -49 2 -148q1 -10 -1 -68t3 -71q1 3 35.5 75t40.5 89q6 23 -2 55q-6 56 -12 105q-3 20 -6 54t-5.5 59t-3.5 28zM156 -12q5 -2 34.5 -2t57.5 1t28 3q1 1 -7.5 11.5t-21.5 24.5t-24 21q0 2 -48.5 1.5t-65.5 -3.5q-10 -2 26 -39zM319 303 q0 19 -2 21q-13 21 -25.5 31.5t-37.5 25.5q-2 1 -3 1t-2.5 -1t-2.5 -4.5t-2 -9.5l-2 -43v-150v-84q6 -28 14 -39q28 -32 49 -47q3 -2 5.5 2t2.5 10q2 23 2 72q0 24 -1 74t-1 74q0 30 6 67zM414 483q6 9 -13 33q-18 35 -43 55q-11 -18 -24 -41l-4 -8q-8 -14 -27 -49.5 t-31 -56.5q-3 -6 23.5 -31t32.5 -23q13 2 51 70q4 7 16.5 22.5t18.5 28.5zM719 70q8 -14 112 22q3 0 3 4q-6 12 -17 29t-16 29q-30 59 -90.5 178.5t-109 213t-95.5 177.5q-36 63 -40 83q-1 8 -1 15q0 21 18 74q12 33 68 168q45 110 154 350q22 54 14 62q-4 4 -66 4 q-52 0 -73 -9q-2 -2 -26.5 -54t-59 -125.5t-54.5 -112.5q-41 -71 -75 -140q-22 -52 -48 -100q-4 -7 -17 -38t-25 -56t-17 -25q-16 0 -16 148q1 22 -0.5 78.5t0.5 78.5v148q0 9 -0.5 65.5t-3 91t-9.5 35.5q-30 0 -78 -4t-55 -8q-4 -4 -4 -145v-172q0 -270 4 -340v-7 q4 -122 4 -231q0 -87 -1.5 -220.5t-2 -180t1.5 -78.5q6 -12 54 -8q14 1 25 0.5t19.5 1t13.5 6.5t7.5 15.5t1.5 29.5q-1 29 0 78.5t0 74.5q-3 70 6.5 104.5t48.5 100.5q3 5 9.5 19.5t13 27t15.5 28.5t18 26t18.5 17t19.5 4.5t19 -15.5q32 -45 123 -186t119 -189 q18 -34 90 -143zM795 14q74 15 86 21q-2 3 -17 22l-8 13q-36 -3 -119 -31q8 -13 29 -27q4 -2 29 2z" />
<glyph unicode="L" horiz-adv-x="1030" d="M942 293q9 -10 2.5 -133t-18.5 -140q-1 -3 -33 -5.5t-83.5 -5t-68.5 -3.5q-58 -4 -86 -4t-97.5 2.5t-108.5 1.5q-23 -2 -84 -2q-68 0 -99 2q-17 0 -49 27q-13 11 -37 35t-35 34q-4 4 -6.5 19.5t-4.5 37.5t-3 29q-7 68 -15 194.5t-12 170.5q-30 371 -43 645 q-11 302 -10 303q9 6 41 6q30 0 74 -1t55 -1h19q13 0 45 -24q12 -10 22 -22.5t24 -34.5t19 -29q12 -18 12 -52q2 -60 11 -178.5t12 -169.5q3 -54 11.5 -159t11.5 -156q33 -285 47 -287q58 -5 247 -10h82q44 0 60 -4q14 -2 98 -86zM281 1446q-7 -7 6 -141q4 -85 10 -138 q3 -33 7 -98.5t7 -97.5q2 -40 28 -270t38 -298q1 -5 4 -7.5t5.5 -3t8.5 -0.5l6 1q19 0 19 4q0 3 -2 12.5t-2 12.5q-28 166 -56 582q-2 31 -5 87t-6 102.5t-7 88.5q-1 6 -1.5 25.5t-2 37t-4.5 27.5q-2 7 -14 26.5t-24 35.5t-15 12zM145 440q19 -284 43 -284q27 0 107 -1 t130.5 -1.5t90.5 0.5h217q2 0 12.5 -0.5t18 -0.5t17.5 1t17.5 3t10.5 5q8 5 8 74q0 96 -10 106q-9 9 -173.5 13.5t-250.5 2.5q-26 0 -29 13q-2 3 -13.5 100t-26.5 233.5t-17 153.5q-4 39 -17 193.5t-24 287.5t-12 134q-146 10 -156 0q-2 -29 -1.5 -50t4.5 -109.5t5 -125.5 q3 -74 8 -159.5t12.5 -187.5t10.5 -159q0 -6 18 -242zM877 45q6 8 -16 39t-32 33q-7 1 -136.5 1t-286 0.5t-213.5 2.5q-6 1 -8.5 -2t-0.5 -8q5 -9 33 -41l10 -11q12 -12 22 -17.5t15.5 -6.5t23 -0.5t29.5 0.5q554 0 560 10zM907 74q6 3 8.5 85.5t-0.5 102.5q-2 11 -29.5 45 t-33.5 31t-6 -72q0 -103 8 -123q5 -9 15.5 -25.5t22 -31t15.5 -12.5z" />
<glyph unicode="M" horiz-adv-x="1034" d="M950 1395q1 -4 -2.5 -232.5t-5.5 -253.5q-2 -24 -12 -195t-10 -188q0 -65 -7 -268t-16 -221q-7 -14 -66 -14q-22 0 -54.5 2t-35.5 2q-11 1 -43 52t-34 64v107q0 45 -3 309.5t-4 292.5l-1 63q-2 63 1 64q-4 -5 -72 -143.5t-81 -151.5q-9 -9 -64 39q-20 17 -51 74 q-10 17 -29.5 51.5t-29.5 52.5q2 -50 -13.5 -435t-23.5 -425q-3 -10 -19 -18q-11 -5 -75 -18t-74 -3q-9 9 -24 27.5t-19 23.5q-29 33 -31 74v229q0 1100 6 1106q26 21 111.5 25.5t134.5 1.5q29 -8 75 -39t50 -33q15 -8 37.5 -63.5t28.5 -85.5q14 26 32.5 88t20.5 67 q3 9 9 29t9 29q1 4 3.5 7.5t4 5.5t5 3.5t5.5 2t7 1t7.5 0.5h9h9.5q249 -12 263 -14q11 -1 40 -40t31 -52zM354 1430q-3 -6 44.5 -128t52.5 -122q6 1 18 25.5t10 29.5q0 6 -8.5 27.5t-21 50t-15.5 35.5q-2 5 -5 13.5t-4.5 12t-4.5 9t-7 9.5t-10 9q-5 3 -13 9t-12.5 9.5t-11 8 t-8.5 4t-4 -1.5zM238 41q3 5 -22.5 29t-31.5 26q-9 2 -51 -2t-43 -8t23 -30t32 -29q7 -3 48.5 3t44.5 11zM303 918v34q0 4 -7 21.5t-15 33.5t-11 15q-7 -3 -31 -364t-24 -420q0 -6 -1 -34.5t-0.5 -50t3.5 -36.5q1 -10 25.5 -39t27.5 -27q4 2 12 214t14 430t7 223zM653 1040 q4 12 3.5 52t-3.5 53q-3 -13 -97 -207.5t-93 -200.5q1 -5 13 -13.5t16 -8.5q5 1 10.5 8.5t10.5 18t7 12.5q7 11 65 136t68 150zM694 297q0 -5 1.5 -46t4.5 -71.5t7 -34.5t48.5 -6.5t55.5 4.5q6 4 6 86q0 115 4 174q6 73 11 213t6 160q16 220 16 361q0 32 1 101t1 99 q0 109 -8 117q-6 5 -58.5 9.5t-103.5 4.5q-73 0 -86 -10q-1 -1 -12 -28.5t-26.5 -67.5t-30.5 -80t-26.5 -70t-12.5 -32q-19 -33 -35 -39q-15 -6 -31 11t-30 50t-24.5 63.5t-21.5 67.5t-14 45q-23 72 -37 80q-6 3 -89.5 -1.5t-100.5 -8.5q-9 -2 -15 -8q-2 -3 -3 -28.5 t-1.5 -61t-1.5 -47.5q-4 -61 -5.5 -265t-1.5 -390t-1 -197q0 -38 1 -114t1 -114q-2 -26 -1 -66.5t5 -41.5q6 -3 49.5 -1t48.5 5q1 2 3.5 58t7.5 165.5t10 200.5q9 186 20.5 351.5t16.5 170.5q12 11 27.5 -1t21.5 -26q17 -38 77 -142.5t74 -115.5q2 2 55 117.5t108.5 227 t66.5 108.5q8 -4 8 -21q3 -60 4.5 -163t3.5 -144q1 -28 3 -304.5t3 -303.5zM856 51q4 6 -10.5 32.5t-28.5 29.5q-6 2 -53 2.5t-49 -0.5q-3 -4 15 -29t24 -27q7 -4 52.5 -7t49.5 -1zM918 1124q0 29 6.5 132.5t5.5 115.5t-9 26.5t-16.5 22.5t-11.5 4t-8.5 -148.5t-10.5 -296 t-6 -159.5q0 -38 -6 -80q-2 -31 -7 -180t-7 -182v-82q-10 -162 -6 -170q2 -6 18 -27t19 -18q3 1 4.5 64t3 161.5t2.5 143.5q1 29 7.5 137t6.5 123q12 184 8 237q0 10 4 84t3 92z" />
<glyph unicode="N" horiz-adv-x="1015" d="M930 252q0 -153 -8 -166q-7 -9 -117.5 -14.5t-120.5 -1.5q-29 13 -57 61q-43 63 -269 594q-1 -62 4 -275t5 -294q0 -131 -9 -140q-14 -14 -165 -14q-56 0 -68 4q-15 6 -28.5 23.5t-18.5 36.5q-1 5 -7 163t-12.5 348t-7.5 263v139q0 511 12 518q11 8 72 8q47 0 105 -4 q18 -1 65 -36.5t57 -51.5q19 -29 132.5 -272.5t132.5 -274.5q1 35 2.5 115.5t2.5 147.5t3.5 137.5t5.5 113t8 47.5q9 9 84 9q62 0 82 -13q16 -7 60 -56t47 -89q1 -7 8 -592q2 -82 2 -248q0 -123 -2 -186zM285 1442q-1 -1 79 -167t165.5 -344t93.5 -196q0 6 2 22.5t2 29.5 t-4 20q-5 12 -25.5 50.5t-28.5 55.5q-13 28 -43.5 98t-50.5 109q-9 19 -41 89t-59 129t-29 61q-15 12 -37.5 29t-23.5 14zM319 39q0 3 -9.5 13.5t-16.5 13.5q-7 2 -91 -3t-85 -8q-2 -3 3 -9.5t11 -11.5l6 -5q15 -5 97 -2.5t85 12.5zM334 66q2 2 2 86q0 141 -4.5 381.5 t-7.5 257.5q-3 26 -29 65q-10 20 -10 -2q4 -51 4 -123q10 -606 12 -637q1 -7 15.5 -19t17.5 -9zM487 528q28 -69 92.5 -210.5t69.5 -143.5q8 -5 78 0.5t74 11.5q4 5 -2 97q-2 118 -2.5 357t-0.5 429.5t-1 214.5q0 7 1 36t1 51t-2 26q-5 8 -56.5 7.5t-56.5 -7.5 q-7 -5 -11.5 -185.5t-4.5 -296.5q0 -23 -1 -63.5t-3 -88.5t-6 -82.5t-9 -33.5q-7 1 -44.5 71.5t-87.5 172.5t-81.5 167.5t-50.5 106.5q-36 81 -86 183.5t-61 109.5q-9 4 -69.5 9t-72.5 -3q-4 -4 -4.5 -20.5t0.5 -57t0 -73.5q0 -10 -1 -46.5t-1 -62.5q0 -243 10.5 -679.5 t16.5 -444.5q3 -3 74.5 -1t74.5 5q2 2 2 100q0 90 -2 255t-4 297.5t-2 144.5q0 61 14 63q16 0 33 -29q131 -267 182 -387zM870 104q3 6 -18.5 27.5t-34.5 24.5q-10 2 -80 -4t-71 -11q-2 -5 8.5 -23t17.5 -22q10 -5 91 -2t87 10zM897 133q1 1 0 62.5t-2 149t0 134.5v332 q0 473 -4 479q-6 13 -34.5 48.5t-31.5 33.5v-82q0 -218 4 -655.5t7 -448.5q2 -7 16 -21.5t28 -25t17 -6.5z" />
<glyph unicode="O" d="M991 739q2 -86 3 -167t-16.5 -172.5t-53.5 -159.5q-47 -87 -150 -164q-67 -45 -120.5 -60t-137.5 -12q-82 1 -152 30t-118.5 77t-87 113t-59 137.5t-34.5 150.5t-12.5 152.5t6.5 142.5q8 68 17.5 127.5t28 132.5t43 132t62 117t83.5 97.5t110 64.5t140 25q82 0 149 -27 t112 -70.5t79 -109.5t53.5 -129.5t31.5 -146t16.5 -144t6.5 -137.5zM514 43q68 -4 128.5 26.5t101.5 81.5t68.5 106t39.5 108q50 232 41 432q-1 20 -2 78t-3.5 102t-8 107.5t-18 113t-31.5 99.5t-50.5 86t-72.5 55q-55 26 -114.5 36.5t-119.5 -1.5q-355 -92 -383 -728 q-4 -79 1.5 -154.5t22 -154.5t49 -146t78.5 -121t116 -87t157 -39zM954 500q5 39 7.5 78.5t1 87.5t-2.5 75.5t-5 87t-5 78.5q-5 121 -21.5 198t-66.5 171q38 -64 56 -334t-3 -444q-15 -136 -90 -293q-36 -67 -92 -107q-62 -40 -76 -47q-4 -3 -16.5 -7.5t-28 -9.5t-20.5 -7 q66 11 117.5 43t111.5 88q67 65 92.5 142.5t40.5 199.5zM530 1348q73 4 128.5 -37t86.5 -105t49 -146t23 -151.5t2 -130.5q-1 -16 -2 -50q-1 -65 -3 -101.5t-9 -102.5t-18.5 -106t-34 -90.5t-53 -79t-78 -48.5t-107.5 -20q-82 0 -159 40t-107 118q-73 179 -70 330 q1 56 4.5 109.5t14 122t26 127t43 118t63 101.5t87 70t114.5 32zM225 541q10 -62 20 -106t38 -99.5t67 -75.5q-39 50 -63.5 130.5t-32.5 167t-5.5 170t13.5 153.5q10 63 19.5 107t29 100.5t43.5 95t63.5 75.5t90.5 58q-23 0 -51 -14q-64 -29 -112.5 -89t-76 -136.5t-42 -152 t-17.5 -151.5q-5 -94 16 -233zM551 211q42 8 76.5 26t58.5 47.5t41.5 59t28 74t17 77.5t8.5 84.5t3 81t0.5 80.5t-0.5 70q0 30 -1.5 66.5t-7 84t-15.5 92t-25 90t-36 77.5t-49.5 55.5t-65 23.5t-82.5 -18q-123 -57 -168 -231q-20 -78 -30.5 -126.5t-18.5 -119t-4 -129.5 q4 -56 7.5 -92.5t14 -104.5t29 -111.5t46.5 -88t72.5 -62t100.5 -6.5z" />
<glyph unicode="P" horiz-adv-x="825" d="M334 1491q113 -8 202 -51.5t141.5 -107t81 -142t28 -156t-24.5 -149t-70 -121.5q-22 -26 -74 -57q-40 -25 -81.5 -44.5t-73 -29.5t-56.5 -17t-39 -10l-14 -2q-4 -6 -7.5 -158.5t-12 -302.5t-25.5 -157q-25 -10 -83.5 -19.5t-73.5 0.5q-7 9 -29 36.5t-35 49.5 q-7 14 -10.5 88t-1.5 135q0 68 -12.5 577t-12.5 527q0 4 -0.5 18t-0.5 27t0.5 27.5t2.5 24.5t6 12q8 5 20 8t32 4t35.5 1t44.5 -1.5t44.5 -2.5t50.5 -3.5t48 -3.5zM119 76q8 -7 55 -6.5t53 6.5q1 1 13 299t20 309q3 5 8.5 9t15 7t17 5t22 5t23.5 5q44 10 80 20.5t82.5 29.5 t80.5 41t64 55.5t45 72.5q49 138 21 251.5t-123 188.5q-62 50 -186.5 74.5t-221 23t-102.5 -15.5q-2 -11 -1.5 -26t2 -46.5t1.5 -46.5q5 -83 10 -402t10 -586t11 -273zM274 0q0 7 -38 45q-7 4 -55 3t-52 -3q-4 -4 17 -30.5t26 -28.5q9 -2 55 3.5t47 10.5zM328 596 q-3 10 -20 27.5t-21 13.5q-3 -3 -18.5 -287t-12.5 -293q1 -7 18 -22t23 -15q7 0 21 282.5t10 293.5zM346 637q206 36 320 156q96 101 90 229q-8 -49 -26 -91.5t-39 -72t-53 -55t-55 -40.5t-59.5 -29t-53 -19t-47.5 -13t-32 -8q-4 -1 -36 -10t-44 -12q-3 -1 3 -10t16 -17.5 t16 -7.5zM281 866q-8 8 -19 204t-4 208q8 8 29 8q66 0 136.5 -40t102.5 -99q40 -75 6.5 -158t-116.5 -108q-34 -10 -73.5 -16.5t-61.5 1.5zM436 922q44 28 58.5 72.5t-6 85.5t-70.5 59q-37 12 -45 2q-3 -2 1.5 -118t10.5 -120q11 -6 51 19zM498 1126q-28 57 -81 89.5 t-110 35.5q4 -8 29 -36t33 -35q2 -3 12 -4.5t23 -3.5t18 -3q23 -5 37.5 -12.5t38.5 -30.5zM342 1139q0 13 -12.5 36t-25.5 39t-15 13q-5 -11 6 -172q1 -15 4.5 -55.5t6 -68t3.5 -30.5q3 -3 20 1t19 7q2 17 1 50t-4 94.5t-3 85.5z" />
<glyph unicode="Q" horiz-adv-x="1089" d="M494 1317q38 4 70.5 -4t56.5 -22.5t44 -41.5t33 -51.5t23.5 -62.5t16.5 -65.5t11 -70.5t7 -66.5t4 -62.5q1 -19 2 -28q4 -86 -4 -178q-3 -59 -18 -152.5t-31 -142.5q-42 -134 -181 -154q-77 -10 -145 20.5t-104 88.5q-47 73 -61.5 169t-14.5 218q-1 144 28 263t74 189.5 t94 109.5t95 44zM242 752q0 -13 -1 -42.5t-1 -45.5q0 -378 202 -418q-51 19 -85.5 96.5t-47 166t-12.5 181.5q0 60 6 103q7 57 13.5 97.5t21.5 107.5t37.5 111t54 86t79.5 57t107 1q-36 41 -88 41q-45 0 -84 -26l-16 -13q-50 -36 -87 -96.5t-56.5 -133.5t-29.5 -138.5 t-13 -134.5zM690 446q21 82 27 171t6 227q0 19 -1 38.5t-3.5 49t-6.5 56t-10 58.5t-14 57t-19.5 52t-26 42.5t-33.5 29t-41.5 12t-49.5 -9.5q-34 -14 -59.5 -41t-42 -67t-25 -67.5t-18.5 -72.5q-36 -148 -39 -283q0 -22 0.5 -48t3.5 -62t8 -69.5t13.5 -72t20.5 -68.5 t29 -58.5t39 -43t49.5 -22t61.5 5.5q30 9 53 29t38 50t23 52.5t17 54.5zM1098 23q10 -16 0 -72q-11 -74 -41 -80q-45 -10 -99 -6q-47 3 -81 24q-50 29 -92 61.5t-63 51.5t-26 21q-1 2 -10 1t-12.5 -1.5t-15 -4t-17.5 -4.5q-62 -8 -86 -8q-29 0 -63 6q-327 59 -416 441 q-27 128 -27 262q0 87 11 172t33 170t59.5 159t87 133.5t119 99t151.5 50.5q68 9 133 -15.5t115.5 -73.5t89.5 -107t67 -123q86 -200 86 -478q0 -51 -4 -157q-4 -101 -53 -293q-3 -13 -8.5 -26.5t-6.5 -19t2.5 -16t16.5 -26.5q20 -28 56.5 -61t64.5 -55.5t29 -24.5zM965 485 q10 85 10 209q0 258 -45 383q9 -78 16.5 -211t3.5 -188q-6 -82 -43 -229q-12 -47 -46 -128t-40 -98q33 -8 64 -8q15 0 35 61q35 119 45 209zM616 35q62 12 62 18q2 2 -5 9t-11 8l-69 -20q-69 -19 -91 -19q40 -11 114 4zM932 -98q6 0 18 45t6 51q-9 11 -47 44.5t-57 57.5 q-45 61 -59 99q-11 28 22 104q30 55 48.5 112.5t39.5 155.5q19 93 19 217q0 12 -1 33t-1 29q-3 175 -37 307q-33 123 -142.5 217.5t-218.5 91.5q-62 -3 -130 -42.5t-109 -84.5q-149 -172 -183 -469q-10 -95 -10 -176q0 -99 14 -176q62 -355 261 -438q49 -19 122 -19 q79 0 125 21q48 21 66 14q9 -2 43 -41q33 -38 104 -95.5t107 -57.5zM977 25q11 -4 46.5 -4.5t37.5 6.5q0 2 -17 12.5t-46 33.5t-52 52q-9 11 -26.5 36t-20.5 32q-9 1 -34 -1.5t-34 -1.5q9 -12 26 -34t26 -33l6 -8q11 -19 44.5 -54t43.5 -36zM1057 -102q5 3 15.5 49.5 t4.5 50.5q-6 5 -40.5 1t-41.5 -11q-9 -7 -20 -46.5t-6 -45.5q5 -7 43 -5t45 7z" />
<glyph unicode="R" horiz-adv-x="964" d="M913 106q2 -17 -24 -43q-26 -28 -65 -52t-62 -9q-9 6 -33 18.5t-42.5 25t-27.5 26.5q-50 73 -127 243q-11 23 -34 78t-39 84q-5 9 -10.5 21.5t-7.5 16t-7.5 7.5t-12.5 3.5t-20 -3.5q-7 -1 -26.5 -2t-31 -4t-17.5 -10q-4 -5 -4 -35q0 -18 1.5 -84t0.5 -115 q-1 -26 -3.5 -85t-3.5 -85v-21t-0.5 -18.5t-1.5 -14t-4 -12t-8.5 -8t-14 -7t-20.5 -3.5l-42 -7t-49 -6.5t-40 3.5q-12 4 -39.5 47.5t-29.5 57.5q-6 40 -9.5 95t-4 82.5t0 104t0.5 84.5q0 23 -2 153.5t-2.5 255t1 262.5t10 228.5t22.5 100.5q25 20 125.5 20.5t169.5 -10.5 q91 -12 171 -73.5t130 -151.5t74.5 -190.5t10 -200.5t-68.5 -171q-9 -10 -21.5 -23t-18.5 -20.5t-7 -11.5q-2 -11 178 -356q4 -9 27 -49t39 -75t20 -61zM612 666q6 1 37 40t60.5 91t27.5 80q-19 -48 -52 -89t-55.5 -59.5t-58.5 -42.5q-8 -4 -8 -6q0 -4 19.5 -9t29.5 -5z M274 49q2 4 -15.5 21.5t-29.5 23.5q-11 6 -62.5 4t-57.5 -8q-4 -4 15 -28t28 -29q8 -4 63.5 1.5t58.5 14.5zM291 82q4 4 4 233q0 7 2.5 95.5t-0.5 89.5q-1 8 -11 22t-20 24t-12 9q-3 -6 -2.5 -15.5t2.5 -31.5t2 -31q3 0 2 -105l-2 -104q0 -13 -2 -48.5t-3.5 -64.5t-0.5 -32 q6 -9 15.5 -20t17 -17t8.5 -4zM414 563q3 9 -9 33t-22 27q-9 3 -65.5 -12.5t-57.5 -22.5q0 -5 22.5 -27.5t30.5 -23.5q10 0 54 9t47 17zM514 440q11 -22 59 -125.5t80 -166.5t41 -66q9 -2 54.5 18.5t46.5 30.5q0 2 -63.5 123.5t-133.5 256.5t-82 165q-2 6 10 16.5t33 26 t45 34t49 46.5t41 59q17 33 23.5 89t-4.5 126.5t-40 139t-91 131t-148 98.5q-60 26 -144.5 32.5t-150.5 -10.5q-14 0 -26 -12q-23 -22 -28.5 -534t3.5 -695q0 -88 12 -94q8 -5 61.5 -5.5t61.5 5.5q2 1 3 58.5t1 133t-2 121.5q-7 160 -4 162q13 14 83.5 33t86.5 14 q18 -4 29 -26q15 -31 46.5 -93t47.5 -92zM784 20q9 2 48.5 30t39.5 34q0 5 -24.5 16.5t-34.5 10.5q-5 -1 -29.5 -13.5t-47 -26t-21.5 -16.5q2 -8 30.5 -23t38.5 -12zM885 115q5 3 -26.5 62t-78.5 144.5t-67 129.5q-8 16 -26.5 51t-34 67t-27.5 62q-1 4 -30.5 15t-31.5 9 q0 -2 29 -61t64.5 -129.5t50.5 -95.5q31 -54 108 -230q5 -5 36 -16t34 -8zM276 1290q75 3 137.5 -59.5t75.5 -140.5q17 -94 -29.5 -189.5t-113.5 -124.5q-101 -34 -110 -20q-4 8 -9 100t-9 218.5t-5 144.5q-3 51 10 61q8 10 53 10zM258 778q31 0 31 13q-1 17 -1 114.5 t-1 183t-4 91.5q-6 12 -15.5 26.5t-17.5 24.5t-10 8q-4 -2 2.5 -231t15.5 -230zM252 1264q-2 -3 7 -13.5l24 -28t22 -30.5q10 3 19 4t16 2t15 -0.5t12.5 -1.5t12.5 -4t11.5 -5.5t12.5 -7.5l12 -8t14 -10t14 -10q-27 47 -53 70q-25 22 -60.5 34t-54.5 10.5t-24 -1.5z M465 1018q7 86 -39 119q-22 18 -53.5 30.5t-50.5 -0.5q-10 -7 -10 -190t5 -184q10 -5 42.5 23.5t66.5 85t39 116.5z" />
<glyph unicode="S" horiz-adv-x="964" d="M666 958q137 -96 210 -283t42 -356q-12 -65 -43 -116.5t-68 -84t-87 -56t-89.5 -34t-87 -17t-67 -7t-42.5 -0.5q-71 0 -129 18t-97 48.5t-68.5 70.5t-45.5 84t-26.5 88.5t-13 85t-2 73t2.5 51.5t4 22q3 7 87.5 15.5t93.5 2.5q60 -39 75 -69q1 -1 9.5 -51t22 -102.5 t50 -97.5t88.5 -44q43 1 87 33t63 69q25 49 24.5 121.5t-14.5 131.5t-37 120q-23 60 -82 112t-124 90t-127 78.5t-100.5 97.5t-35.5 128q4 82 28 144t60 96t81 55t93 24t93.5 1t84.5 -12t64 -18t35 -14q32 -16 37 -29q35 -78 28 -108q-3 -11 -50.5 -33.5t-78.5 -34.5 q-6 -2 -31.5 3.5t-58 4.5t-59.5 -16q-78 -43 -55 -125q4 -16 14.5 -27t17.5 -15t30 -12t30 -11q71 -30 164 -95zM588 1280q2 2 -1.5 24t-6.5 23q-72 40 -147 4.5t-89.5 -97.5t37.5 -114q-20 85 47 135q33 24 72.5 29t63.5 0zM696 1397q-6 2 -45 -27t-39 -35q-2 -6 0 -31 t6 -26q6 -3 53 23.5t48 33.5q2 7 -6 34.5t-17 27.5zM289 492q-3 10 -21.5 22.5t-23.5 9.5q-2 -3 5.5 -35t14.5 -55q25 -91 86 -176q-18 33 -30.5 75.5t-17.5 73.5t-8.5 57t-4.5 28zM272 72q84 -33 196 -19t181 62q85 62 133 150t49 186q1 99 -18 185.5t-61.5 166t-117 142 t-177.5 99.5q-88 32 -125 86t-15 113q17 48 49 79t69.5 42.5t75.5 10.5t71 -15q6 -3 50 27.5t44 39.5q0 3 -24.5 12t-65.5 17.5t-89 12.5t-102 -4.5t-96 -30.5q-64 -35 -98.5 -114t-25.5 -162.5t63 -129.5q38 -34 87 -68t109 -72.5t92 -60.5q52 -35 94.5 -109.5t63 -156.5 t14 -165t-46.5 -132q-29 -37 -68.5 -61.5t-87 -31.5t-94.5 17q-64 33 -106.5 92t-55.5 110t-21 93.5t-11 44.5q-2 2 -56 -2.5t-57 -7.5t-4.5 -40t5 -94.5t23 -117t56.5 -114.5t98 -80zM586 57q38 5 73.5 16.5t77.5 37t73.5 60.5t53.5 92.5t25 129.5q4 78 -13.5 178.5 t-60.5 163.5q77 -229 31 -403q-14 -52 -40.5 -97.5t-55.5 -75.5t-61.5 -52.5t-57.5 -34t-45 -15.5z" />
<glyph unicode="T" horiz-adv-x="1202" d="M1137 1425q7 -8 -0.5 -88.5t-14.5 -87.5q-4 -5 -186 -23t-184 -20q-5 -5 -31 -671q-6 -111 -23.5 -310.5t-25.5 -204.5q-11 -9 -58 -14.5t-65 -5.5q-4 2 -31.5 36t-36.5 52q-2 2 -2 111q0 118 3 386t5 462t0 196q-8 7 -173.5 19t-170.5 14q-10 4 -46.5 37.5t-41.5 42.5 q-7 13 -1 74.5t18 62.5q44 8 622 8q306 0 324 -2q8 0 18 -4t20.5 -10t20.5 -12.5t20.5 -15t17 -13.5t14.5 -12zM492 1278q0 31 -3 31q-12 0 -109 10.5t-185.5 18.5t-90.5 5q-2 -2 9 -11.5t26 -19t23 -12.5q5 -2 29.5 -3t52.5 -1.5t37 -1.5q20 -1 109 -8.5t102 -7.5zM508 324 q0 -5 -1 -52t-1 -77q0 -77 6 -80q15 -6 39.5 -2t26.5 10q6 6 6 160q4 95 17.5 322.5t16.5 359.5q1 54 6.5 149t6.5 109q5 83 14 96q7 11 334 24q34 0 45 11q3 5 5.5 51t-1.5 57q-5 8 -469 8q-461 0 -469 -4q-6 -5 -6.5 -46t6.5 -46t264 -20q141 -9 158 -21q14 -9 14 -35 q-1 -42 -3.5 -98t-2.5 -80q0 -22 -1.5 -87.5t-0.5 -106.5q2 -35 2 -105q0 -94 -2 -151q-2 -135 -10 -346zM557 27q9 -2 51 2t39 12q-3 12 -24 28.5t-33 22.5q-5 3 -40 1t-38 -5q-3 -5 17.5 -32.5t27.5 -28.5zM715 1081q0 7 2.5 43.5t2.5 58t-3 36.5q-39 59 -55 59 q-1 0 -2.5 -87.5t-6.5 -250.5t-14 -303q-12 -202 -21 -293q-5 -40 -11.5 -129t-2.5 -102q2 -5 26.5 -25t28.5 -20q4 1 12.5 122t16 278.5t8.5 250.5q0 59 9.5 179t9.5 183zM1065 1272q4 2 -5 12.5t-20 21t-14 11.5q-6 2 -89.5 -0.5t-164.5 -7.5t-80 -9q2 -5 29 -30.5 t35 -28.5q17 -6 155.5 8t153.5 23zM1102 1284q6 3 10 51t0 70q-2 11 -24 29.5t-29 15.5q-3 0 -5.5 -45.5t-2.5 -58.5q2 -14 23.5 -40t27.5 -22z" />
<glyph unicode="U" horiz-adv-x="1122" d="M1055 1343q2 -11 -2 -63q-3 -35 -12.5 -97.5t-12.5 -97.5q-20 -272 -121 -704q-13 -56 -35.5 -108t-60 -103t-84.5 -88.5t-112.5 -59t-141.5 -18.5q-91 3 -168 59q-53 37 -102 117q-33 55 -58 132.5t-33.5 122t-25.5 143.5q-35 189 -35 401q0 78 2 117q4 202 10 305 q0 84 15 94q15 8 92.5 4.5t89.5 -10.5q11 -4 47.5 -45t40.5 -64q1 -5 -10 -282q-2 -29 -2 -86q0 -144 16 -291q1 -6 5 -56t6.5 -70.5t10 -66t16.5 -71t25 -56t36 -49.5q27 -24 53 -24q35 0 68.5 31t48.5 69q74 200 90 379q5 61 16 184t16 185q23 281 50 290q30 10 103.5 -4 t94.5 -22q11 -7 36.5 -46.5t27.5 -50.5zM276 1436q-3 -5 -2.5 -18.5t2 -41t0.5 -39.5l-2 -16q-8 -84 -8 -188q0 -58 3.5 -165t4.5 -145q4 -182 31 -288q1 -4 6 -23.5t8.5 -32.5t11 -34.5t15 -37.5t19.5 -33.5t26 -29.5q24 -20 41.5 -28.5t24 -7.5t6.5 5q0 1 -5 4t-15 11 t-22 21t-26.5 38t-27.5 57q-19 53 -31 166q-15 147 -21 308q-4 90 -4 272q1 22 5 67.5t7 79.5t1 39q-3 16 -23 39t-25 21zM266 160q85 -109 197 -109q89 0 169.5 66.5t121.5 165.5q48 118 77 248.5t59 341t38 257.5q4 27 13.5 153t6.5 130q-3 11 -62 19t-65 4 q-14 -11 -24 -101q-4 -35 -12.5 -106t-14 -127t-8.5 -107q-1 -12 -4 -65t-4 -71t-5 -63t-7.5 -71.5t-10 -62.5t-14.5 -68q-10 -40 -16.5 -64t-22 -67t-31 -69.5t-41 -52.5t-55.5 -36q-41 -14 -78 -14q-124 0 -178 151q-19 55 -30 122t-13.5 111.5t-5.5 125.5 q-10 283 -10 334v63q1 23 6.5 85.5t5.5 96.5q0 40 -6 74q-3 13 -58 18.5t-80 -2.5q-14 -5 -14 -135v-86q-6 -77 -6 -153q0 -73 8 -213q8 -155 43 -373q21 -118 48.5 -199t82.5 -151zM999 1128q1 13 9 65t13.5 94t2.5 48q-3 10 -9.5 26t-13.5 28.5t-10 11.5 q-3 0 -19.5 -129.5t-41.5 -317.5t-43 -290q-4 -20 -16.5 -92.5t-19.5 -108.5t-23.5 -90.5t-36.5 -93.5q-8 -15 -22 -44t-26 -50t-30 -40q-10 -11 -24 -22.5t-24.5 -19t-32.5 -20t-32 -18t-40.5 -21t-41.5 -21.5q90 26 123 44q68 37 147 140q44 57 74.5 139.5t42 147t27 171 t24.5 154.5q31 173 43 309z" />
<glyph unicode="V" horiz-adv-x="923" d="M825 1438q4 -9 11 -21t11 -20t7.5 -19t3 -23.5t-5.5 -27.5q-9 -28 -20 -78t-17 -71q-4 -14 -14 -54t-23 -77q-10 -25 -33 -127q-39 -182 -65 -314q-115 -586 -135 -594q-3 -2 -37 -5.5t-75 -5t-71 4.5q-13 4 -24 37q-5 13 -18.5 42t-20.5 49.5t-12 45.5q-18 90 -119 559 q-38 185 -76 404q-14 87 -29 210.5t-12 129.5q4 7 46 12.5t89 5.5q84 0 105 -18q2 -2 16.5 -12.5t21 -15.5t19 -15.5t19 -18.5t12 -18.5t6.5 -20.5q2 -14 6.5 -62.5t9.5 -72.5q12 -56 30.5 -155t30.5 -170l13 -72q50 157 82 401q9 67 26.5 156.5t30.5 89.5q18 2 60 2 q121 0 151 -61zM334 1399q-47 47 -47 37q27 -156 37 -234q2 -17 5 -50t5 -50q2 -19 67 -418q17 -156 29 -168l33 254q-10 31 -14 49q-9 41 -26 123t-26 123q-9 38 -15.5 81.5t-13.5 96t-12 82.5q-1 5 -2.5 17.5t-3 21t-6 19t-10.5 16.5zM319 180q9 -42 23 -47q7 -4 56 -4.5 t59 4.5q9 4 14 25q14 36 36.5 138.5t40 199t39 215t25.5 141.5q35 206 74 350q7 28 28.5 95t32.5 110t7 53q-6 10 -56 13t-59 -5q-12 -10 -66 -299.5t-79 -461.5q-31 -242 -64 -242q-8 0 -15.5 13.5t-15 41t-14 54t-13 66.5t-10 62.5t-9 58t-5.5 38.5q-16 107 -44.5 326 t-45.5 325q-3 18 -65 18q-36 0 -69.5 -6.5t-33.5 -13.5q0 -63 98.5 -593.5t130.5 -674.5zM504 45q3 5 -16 30t-31 29q-7 2 -52 0.5t-49 -8.5q-3 -4 8 -26.5t15 -26.5q14 -11 68.5 -8t56.5 10zM696 850q10 47 45 176t63.5 233t26.5 109q-4 14 -14 33t-19.5 31t-11.5 12 q-2 -1 -6 -18t-7 -34l-3 -16q-9 -35 -28 -99.5t-34 -119.5t-24 -102q-10 -47 -51 -260.5t-78 -401.5t-45 -217q-15 -53 -14 -57q2 -10 16.5 -29.5t22.5 -19.5q11 1 37.5 129t67 349t56.5 302z" />
<glyph unicode="W" horiz-adv-x="1312" d="M1202 1485q8 -8 39.5 -50.5t34.5 -52.5q1 -7 -16 -69t-37.5 -139.5t-26.5 -112.5q-9 -47 -26.5 -120.5t-26.5 -115.5q-5 -25 -18 -75.5t-17 -69.5l-18 -92q-6 -44 -22 -124t-21 -108q-3 -14 -14 -72.5t-17 -90.5q-5 -33 -20 -80.5t-31 -53.5q-31 -14 -146 -14 q-68 0 -80 12q-10 10 -27 40.5t-24 56.5q-6 20 -17 77t-20 80q-103 -211 -135 -293q-2 -4 -5 -7t-9 -5t-11 -3t-14 -1h-15.5h-18h-17.5q-76 -4 -90 10q-28 24 -35 39q-2 5 -13 23.5t-14 23.5q-9 23 -18 58q-48 182 -95 538t-57 414q-5 26 -14 70.5t-16 81t-11 69.5 q-1 10 -5 34.5t-6 40.5t-3 37t4 23q7 7 85.5 2.5t88.5 -10.5q24 -16 58 -49t39 -43q1 -3 6 -23q6 -40 32.5 -198t36.5 -244q13 -99 27 -190q0 -2 9.5 -53.5t18.5 -92.5t13 -41q9 0 23 57t27.5 119t19.5 70q20 28 155 0q28 -9 39 -25q24 -43 70 -159q13 32 42 142t40 159 q7 30 25.5 87.5t25.5 84.5q13 62 53.5 220.5t63.5 213.5q11 20 74 14.5t77 -20.5zM717 727q-4 3 -12 4.5t-14.5 1.5t-6.5 -2q2 -6 21.5 -58.5t38 -107t22.5 -73.5q5 -19 18 17l9 32q0 14 -33.5 96.5t-42.5 89.5zM244 1411q-2 -2 3 -38.5t15.5 -100t21 -123t23.5 -137 t19 -111.5q14 -79 39 -248q19 -146 45 -260l18 45l18 41q-28 129 -36 180q-3 20 -39.5 251.5t-42.5 283.5q-3 25 -12.5 84t-10.5 70q-1 7 -14.5 25t-28 31t-18.5 7zM358 35q11 -4 57.5 -2.5t51.5 6.5q4 4 -18 40.5t-31 41.5q-7 3 -58.5 0.5t-54.5 -8.5q-4 -5 20.5 -38.5 t32.5 -39.5zM637 377q-3 11 -8.5 29.5t-10.5 37.5q-3 -10 -26 -67q-52 -107 -82 -154q-59 -92 -57 -100q2 -10 19 -37t24 -27q2 0 10 15.5t19.5 43t22.5 54t25 60.5l21 51q8 17 20.5 40t18.5 36t4 18zM741 145q29 0 101 13q24 6 28 10q1 1 4.5 30.5t9 66.5t9.5 54 q8 33 24 94t19 74q20 68 41 153.5t35 147t36 162t33 148.5q34 139 58 245q1 3 9 40t15 55q7 24 0 28q-6 6 -43 9t-41 -2q-13 -11 -35 -107q-8 -28 -19 -83.5t-19 -84.5q-8 -27 -50.5 -181t-52.5 -186q-4 -13 -23 -87.5t-30 -106.5q-9 -25 -20.5 -79.5t-22 -93.5t-21.5 -46 q-9 -6 -24 20t-29.5 65.5t-24.5 71t-14 48.5q-31 112 -43 118q-32 14 -76 7q-9 -3 -24.5 -54.5t-22.5 -83.5q-11 -39 -39 -107t-32 -77q-29 -73 -42 -86q-18 -20 -28 16q-10 33 -18.5 73.5t-12.5 69.5t-10.5 76.5t-9.5 69.5q-14 99 -44.5 281.5t-41.5 257.5q-2 10 -8 49.5 t-9.5 62t-10 54t-12.5 50.5t-13 27q-8 9 -55 14.5t-58 -3.5q-4 -4 1.5 -38.5t15 -78.5t10.5 -51q3 -22 165 -1045q2 -13 4 -22t6 -23t10 -21.5t13 -6.5q31 4 113 4q20 2 106 178q5 8 27.5 53t42 82.5t23.5 40.5q11 8 33.5 -66.5t45.5 -170.5t25 -103q6 -22 16 -25zM930 84 q3 5 -13 24t-28 25q-16 7 -78.5 -2t-67.5 -16q-3 -7 8 -25.5t23 -19.5q23 0 87.5 4.5t68.5 9.5zM1194 1180q4 18 17 64.5t23 83t9 42.5q-1 12 -12 30t-23 30.5t-16 9.5q-1 -1 -32.5 -140t-37.5 -167q-18 -82 -54.5 -232.5t-45.5 -189.5q-44 -207 -68 -283 q-13 -43 -32.5 -137.5t-18.5 -120.5q0 -8 22 -36.5t29 -27.5q4 0 13 27.5t14 52.5q48 242 68 357q9 58 73 325t72 312z" />
<glyph unicode="X" horiz-adv-x="1007" d="M889 301q2 -5 23.5 -55.5t32.5 -85t11 -54.5q0 -19 -22 -28q-50 -21 -115 -25q-7 -2 -16 2q-3 2 -10.5 6t-10.5 5.5t-9 5t-9 5.5t-7.5 6t-7.5 7.5t-7 8.5t-7 10.5t-6 11.5q-8 18 -27.5 55t-27.5 55q-29 66 -78 160q-75 158 -84 158q-5 -2 -71.5 -149.5t-86.5 -200.5 q-18 -53 -46 -115.5t-40 -69.5q-17 -11 -76.5 -13.5t-66.5 1.5q-37 15 -59.5 43.5t-14.5 63.5q6 24 15 46t25 54t18 37q28 60 63.5 133.5t60.5 127.5t50 114q5 13 17 44t22 54t22 47q9 17 10.5 35t-5 38t-13 34.5t-18.5 36.5t-17 32q-76 158 -192 358q-3 5 -14 23t-17 28 t-14.5 27.5t-10 28.5t-1 23.5t9.5 21t26 12.5q9 2 34 10t47.5 13.5t41.5 7.5q35 4 49 -2q46 -23 64 -33q9 -6 28 -39q16 -25 31 -57q22 -40 56 -108t57 -116l24 -48q34 59 74 147q13 29 41 82.5t39 79.5q31 69 49 78q11 6 65 4.5t64 -6.5q11 -6 38.5 -35.5t29.5 -36.5 q0 -5 -23.5 -61t-32.5 -74q-8 -18 -21 -44.5t-20 -41.5t-22.5 -51t-22.5 -52q-66 -166 -82 -200q-24 -61 -21 -81q1 -5 3 -9q32 -70 137 -316q8 -18 74 -174zM862 1430q-6 -2 -23 -36.5t-38 -83t-29 -63.5q-15 -28 -36 -78.5t-34 -76.5t-33 -70t-34 -72q-3 -7 -17 -37 t-20 -45q-12 -24 2 -28q41 -18 43 -17q7 7 129 307q7 19 38 86t58 125t27 60q-2 4 -15.5 17t-17.5 12zM254 1464q-3 -4 4.5 -20.5t20 -41t16.5 -32.5q57 -120 90 -186q16 -34 51.5 -98t42.5 -64q5 -3 23 41q-2 3 -10.5 21.5t-10.5 21.5q-5 9 -59 125q-60 117 -100 209 q-3 5 -34 16t-34 8zM238 31q1 1 -6 11t-16.5 20.5t-14.5 11.5q-9 3 -65 0.5t-56 -8.5t19.5 -25.5t35.5 -24.5q8 -3 53 1.5t50 13.5zM483 545q1 2 6 9.5t8 13.5t3 10q0 3 -13 17.5t-16 14.5q-1 0 -59.5 -117.5t-120.5 -246.5t-70 -154q-2 -6 19 -31q20 -23 24 -10 q2 4 42.5 97.5t53.5 127.5q22 56 84 197q13 29 39 72zM766 125q18 -1 50 6t32 12q-1 7 -31.5 69.5t-70.5 148.5t-58 137q-47 121 -76 174q-19 34 -41.5 85.5t-23.5 69.5q-2 18 4.5 35.5t22 41.5t20.5 34q41 78 94 199q18 42 59.5 124t67 136.5t21.5 60.5q-8 4 -39 4 q-36 3 -56 -4q-5 -3 -9.5 -8.5t-12 -22t-10.5 -22.5q-9 -17 -27 -53l-27 -54q-94 -188 -131 -266q-22 -51 -43 -51q-9 0 -17.5 11t-22 38t-19.5 37q-64 109 -154 301q-32 75 -43 92q-5 9 -53 -2q-6 -1 -20 -3t-21 -3.5t-18.5 -4.5t-16.5 -7t-10 -9.5t-4 -13.5t6 -18 q21 -43 64.5 -116t66.5 -116q13 -24 58 -108.5t79 -151.5q2 -3 17 -28t23.5 -44t4.5 -28q-6 -17 -59 -125q-38 -80 -106 -238t-105 -237q-33 -66 -45 -101q-4 -12 5 -14.5t24 0.5q8 1 30.5 3t37.5 4.5t18 6.5q28 54 53 109q3 7 49 104t90.5 188t65.5 128q15 26 44 -13 t48 -81q83 -170 119 -236q7 -13 29.5 -60t39.5 -77q2 -4 6 -13t6.5 -14t6.5 -10t8 -6zM926 98q0 4 -29 16.5t-35 10.5q-11 -3 -34 -7t-37 -7t-15 -7q-2 -9 11 -18.5t26 -9.5q10 0 61 9.5t52 12.5zM870 162q5 -12 21.5 -23t30 -15t12.5 -1q-3 12 -34.5 84.5t-75.5 173.5 t-66 154l-34 85t-48.5 118.5t-22.5 47.5q-11 13 -38.5 24.5t-32.5 6.5q-2 -2 6.5 -20.5t15.5 -30.5q50 -105 158 -373q12 -27 41 -88.5t43 -93.5q4 -8 12 -24.5t12 -24.5z" />
<glyph unicode="Y" horiz-adv-x="1030" d="M963 1393q2 -13 -11 -52q-20 -55 -61.5 -171t-46.5 -128q-25 -58 -43 -108q-6 -19 -22.5 -62.5t-24.5 -66.5q-4 -10 -11 -27t-11 -27.5t-7.5 -26.5t-3.5 -32q0 -47 -4 -137q0 -52 3.5 -164t4.5 -149q10 -100 10 -160q0 -54 -10 -59q-13 -7 -52.5 -15t-66.5 -10 q-9 -1 -19.5 4.5t-17.5 12.5t-19 20t-20 20q-9 9 -14 39t-6.5 59t-2.5 64.5t-1 40.5q-2 30 -3.5 106t-4.5 117q-1 19 -2 52.5t-2 54t-2.5 45t-3.5 41t-5 26.5q-2 11 -34 56q-27 42 -91.5 126.5t-93.5 131.5q-26 40 -113.5 173t-95.5 146q-2 7 -3.5 11.5t3.5 12t8 11.5 t11 10.5t12 10t11 8.5t9 6q31 29 93 49q29 10 75 0q4 -1 12.5 -2t13 -2.5t11 -4.5t11.5 -9q20 -23 69 -86.5t68 -85.5q5 -6 21 -26.5t30.5 -39t30.5 -38t27.5 -31t15.5 -11.5q3 0 8.5 7.5t11 20t10.5 23.5t9.5 23t5.5 14q54 117 106 211q4 7 12.5 22.5t11.5 20.5t10 15.5 t11.5 13t12.5 7.5t16.5 5t20 -1t26.5 -5q7 -3 28 -20t38 -33l18 -15q21 -17 23 -32zM856 1481q-6 1 -12.5 1.5t-14 0.5t-11.5 -2t-3 -6q0 -3 31.5 -35t36.5 -33q3 -1 25 1.5t24 4.5q0 5 -37 36.5t-39 31.5zM303 1417q-11 9 -37 14t-30 1q-1 -2 9 -13t23.5 -26t18.5 -21 q47 -62 114 -143q16 -20 53.5 -71.5t62.5 -83t30 -30.5q6 2 12.5 11.5t3.5 21.5q-1 8 -32.5 48.5t-70 87.5t-44.5 55q-90 131 -113 149zM535 201q0 -99 12 -109q6 -8 33 -4q65 0 65 14q0 54 -4 156q-12 234 -12 410q0 57 2 69q1 11 4 22.5t9.5 28t8.5 21.5q17 43 47.5 127.5 t49.5 130.5q60 155 98 272q12 40 12 54q0 5 -27.5 33.5t-31.5 27.5q-8 0 -21 -20q-20 -31 -39 -68t-43.5 -88.5t-35.5 -73.5q-2 -4 -14 -30t-23.5 -49.5t-25 -50t-23.5 -42.5t-15 -16q-31 2 -61 45q-55 82 -107 139q-11 14 -40 49.5t-46 55.5q-3 4 -15.5 21t-23.5 32t-25 31 t-25.5 26t-18.5 10q-14 0 -53.5 -26t-53.5 -47q-5 -6 17 -35q34 -51 90 -143.5t80 -129.5q25 -38 75 -103.5t72 -98.5q13 -18 41.5 -55.5t40.5 -55.5q8 -13 11 -32t3 -48v-35q2 -52 5 -147.5t5 -144.5q4 -93 3 -123zM690 35q2 2 -6 10.5t-18.5 16.5t-16.5 10q-9 5 -51 0.5 t-43 -11.5q-3 -5 18.5 -23t28.5 -20q3 -2 44 5.5t44 11.5zM711 55q6 6 -6 176q-4 71 -9 299q-1 19 0 61.5t2 76.5t0 37q-4 8 -21.5 16t-21.5 6q-3 -1 -4 -14t0 -34.5t2 -41t2.5 -43.5t1.5 -33q7 -111 11 -196v-146q0 -123 2 -129q2 -10 18.5 -25.5t22.5 -9.5zM885 1212 q1 5 17.5 49.5t31.5 85.5t14 44q-4 7 -32 1t-31 -16t-8.5 -26.5t-6.5 -20.5q-14 -52 -50.5 -149.5t-49.5 -137.5q-27 -83 -57 -157q0 -1 -14 -30.5t-26.5 -58.5t-10.5 -34q4 -10 15.5 -17.5t20.5 -7.5q8 0 117 297q9 25 34 85t36 93z" />
<glyph unicode="Z" horiz-adv-x="964" d="M887 123q0 -5 1 -23t0 -26t-4 -20t-11.5 -18t-22.5 -7q-68 -9 -137 -9q-68 -1 -195 -7t-172 -7q-7 0 -58.5 -2t-76.5 -4q-13 0 -33 4q-17 4 -31 13.5t-32.5 26.5t-28.5 24q-14 11 -25.5 58.5t-9.5 68.5q1 22 16 52.5t38 66.5t30 51q11 21 55.5 103t71.5 136.5t47 106.5 q45 109 129 288q6 15 36.5 75.5t55.5 112t23 54.5q-3 6 -66 6q-23 0 -57 -1l-33 -1q-35 -2 -84 -2q-59 0 -106 2q-48 0 -60 6q-8 4 -35 36.5t-30 37.5q-11 23 -19 76q-16 81 -10 90q7 10 90 10q60 1 179 -3t178 -3q61 0 209 -4q40 -3 51 -12q3 -2 10.5 -10t20.5 -22.5 t24 -25.5q29 -29 35 -47q2 -6 2 -42.5t-4 -69.5q-1 -4 -8.5 -17t-17.5 -29t-13 -20q-5 -9 -57 -101.5t-64 -119.5q-14 -29 -58.5 -117.5t-66.5 -138.5q-87 -192 -129 -268q-39 -72 -67 -136q-3 -10 -3.5 -17t6 -11t13 -5.5t17.5 -1.5t19 0.5t18.5 1.5t15.5 1q11 0 33 -1 t34 -1q30 0 94 2t95 2q11 0 33 -1t34 -1q16 0 29.5 -9t29 -24t25.5 -21q10 -8 16 -16.5t8.5 -21t3 -19t0 -25t-0.5 -24.5zM770 1440q-4 -4 -3 -66.5t3 -66.5q2 -3 29 -15.5t30 -11.5q3 0 3 43t-3 49q-2 7 -16 24.5t-27.5 31.5t-15.5 12zM770 1274q-4 -3 -8.5 -10t-7 -13 t-6.5 -16t-5 -12q-109 -237 -231 -455q-73 -139 -133 -287q-9 -21 -28.5 -62t-34 -74.5t-25.5 -65.5q23 0 33 2q9 6 18 24.5t19.5 49t11.5 32.5q13 26 36.5 70.5t32.5 62.5q16 34 68 146t80 170q19 36 62 124.5t69 135.5q7 11 31.5 54.5t40.5 66.5q18 30 18 36q0 5 -12 15 q-22 11 -29 6zM412 1278q7 0 48.5 -1.5t67 -2t39.5 1.5q8 1 20 23.5t9 25.5t-22.5 3t-50.5 -1.5t-42 -1.5h-143q-213 0 -217 -6q-3 -5 14 -24t31 -23q5 -2 246 6zM100 109q2 -5 80 -5q85 0 260 5q29 1 110.5 4t111.5 4q31 2 77 2q5 1 13 1t13 0.5t7 2.5q6 6 6 63q0 58 -2 62 q-3 4 -9 5t-23 0t-23 -1q-33 -2 -92 -2h-92q-25 -1 -76 -2t-76 -2q-2 0 -30 -3t-46 -3q-33 0 -49.5 10t-5.5 35q38 86 137 293q37 78 148 292q65 126 120 246q11 24 33 71t35.5 76.5t15.5 36.5q3 21 0 97v21.5t-0.5 16t-4 11t-11.5 7t-22 3.5q-18 1 -53.5 1t-53.5 1 q-38 3 -84.5 5.5t-80 3t-87.5 0.5t-82 1q-21 0 -70.5 4t-76.5 3q-25 0 -35 -7q-2 -7 -1.5 -12t4.5 -23t5 -28q3 -46 14 -57q2 -2 9 -2t21.5 1t25.5 1h123h63q5 0 108 1t146 1q6 0 10.5 -0.5t8 -1.5t5.5 -2t3 -2.5t2 -2t1 -2.5l1 -2q2 -4 -1.5 -14.5t-10 -25.5t-13 -28 t-14.5 -28t-10 -20q-40 -86 -72 -148q-32 -67 -116.5 -254.5t-135.5 -290.5q-15 -32 -27.5 -54t-28 -49t-30.5 -54q-31 -56 -55 -103q-5 -5 -21 -33.5t-16 -37.5q-2 -8 4.5 -36.5t15.5 -51.5zM819 51q3 3 -14 21t-23 22q-29 4 -60.5 3.5t-109 -4.5t-96.5 -5q-381 0 -393 -12 q-3 -3 14 -15t36.5 -23t23.5 -11q31 -3 217 10q169 5 202 4q193 0 203 10zM864 63q4 4 4 62q0 56 -4 68q-3 8 -28 31t-31 20q-3 -3 -3.5 -64t1.5 -67q5 -14 30 -35t31 -15z" />
<glyph unicode="[" horiz-adv-x="524" d="M463 154q4 -13 -4.5 -77.5t-12.5 -68.5q-3 -6 -133 -6h-49t-47 0.5t-38.5 1t-28 0.5h-11.5q-4 0 -29.5 29t-27.5 35q-6 12 -6 26q-10 534 -13 647q-2 61 -2 185v186q0 13 -2 64t-4 98t-3.5 104.5t-1.5 84t1 36.5q7 7 96 8.5t105 -0.5q123 0 131 -2q8 -4 22.5 -21.5 t18.5 -25.5q2 -5 2 -11.5t-1 -15t-1 -14.5q0 -14 0.5 -34.5t0.5 -34.5v-28.5t-1.5 -23t-3.5 -10.5q-10 -10 -119 -6q-46 0 -51 -2q-2 -1 -2 -141q0 -12 2 -154.5t4 -226.5q1 -53 2 -156t2 -158q0 -5 -1 -54t-1 -79q0 -69 4 -69q7 -1 73 -9t93 -20q26 -13 37 -57zM248 1303 q10 -10 137 -3q-18 41 -25 46q-4 2 -71 2q-68 0 -70 -2q-3 -3 10 -21.5t19 -21.5zM223 1067q-1 14 0 68.5t2 102.5t0 50q-1 6 -5.5 15t-9.5 16t-7 6q-2 0 -2 -160q0 -236 3.5 -578t6.5 -345q6 -4 14 -4.5t11 2.5q3 1 -3.5 377t-9.5 450zM387 1477q-4 -3 -6.5 -59.5 t0.5 -65.5q1 -3 3.5 -9t6 -12.5t7.5 -12.5t6.5 -10t3.5 -3q3 1 4.5 68t-0.5 71q-1 1 -4 6t-5.5 9.5t-6 9t-6 7t-3.5 1.5zM94 156q0 -51 8 -56q8 -8 136 -8q25 0 90 3t71 5q9 6 9 21q-1 7 -2 22.5t-1.5 27.5t-1.5 15q-3 9 -20 9q-19 0 -54 3.5t-46 4.5q-79 4 -86 8 q-8 3 -13 154q-10 625 -10 786q0 21 -1 66.5t-1 68.5q0 46 2 66q0 12 78 12h108q7 0 7 53q0 58 -9 64q-7 5 -36 2q-28 -1 -95 -1.5t-104.5 -1.5t-38.5 -3q-2 -3 0 -182t5 -452.5t3 -434.5q0 -41 1 -121.5t1 -130.5zM418 33q7 4 -4 23t-19 22q-11 2 -146 -0.5t-140 -7.5 q-2 -2 3.5 -11.5t17 -20t22.5 -13.5q12 -2 136 1.5t130 6.5zM440 57q4 4 7.5 39t3.5 45q-2 10 -11 25.5t-14 11.5q-2 -2 -3.5 -41.5t-0.5 -42.5q0 -1 1.5 -5.5t3.5 -10t4.5 -10.5t5 -8.5t3.5 -2.5z" />
<glyph unicode="\" horiz-adv-x="1122" d="M1010 156q1 -2 21.5 -32t35.5 -56t12 -31q-5 -16 -70 -26.5t-91 -10.5q-6 0 -38.5 19.5t-39.5 31.5q0 1 -30 59.5t-34 65.5q-3 3 -10 17.5t-16 32t-13 24.5q-3 5 -7 15.5t-7 15.5q-12 24 -37 65q-4 8 -11 23.5t-11 23.5q-1 1 -11.5 20.5t-13.5 26.5q-18 32 -23 43 q-1 3 -15 32t-15 32q-3 3 -15.5 27.5t-15.5 27.5q-1 2 -6.5 11t-12.5 20.5t-10 17.5q-1 1 -4 9t-6.5 15.5t-5.5 10.5q-1 7 -15 36.5t-22 41.5q-4 10 -12 26.5t-12 26.5q-3 6 -12.5 24.5t-18 34.5t-8.5 17q-12 24 -33 59q-1 3 -14 28t-26 48.5t-13 24.5q-1 3 -5.5 8t-5.5 8 q-6 13 -18 36.5t-22 43.5l-19 38t-10 19q-23 46 -56 101l-36 69q-5 8 -13 30.5t-14 33.5q-17 22 -31 51q0 1 -10.5 14.5t-17 24t-12.5 24.5t-5 23q11 4 72 2t88 -4q6 -1 14 -6t16.5 -12.5t12.5 -10.5q7 -5 24.5 -14t20.5 -12q2 -3 38 -78t40 -82q103 -206 119 -230 q113 -225 131 -270q15 -33 28 -57q26 -50 35 -70q3 -7 18 -33.5t17 -29.5q35 -51 43 -68q4 -6 10 -19.5t10 -19.5q4 -7 9 -21t8 -18q22 -33 26 -41q10 -26 35 -67q4 -8 25 -43q0 -1 2 -4t4.5 -7t3.5 -6q6 -6 37.5 -62t38.5 -69q1 -3 16 -31.5t19 -37.5zM877 57q9 -1 57 11 t51 16q2 4 -12.5 26.5t-35 52t-26.5 38.5q-4 8 -14 23.5t-14 23.5q-62 112 -66 119q-2 3 -72 131t-73 133q-2 3 -19.5 38t-36.5 74.5t-36.5 75.5t-18.5 37q-28 56 -29 59q-36 66 -43 82q-3 5 -134.5 252.5t-135.5 253.5q-3 6 -12 23t-14 22q-10 9 -52.5 7.5t-46.5 -7.5 q-1 -3 5 -13t15.5 -26t14.5 -26q3 -4 55.5 -99t55.5 -102q5 -7 14 -29q14 -23 65 -120q20 -46 37 -86q3 -6 19 -37t32.5 -63t18.5 -36q8 -19 28.5 -55t28.5 -57q1 -4 6.5 -12.5t6.5 -12.5l10 -24q11 -24 16 -33q2 -4 12.5 -22.5t12.5 -22.5q3 -5 20.5 -38t20.5 -38 q20 -27 37 -66q5 -10 13 -31.5t13 -31.5q7 -13 17 -27q3 -6 8 -17t6 -13q14 -18 23 -37q1 -4 8.5 -15.5t9.5 -19.5q8 -18 27.5 -51t27.5 -51q16 -39 27 -58q4 -8 12 -22.5t12 -22.5q37 -74 48 -76zM922 18q12 0 58 8.5t46 14.5q0 4 -7.5 13t-14.5 9q-10 0 -59.5 -13 t-49.5 -17q-1 -2 5.5 -5.5t13.5 -6.5t8 -3zM958 168q4 -5 24.5 -45t23.5 -43q8 -8 34 -12q-37 48 -45 67q-7 12 -29 56.5t-36 68.5q-9 18 -21 33q-3 7 -25 42t-22 36q-4 7 -12 22.5t-12 22.5q-3 6 -26 49t-44 84t-23 45q-1 2 -23.5 40.5t-25.5 43.5q-2 5 -22.5 40t-24.5 42 q-1 1 -14.5 26t-18.5 39q-4 8 -12.5 27t-13.5 29q-2 5 -9 16t-10 16q-1 2 -7.5 14.5l-13 25t-9.5 18.5q-24 56 -37 82q-4 6 -148 288q-12 22 -31.5 62t-32.5 66.5t-16 29.5q-4 6 -21.5 21.5t-18.5 11.5q0 -3 113.5 -217.5t117.5 -220.5q23 -57 31 -68q1 -1 15.5 -28.5 t16.5 -30.5q46 -92 56 -107q1 -1 81 -152t85 -157q4 -3 27.5 -50t23.5 -50q3 -6 11 -18.5t11 -18.5q13 -39 23 -54q6 -6 8 -10l14 -28q3 -11 19 -35q4 -17 16 -29q6 -7 17.5 -27.5t13.5 -23.5q15 -25 22 -39z" />
<glyph unicode="]" horiz-adv-x="589" d="M506 254q0 -8 2 -68.5t2 -95.5q0 -71 -8 -82q-10 -10 -47 -4q-2 3 -79.5 1.5t-82.5 -1.5q-11 0 -48 -1.5t-64 -1.5t-34 3q-16 3 -39 24.5t-30 41.5q-3 13 -6 71t0 62q2 3 18 6.5t40 6.5t45.5 5.5t42 5t22.5 2.5q8 0 8 236q0 53 -10 803q-4 0 -14 -0.5t-19.5 -0.5t-18.5 1 q-8 0 -23.5 -1t-24 -1.5t-15.5 0.5q-1 0 -62 61q-6 6 -8.5 75.5t6.5 82.5q4 5 29 7t47 1t33 0q46 4 82 4q119 0 135 -12q71 -61 76 -78q3 -8 4 -15t1 -13v-21t1 -31q3 -78 13.5 -250t13.5 -297q1 -63 4.5 -162t5.5 -185.5t2 -178.5zM131 1290q9 -7 107 -2q-2 14 -2 37 q0 4 -70 5.5t-72 -1.5q-1 -1 37 -39zM109 92q3 -3 77 6q26 4 74 7.5t74 7.5q9 1 21 1.5t19 0.5t14 3.5t11 10.5q9 14 0 164q-2 13 -18 579q-1 80 -2.5 218.5t-3 221t-4.5 120.5v7q-1 14 -2.5 19t-6 7.5t-16.5 2.5t-39.5 -1.5t-46.5 -0.5q-17 0 -55 -1t-58 -1q-3 0 -13 0.5 t-18 0.5t-17 -0.5t-14 -2.5t-5 -6q-4 -24 -4 -58t6 -40q2 -2 18.5 -2t47.5 1t49 1q58 0 63 -8q5 -9 8.5 -80t3.5 -111q-1 -92 4 -236.5t5 -207.5q0 -25 1 -76t1 -76q0 -26 -1 -75.5t-1 -73.5q0 -3 1 -40.5t1 -62.5q0 -100 -19 -112q-12 -6 -53 -10t-75.5 -6.5t-35.5 -4.5 q-2 -5 2 -44t7 -42zM453 33q3 7 -14 30.5t-25 26.5q-6 3 -141.5 -8.5t-141.5 -15.5q-6 -6 8.5 -21.5t24.5 -17.5q6 -2 84 -2q202 0 205 8zM487 53q1 0 1 15t-0.5 44t-1.5 67t-2.5 88t-3.5 102t-4 115t-4 120.5t-4.5 124.5t-4.5 121q-2 64 -14 295t-15 241q-4 26 -27 48 q-8 6 -10 4q-3 -8 17 -653.5t22 -661.5q3 -18 24 -44t27 -26z" />
<glyph unicode="^" horiz-adv-x="729" d="M606 1262q70 -174 66 -185q-3 -8 -72 -29.5t-86 -15.5q-8 3 -31 19.5t-26 21.5q-5 6 -9 15t-7 19.5t-5 14.5q-4 16 -20.5 55t-20.5 60q-17 -22 -47.5 -72.5t-54.5 -90t-31 -42.5q-9 -5 -32 -7t-53.5 -3t-43.5 -2q-22 -2 -29 2t-20 25q-5 8 -12 17.5t-10.5 14t-6.5 10.5 t-3 11.5t2.5 13.5t8.5 19q21 39 65 107t60 95q14 25 33.5 54t34.5 48.5t39.5 52t36.5 48.5q37 53 67 43q16 -5 65 -45t58 -51q4 -5 18.5 -44t34.5 -95t31 -84zM541 1362q-3 7 -13.5 35t-18.5 48.5t-11 24.5q-13 15 -70 52q4 -9 13.5 -33t13.5 -33q27 -54 77.5 -174 t67.5 -158q4 -1 41 -22q7 -4 6 -2q-4 14 -106 262zM123 1042q5 -5 54 -4t59 9q4 3 -10 19t-23 21q-4 3 -50.5 1.5t-50.5 -7.5q-7 -11 21 -39zM260 1063q3 1 29.5 43.5t56.5 92t39 61.5q-3 28 -18 45q-2 -3 -14 -17t-15 -22q-9 -13 -25.5 -34.5t-27.5 -38t-21 -34.5 q-3 -6 -13 -21t-16.5 -26.5t-5.5 -15.5q4 -9 15 -21.5t16 -11.5zM449 1174q18 -67 26 -70q15 0 25 2q2 1 21.5 4t37.5 6t19 4q1 3 -17.5 45.5t-42.5 95t-26 56.5q-99 231 -109 231q-3 0 -15 -13t-18 -22q-27 -39 -83.5 -116.5t-84.5 -116.5q-40 -57 -49 -82 q-5 -13 -19 -35.5t-22 -37t-4 -17.5q6 -3 52.5 -2t58.5 4q6 3 23 30t38.5 64.5t30.5 50.5q8 11 28 38t31 44q5 6 14.5 7t14.5 -5q17 -25 70 -165zM492 1081q-1 -1 4 -7t14 -13t16 -10q6 -2 47 9.5t56 18.5q-17 22 -31 25q-9 2 -55.5 -7t-50.5 -16z" />
<glyph unicode="_" horiz-adv-x="997" d="M862 23q5 0 12 -2.5t17 -8t17 -10t19.5 -13t18.5 -12.5q9 -6 4 -116q0 -10 -6 -17.5t-14 -7.5q-49 -1 -367 -17t-354 -16q-67 -5 -74 -4q-5 1 -9 4t-9 9.5t-8 9.5q-7 8 -17.5 17.5t-15.5 14.5t-9.5 13.5t-5.5 19.5q-2 33 -14 105q-1 7 6 11.5t21 6t23.5 2t23.5 0.5 q87 0 267.5 3t320.5 6t153 2zM854 -6q-9 6 -106 6q-138 0 -228 -4q-421 -6 -434 -21q-6 -11 -2 -48.5t12 -45.5q7 -6 379.5 5t378.5 16q7 8 6 47.5t-6 44.5zM887 -94q3 -9 18 -21t21 -12t6 36.5t-4 43.5q-7 17 -39 33q0 -55 -2 -80zM877 -123q-10 3 -385.5 -7.5 t-378.5 -16.5q-1 -6 11 -18.5t19 -14.5q8 -1 247 9.5t296 14.5q27 2 82 4t94.5 3t42.5 4t-1 6.5t-16 9.5z" />
<glyph unicode="`" horiz-adv-x="454" d="M270 1473q11 -2 62 -46q4 -4 12.5 -29.5t20.5 -67t18 -60.5q17 -67 14 -86q0 -5 -43.5 -32.5t-50.5 -27.5q-12 0 -32.5 8.5t-32.5 18.5q-11 10 -58 68t-65 90q0 1 -14 20.5t-24 35.5t-18.5 38.5t-5.5 38.5q3 13 104 23.5t113 7.5zM244 1188q7 -1 36 13.5t31 19.5t-26 110 t-31 105q-8 5 -84 -3.5t-80 -15.5q-5 -13 70.5 -120t83.5 -109zM373 1212q3 3 -22 97.5t-29 99.5q-6 8 -20 18t-17 5q-2 -3 23.5 -99t29.5 -100q33 -22 35 -21zM336 1198q-7 0 -37.5 -15.5t-30.5 -21.5q0 -8 31 -18q9 0 38.5 16t29.5 23q0 4 -13 10t-18 6z" />
<glyph unicode="a" horiz-adv-x="1136" d="M526 541q203 21 215 -183q7 -111 -59.5 -178.5t-181.5 -85.5q-67 -10 -128 8.5t-98.5 70.5t-25.5 126q35 212 278 242zM281 328q-14 -55 5.5 -109t65.5 -74q-25 60 -28 136q0 23 4 47q18 81 90 155q-34 -9 -61 -31t-42.5 -47.5t-23 -44t-10.5 -32.5zM592 158 q54 25 90.5 85t36.5 124q0 42 -23 86q-36 57 -104 57q-35 0 -86 -14q-54 -13 -93.5 -61t-53.5 -108t-1 -112q21 -92 105 -92q45 0 129 35zM1077 72q4 -55 -10 -64q-11 -7 -68 -15.5t-94 -4.5q-16 0 -26 16q-15 18 -23 35q-3 5 -8 20.5t-8 20.5q-1 2 -3 2.5t-4.5 -0.5 t-4.5 -2.5t-6 -4t-6.5 -4.5t-7 -6t-7.5 -6q-54 -42 -117 -73q-109 -56 -266 -56q-29 0 -94 9q-119 19 -184.5 120t-65.5 230q0 112 47 198q45 82 136 135.5t192 67.5q48 7 124 -4q37 -4 42 6t-9 45q-39 99 -166 99q-56 0 -118 -19q-9 -3 -46 -22.5t-69.5 -32t-42.5 -4.5 q-7 5 -22.5 16t-23.5 17t-19 16.5t-18.5 22t-12.5 24.5q-19 46 -19 72q0 27 18.5 45t63.5 39q134 64 252 69q80 4 157 -8t150 -41t131.5 -84t89.5 -131q118 -293 140 -512q2 -17 13.5 -101t12.5 -130zM313 840q66 21 172 18q-27 21 -88 21q-50 0 -114 -13.5t-105.5 -29.5 t-40.5 -23q0 -9 19 -20t26 -11q4 0 29.5 12t56.5 27t45 19zM813 104q4 4 2 8.5t-6 4.5q-6 3 -20 -2t-30.5 -15.5t-31.5 -20.5t-29.5 -21t-17.5 -13q-70 -41 -193 -80q39 -3 103 15.5t98 42.5q1 1 18.5 11.5t37 22t40 25.5t29.5 22zM860 94q2 -9 9.5 -20.5t15.5 -12.5 q7 -3 55 9q6 2 17 5t17 5t9 6v51q-5 35 -45 320q-25 170 -92 319q-83 179 -158 217q-116 58 -239 58q-36 0 -87 -7q-70 -9 -169 -42.5t-111 -61.5q-6 -16 2.5 -40.5t22 -40.5t20.5 -13q110 40 179.5 52.5t135.5 4.5q59 -9 109 -48t82 -97q26 -47 26 -74q0 -53 -81 -33 q-53 11 -86 11q-124 0 -231.5 -74t-137.5 -189q-12 -53 -12 -108q0 -111 51 -198.5t151 -112.5q35 -9 68 -9q118 0 281 95q15 8 48.5 31t57 34.5t41.5 11.5q34 0 51 -49zM1034 23q3 7 -15 19.5t-24 12.5q-12 0 -58.5 -8t-47.5 -14q-1 -7 9.5 -17t16.5 -12q5 -2 61.5 7 t57.5 12zM1053 45q2 6 0.5 34.5t-3.5 60.5l-3 32q-10 155 -62 346q-45 177 -80 256q-51 115 -123 170q64 -98 104.5 -207t76.5 -256q7 -30 19 -126.5t21 -181.5t9 -87q3 -10 20 -27.5t21 -13.5z" />
<glyph unicode="b" horiz-adv-x="989" d="M793 690q25 -39 44 -78t31.5 -67.5t19 -64.5t10.5 -53.5t3 -52t-1.5 -42t-4.5 -42.5l-4 -34q-17 -132 -128.5 -211.5t-252.5 -81.5q-17 -1 -69 4.5t-82 8t-44 -4.5q-27 -46 -43 -59q-5 -7 -61.5 -4.5t-63.5 20.5q-3 11 -20.5 45t-17.5 58q-1 24 -3.5 71t-3.5 70 q-8 112 -16 332q-3 85 -11 314.5t-14.5 424.5t-7.5 211v8v7.5v6t0.5 5.5t1 4.5t1 4t2 3t3.5 2.5q12 6 66 6q107 0 111 -4q11 -4 35.5 -33t33.5 -45q5 -7 10 -30q11 -124 23 -379q0 -17 8 -119q2 -41 10 -46q5 -4 17 -1q126 33 238.5 -9.5t179.5 -144.5zM244 1458 q-2 -2 5 -89t16 -200.5t11 -160.5q0 -2 2.5 -55t6.5 -93.5t10 -38.5q2 0 7 1.5t12 3.5t10 3q2 1 -0.5 29t-5.5 59.5t-3 34.5q-15 259 -18 338q-8 120 -10 123q-2 5 -21 26.5t-22 18.5zM121 451q9 -131 12 -269q1 -9 3 -50.5t4 -76t3 -35.5q4 -1 30.5 0t31.5 3q2 2 7 27 t17 32q16 13 60 -2q123 -43 237 -35q65 5 118 36t85 73t53.5 92t29.5 91.5t7 72.5q-2 38 -11 82t-29 97t-48.5 98t-75 81.5t-102.5 50.5q-72 15 -122.5 8.5t-119.5 -30.5q-14 -5 -24 -5t-16 3.5t-9 13t-4 18t-2 23.5q-2 28 -5 85.5t-5 86.5q-2 35 -8 135.5t-10.5 182 t-6.5 100.5q-1 7 -2 15t-2 12t-4 6q-7 5 -65.5 4.5t-63.5 -4.5q-4 -3 2 -163t10 -206q1 -26 1 -77t1 -83q2 -36 4 -103t4 -104q2 -47 7.5 -144.5t7.5 -141.5zM236 -70q3 3 -6 27.5t-15 28.5q-5 3 -37.5 1t-34.5 -5q0 -4 11 -25t14 -23q2 -1 19.5 -2.5t32 -2t16.5 0.5z M264 -66q2 0 15.5 16.5t13.5 20.5t-21.5 38t-27.5 40q-1 2 -4 -4q-11 -24 -10 -42q1 -2 1 -3q1 -1 8 -18.5t14 -31.5t11 -16zM778 102q60 55 80.5 150.5t4.5 188.5t-56 163q55 -173 28 -309.5t-118 -208.5q-75 -61 -217 -72q-37 -3 -92 6.5t-91 19.5t-43 13q-5 3 2 -9 q17 -31 31 -43q1 -1 2 -1q47 6 118 -2.5t87 -7.5q82 4 143.5 30.5t120.5 81.5zM324 217q-3 2 -9 5t-10 6.5t-6 7.5q-11 26 -10.5 208.5t8.5 194.5q3 4 7 7.5t10.5 5.5t11 3.5t14 3t14 2t16 2t15.5 1.5q88 5 159.5 -45t94.5 -136q12 -58 4.5 -118t-45 -111.5t-94.5 -67.5 q-43 -10 -92 -1.5t-88 32.5zM528 227q41 23 65 69t23.5 94.5t-18.5 92.5q-32 65 -96 95q-48 21 -115 6v-133q0 -104 -2 -170q0 -5 -0.5 -15t-0.5 -15.5t1.5 -13t5 -12t10.5 -6.5q69 -28 127 8zM330 631q-3 -1 9 -9q21 -13 34 -16q2 0 8.5 1t16.5 2.5t18 2.5q15 2 31 0.5 t29 -4t26.5 -8t24 -10.5t20 -11t16 -10.5t12 -9.5t7.5 -7l2 -1q-85 115 -254 80zM317 608q-3 -3 -0.5 -175.5t5.5 -178.5q1 -3 17.5 -9.5t18.5 -4.5q9 12 9 209v131q0 4 -23.5 17t-26.5 11z" />
<glyph unicode="c" horiz-adv-x="1077" d="M485 1016l-26 -12q-234 -105 -316 -308q-59 -148 -59 -260q0 -138 88 -237q62 -73 157 -109.5t201 -36.5q66 0 146 17q163 38 223 100q2 2 7.5 8t7.5 9t5 9t-1 9q-26 53 -44 84q-7 14 -34 -8q-43 -39 -120 -61.5t-157 -22.5q-123 0 -188 45q-61 38 -91 101.5t-30 139.5 q0 138 82 244q92 119 221 141q47 6 84 6q63 0 115 -10q14 -2 26.5 8t18.5 27q0 1 11 24t18 40.5t6 23.5q-5 21 -111 45q-44 10 -98 10q-71 0 -142 -26zM592 1075h10q75 4 154.5 -10.5t117.5 -52.5q46 -43 46 -88q0 -28 -21 -86q0 -2 -4 -16.5t-6.5 -23t-6.5 -21.5t-9 -22 t-11 -14q-13 -11 -58 14q-3 2 -5 3q-23 14 -76.5 26.5t-120.5 8.5q-102 -7 -173 -102.5t-71 -221.5q0 -83 33 -156q22 -51 61.5 -69.5t100.5 -18.5q24 0 86 4q73 9 145 52q10 6 26 16.5t23.5 14.5t23 11t25 5.5t29.5 -2.5q7 -1 26.5 -4.5t27.5 -5.5t20 -10.5t19 -22.5 q14 -25 28 -62q4 -10 2 -19.5t-6 -13.5q-57 -91 -158 -143q-89 -45 -225 -45q-112 0 -227 29.5t-193 76.5q-74 44 -117.5 113t-52.5 154q-4 46 -4 67q0 129 39 232q63 166 197.5 279.5t304.5 123.5zM1018 211q4 4 -16.5 43t-24.5 39q-74 18 -78 14q-4 -3 17.5 -46.5 t27.5 -45.5q11 -3 40.5 -5t33.5 1zM993 180l-24 6q-11 3 -13 -2q-33 -39 -83 -68.5t-87.5 -43.5t-119.5 -41q100 0 197 40.5t130 108.5zM899 915q2 16 -21 50q-16 23 -20 12q-2 -5 -19.5 -45.5t-26.5 -65.5t-7 -30q10 -22 24 -45.5t21 -18.5q2 0 49 143zM799 784q5 -3 4 4 q-1 21 -18 43q-6 8 -11 9q-36 6 -45 6q-38 6 -82 6q-194 0 -293 -145q-73 -101 -73 -222q0 -106 71 -188q5 -6 25 -25t26 -22q2 -2 0 1q-1 2 -5 7q-24 31 -33 51q-29 65 -29 152q0 83 25 158.5t65 115.5q83 86 215 86q82 0 158 -37z" />
<glyph unicode="d" horiz-adv-x="1069" d="M176 395q-17 120 62.5 227t189.5 119q65 7 133 -4t105.5 -26t44.5 -23q6 -6 6 -82q0 -96 -8 -218.5t-17 -135.5q-6 -9 -14 -15.5t-25 -11.5t-26.5 -7.5t-38.5 -8t-41 -8.5q-48 -11 -103 -11q-106 0 -180.5 50t-87.5 155zM207 461q-3 -43 6 -81.5t24 -63t31 -43.5t28 -27 l11 -8q-53 61 -53 155q0 50 20 117q18 57 47 96.5t66 60t76 29t88 9.5l-26 7q-20 3 -42 3q-39 0 -73 -10q-83 -25 -140 -105t-63 -139zM664 285q7 14 12.5 114.5t5.5 184.5q0 69 -4 71q-56 25 -131 25q-84 0 -131 -31q-21 -14 -29 -22q-48 -43 -75 -103.5t-27 -124.5 q0 -51 18 -100q31 -84 150 -84q49 0 92 12q4 1 15.5 4t17 4.5t16 4t16 5t14 6t14 7t11 7.5t9.5 9t6 11zM946 1094q4 -129 4 -377q0 -211 -2 -328v-106q0 -148 -6 -228q-1 -10 -5 -17t-13 -11.5t-17 -7t-23.5 -6.5t-25.5 -7q-55 -13 -74 2q-24 24 -28 35q-4 8 -6 18.5 t-2 17.5v7q-56 -29 -113 -39q-72 -10 -135 -10q-124 0 -217 26q-73 23 -127 91t-78.5 149t-24.5 164q0 23 4 59q11 84 40.5 150t67.5 105.5t87 65t95 35t95 9.5q73 0 146 -25q22 -8 48.5 -21.5t42 -21t17.5 -6.5q4 2 4 45.5t-2 110.5t-2 88q-1 41 -5.5 153.5t-4.5 174.5 q0 54 2 81q5 25 8 27q9 6 34.5 8.5t59 3t39.5 0.5q32 0 70.5 -31t42.5 -48q4 -11 5 -28t0.5 -39.5t0.5 -33.5q0 -26 -1.5 -108t-0.5 -127zM741 106q3 2 2.5 18.5t-6.5 16.5l-25 -9q-25 -9 -57 -18.5t-72.5 -20.5t-86 -18t-82.5 -7l20 -3q25 -2 55 -2q28 0 78 5 q109 13 174 38zM762 158q8 -8 9 -27.5t1 -34.5t6 -14q71 17 78 24q3 5 -7.5 685t-14.5 686q-4 4 -53 4.5t-62 -6.5q-4 -36 -2 -121.5t7 -254.5t5 -243q0 -87 -6 -90q-7 -3 -28 7t-47.5 25t-37.5 19q-88 35 -172 35q-127 0 -213.5 -76t-124.5 -188q-14 -41 -14 -105 q0 -76 22 -153t71 -143.5t116 -90.5q35 -12 76 -12q58 0 176 29q31 7 65 17.5t55.5 17t41.5 11.5t33 5t20 -6zM805 23q9 -3 31 0t39.5 7.5t17.5 6.5q0 13 -9 25.5t-20 15.5q-8 3 -48 -6.5t-44 -16.5q-3 -7 11.5 -18.5t21.5 -13.5zM870 1462q-4 -8 -4 -143q0 -199 6.5 -568 t10.5 -440q1 -21 0 -109.5t0 -105.5q0 -5 27 -35q10 -12 10 -8q0 146 4 330v125q0 191 -2 287v145v326q0 153 -2 155q-9 12 -28 29t-22 12z" />
<glyph unicode="e" horiz-adv-x="1234" d="M1174 332q4 -15 2 -22t-13 -29q-59 -114 -175 -187.5t-240 -87.5q-56 -6 -111 -6q-307 0 -473 219q-55 71 -85 163t-30 187q0 180 105 303q182 207 415 207q95 0 193 -37q160 -57 258 -192q4 -7 13 -19.5t14 -21t10 -17.5t6 -14q4 -42 2 -80q0 -10 -1.5 -16t-6.5 -10.5 t-7 -6t-11 -4.5t-11 -4q-88 -40 -280.5 -102.5t-296.5 -114.5q-32 -17 0 -98q16 -40 41.5 -58t70.5 -30q30 -6 62 -6q70 0 133.5 32.5t105.5 88.5q18 25 78 114q6 9 17 10t25.5 -4t27 -11t27 -14.5t20.5 -10.5q14 -5 37 -19.5t24 -15.5q8 -4 27 -34.5t27 -51.5zM461 283 q-28 39 -38.5 74.5t-10.5 53.5t-2 19q-11 7 -37.5 17t-30.5 6q-3 -3 11.5 -36.5t31.5 -58.5q23 -35 67 -71q9 -5 9 -4zM1028 760q-10 -4 -73.5 -30t-123 -50.5t-69.5 -28.5q-39 -16 -152 -61t-184 -75t-74 -34q-1 -1 4 -4q28 -17 59 -19q9 -1 13 1q26 10 76 35t67 32 q74 30 209 78q237 81 252 90q12 5 6 45q-4 23 -10 21zM909 96q54 29 101.5 96.5t79.5 141.5q2 6 6.5 16.5l6 14t4 10.5t1.5 10t-2 7.5t-5 7.5t-9.5 6.5t-14.5 7.5q-12 5 -39 20.5t-49 27.5t-26 11q-2 -1 -26 -42.5t-64.5 -91.5t-81.5 -71q-78 -41 -168 -41q-50 0 -117 13 q-59 10 -104.5 62.5t-73.5 119.5q-8 19 -8.5 35t7 28.5t15.5 22t26.5 18.5t29.5 14t33.5 13.5t31.5 11.5q16 7 174 70t267 109.5t110 54.5q0 7 -20 33.5t-46 52.5q-59 62 -104 90q-67 40 -148 63t-149 15q-161 -19 -295.5 -122.5t-155.5 -254.5q-8 -55 -8 -117 q0 -142 60.5 -251.5t189.5 -198.5q116 -80 289 -80q161 0 280 67v-2zM1116 254q39 68 39 80q0 4 -6.5 13t-13 15.5t-7.5 4.5q-16 -54 -40.5 -101t-44 -73.5t-60.5 -75.5q12 15 65 66t68 71zM489 711q-157 -73 -167 -70q-11 7 -1 56t29 89q26 55 57 81.5t74 39.5 q65 23 135 23q55 0 100.5 -13.5t66.5 -34.5t10 -42q-6 -12 -69.5 -39t-145.5 -57t-89 -33zM578 899q-26 -8 -64.5 -55t-64 -89.5t-21.5 -41.5l328 137q29 13 -11 33q-53 25 -124 23q-24 -1 -43 -7zM373 774q-2 -5 -6 -14.5t-6.5 -16.5t-6 -16.5t-5.5 -16t-3.5 -12.5t-0.5 -9 t3 -3q4 0 10.5 2t17 6t17.5 6q3 1 8.5 13t12 26.5t8.5 18.5q18 30 35 53.5t23.5 31.5t24.5 26.5t19 19.5h-11t-26.5 -5.5t-37 -16.5t-39.5 -35t-37 -58z" />
<glyph unicode="f" horiz-adv-x="788" d="M735 1407q3 -11 0 -25q0 -76 -14 -90q-11 -3 -25 -2t-43.5 5t-38.5 5q-81 0 -120 -20q-32 -18 -56 -78t-26 -117q0 -77 2 -81t16 -14t16 -15q0 -1 23 -29q2 -2 12.5 -11t12.5 -11l2 -13l-2 -98q0 -22 -29.5 -23t-32.5 -4t-5 -11t-2 -15t0.5 -18.5t0.5 -14.5v-86 q1 -8 1 -35.5t1 -30.5q0 -5 -1 -18t-1 -18q1 -10 1 -26t1 -24v-18v-45q-1 -10 -1 -84.5t-1 -83.5q0 -242 -8 -252q-3 -3 -73 -5t-81 1q-10 3 -23.5 28t-15.5 38q-4 20 -4 32q2 23 2 72v72q-4 56 -8 174.5t-6 161.5q0 205 -10 213q-7 7 -36.5 -1t-35.5 -6q-5 1 -11 5.5 t-11.5 12.5t-10 14.5t-9.5 16t-7 11.5q-1 0 -11 14.5t-12 18.5q-6 18 -3 61t9 49q9 9 69 11.5t60 3.5q1 3 4 28t3 33q3 77 16 149q34 131 96 193q18 18 66 51q67 43 258 43q39 0 55 -16q11 -13 28.5 -40t18.5 -38zM715 1317q3 2 4.5 37.5t-2.5 50.5q-3 9 -17.5 27.5 t-17.5 15.5q-4 -3 -5 -36t1 -40q1 -5 9 -19t16.5 -25.5t11.5 -10.5zM686 1313q6 -2 -8 17q-12 18 -21 22q-12 6 -67 6q-102 0 -166 -86q-29 -36 -44 -108.5t-11 -159.5q0 -8 15 -6q4 2 5 3q0 144 31 222q34 88 135 94q64 7 131 -4zM649 1380q6 3 6 56q0 26 -4 32 q-3 3 -36.5 5.5t-82 1t-79.5 -10.5q-78 -25 -134 -84q-3 -5 -10.5 -13.5t-12.5 -16t-9 -15.5q-67 -123 -64 -284q0 -1 1.5 -20t1 -33.5t-4.5 -18.5q-3 -4 -64 -2.5t-71 -7.5q-6 -5 -5.5 -36.5t5.5 -37.5q3 -3 21.5 -6t41 -5.5t25.5 -2.5q5 0 13.5 -0.5t12.5 -1t10 -2t9.5 -4 t5.5 -7.5q5 -10 9 -165t4 -199q3 -36 6 -111.5t6 -111.5v-58q0 -119 4 -121q1 -2 8.5 -2.5t19.5 -0.5t19 -1q43 -7 47 -2q3 3 3.5 18t-0.5 41t-1 33v256q0 20 -1 142t1.5 208t11.5 89q8 3 23.5 2t25 -2.5t13.5 0.5q5 7 6.5 39.5t-8.5 48.5q-4 5 -33 5t-33 1q-12 8 -12 65 q3 77 18 148q9 43 21 67q16 31 53 68q58 52 137 57q15 1 35 -1t27 -2.5t14 3.5zM479 907q-1 3 -7 11t-12 14.5t-7 5.5q-6 -6 -11 -53v-25q0 -6 16 -19.5t19 -11.5q2 2 2.5 36t-0.5 42zM463 809q2 0 0 2q-39 47 -45 51q-4 2 -19.5 2.5t-19.5 -2.5q-1 -3 17 -27t26 -30 q7 -4 41 4zM406 788q-2 6 -9.5 19t-15 23t-8.5 8q-7 -8 -3.5 -374.5t7.5 -375.5q9 -17 22 -31q3 -3 4 -2v275l1 122q1 123 2 216t0 120zM383 31q1 1 -3 8t-10 14.5t-10 9.5q-5 2 -18 5l-12 2q-32 4 -39 4q-33 0 -35 -2q-3 -3 5 -21.5t13 -21.5q10 -5 58 -4.5t51 6.5z M201 823q2 12 2 20t-2.5 12t-6 6t-8 2.5t-10.5 0.5h-12q-23 2 -68 2q34 -51 39 -53q9 -4 25 4q35 5 41 6z" />
<glyph unicode="g" horiz-adv-x="1196" d="M1083 965q29 -431 27 -691q0 -431 -127 -643q-118 -200 -491 -213q-284 -9 -379 275q-5 14 -13.5 37t-12 35.5t-3.5 21.5q0 16 13.5 26t47.5 19q18 4 45 14.5t45.5 14.5t34.5 0q18 -5 97 -76q7 -6 22 -42.5t27 -53.5q49 -72 102 -72q34 0 98 31q78 40 123 159 q12 36 30 130t9 106q-2 4 -27 -6.5t-67.5 -26.5t-75.5 -20q-78 -10 -110 -10q-40 0 -69 9t-75 31q-138 69 -202.5 172t-90.5 269q-8 44 -8 102q0 120 41.5 229t122.5 183q110 104 318 104q158 0 262 -61q0 6 -1 18t-1 18.5t7 11t21 3.5q18 -1 60.5 1.5t67.5 3.5t44 -3 q31 -14 59 -47t29 -59zM776 76q4 3 3.5 18t-3.5 17q-1 0 -14 -7t-28.5 -15.5t-20.5 -10.5q-48 -24 -132 -43t-157 -19q17 -14 59 -14q66 0 170 30t123 44zM305 -195q-2 -9 23.5 -63.5t50.5 -83.5q20 -23 72 -49q-59 37 -99 155q-2 5 -13.5 15.5t-22.5 18.5zM336 -524 q65 -23 143 -23q95 0 188 33t156 92q37 33 66.5 79.5t49 91t34 109t22 109t13 119t7 111.5t3 113t2.5 98q0 16 1 47t1 47q0 165 -16 368q0 4 -1.5 50.5t-5 82.5t-8.5 39q-12 6 -83 3.5t-74 -7.5q0 -1 2.5 -30.5t-2.5 -30.5q-8 -6 -41.5 6.5t-71.5 29.5t-49 19 q-83 17 -148 17q-8 0 -65 -5q-101 -9 -182 -64t-125 -146q-56 -109 -56 -273q0 -140 44 -261t124 -173q110 -70 228 -70q70 0 147 27q9 3 45 19t67.5 29t36.5 11q21 -11 21 -71q0 -18 -2 -44t-2 -30q-12 -264 -150 -363q-72 -53 -166 -53q-105 0 -149 76q-10 17 -31.5 60.5 t-39 77t-21.5 36.5q-7 4 -66.5 -16t-64.5 -31q-3 -7 5.5 -35t27.5 -68.5t44.5 -81t63.5 -75.5t78 -49zM1040 764l2 -51q5 -250 5 -299q0 -198 -15 -404q-28 -385 -299 -526q71 13 146 78t104 131q75 174 88 493q4 102 4 176q0 121 -4 267t-9 238.5t-7 99.5q-8 23 -23 40 q-5 5 -6 3q-3 -3 0 -44t8 -103.5t6 -98.5zM561 911q64 1 110 -20t70.5 -54t38 -84.5t16.5 -99t1 -110.5q-7 -157 -85 -256t-227 -92q-139 7 -212.5 110t-65.5 266q7 138 94.5 230.5t222.5 107.5q3 0 19 1t18 1zM354 268l-4 8l-12 21t-16 30.5t-15.5 35t-11.5 32.5 q-12 40 -12 105q0 120 47 205q54 97 123 129.5t178 27.5q7 -1 23 -3.5t28.5 -4.5t13.5 -2q2 0 -4.5 5.5t-19.5 12t-27 9.5q-42 6 -72 6q-43 0 -83 -8.5t-86.5 -29t-86 -65t-63.5 -108.5q-14 -41 -14 -121q0 -130 22 -176q12 -25 34.5 -52t38.5 -42t19 -15zM766 625v17v23.5 t-0.5 25.5t-2 28t-3.5 27t-6 25.5t-9.5 21t-13.5 16.5t-18 8q-100 25 -154 17q-19 0 -33 -7q-102 -25 -159.5 -121.5t-57.5 -211.5q0 -110 55.5 -187.5t157.5 -77.5q34 0 84 13q36 11 64 34.5t44.5 58.5t27.5 68t15.5 79t6 74t2.5 69z" />
<glyph unicode="h" horiz-adv-x="892" d="M813 170q5 -104 -2 -113q-9 -9 -51 -16q-108 -20 -119 -16q-4 1 -14.5 13.5t-22.5 29.5t-16 22q-4 6 -6.5 14t-3 19t-1 19t0 23t0.5 21q0 9 -1.5 67.5t-4 101.5t-9 109.5t-21.5 136t-36 136.5q-11 40 -36.5 57.5t-41.5 2.5q-33 -33 -54.5 -141.5t-26 -229t-6.5 -235 t3 -158.5q0 -6 -2.5 -11t-8 -8l-11 -6t-15.5 -4t-16.5 -2t-17.5 -1.5t-16 -0.5h-15h-11h-33.5t-24 1t-18 4.5t-17 11.5t-19.5 22q-10 13 -22.5 41t-12.5 41q-2 38 -8 309.5t-6 364.5q-1 95 -15 581q-3 98 -2 99q3 7 109 20q27 3 45 -6q13 -6 50.5 -44.5t39.5 -47.5 q1 -6 12 -162.5t13 -190.5q61 4 81 3q82 -5 157.5 -42.5t119.5 -101.5q45 -63 72.5 -132.5t39 -151.5t15 -140t4 -159t2.5 -146v3v-7zM272 1384q-1 2 -14 18.5t-27 32.5t-16 15q-4 -2 3 -212.5t15 -213.5q4 -2 29.5 4.5t28.5 11.5q3 4 -7 172t-12 172zM303 31q3 4 -15.5 30 t-27.5 31q-8 3 -68 -2.5t-61 -11.5t14 -27.5t21 -23.5q2 -2 67 -1.5t70 5.5zM328 498q1 32 4.5 64.5t7 58.5t8.5 50t9 41.5t7.5 30.5t5.5 19l1 6q-16 -23 -28.5 -51.5t-20.5 -50.5t-14 -59t-9.5 -54.5t-5.5 -61t-2.5 -53.5t-1 -57.5t-0.5 -48.5q-11 -211 -8 -217 q4 -5 12 -16.5t13 -17.5t7 -3q4 3 7 94t5.5 203.5t2.5 122.5zM610 127q2 -2 48.5 5.5t52.5 10.5q10 6 10 29q4 152 4 227q2 169 -24 293t-105 236q-33 45 -82.5 65t-99 18t-103.5 -7q-17 -2 -38.5 -6.5t-29.5 -5.5t-18 0t-13 9t-6 21.5t-5 38.5q-7 87 -9 191t-3.5 157 t-6.5 57q-7 5 -53 0.5t-47 -10.5q-1 -1 7.5 -278t17 -608.5t8.5 -436.5q0 -15 67.5 -18t69.5 12q1 31 2 111.5t2 111.5q2 137 15.5 231.5t54.5 174.5q17 34 45.5 58t63 28t65.5 -33q42 -50 66.5 -166t30.5 -224.5t8.5 -198.5t4.5 -93zM770 72q0 3 -4.5 7.5t-11.5 11 t-11 11.5q-20 20 -22 21q-7 2 -57.5 -9t-51.5 -16q-2 -3 11 -23t20 -26q6 -5 66 6t61 17zM782 117q-3 92 0 162t1.5 159t-11.5 162q-14 110 -51 191q-27 63 -70 106q36 -32 64 -168t33 -262q2 -21 -1.5 -139t-7.5 -191q-1 -5 0.5 -8.5t7.5 -8.5t9 -9q20 -19 23.5 -18t2.5 24 zM813 174l1 -5l-1 1v4z" />
<glyph unicode="i" horiz-adv-x="450" d="M289 1466q0 -5 1 -47.5t1 -70.5q0 -93 -8 -101q-2 -2 -82.5 -7.5t-89.5 -2.5q-4 1 -13 11.5t-20.5 25.5t-18.5 22q-8 11 -8 64q0 44 6 97t11 59q10 10 24 10q29 3 78.5 1.5t60.5 -7.5q15 -5 36.5 -21.5t21.5 -32.5zM94 1489q-7 -4 -10.5 -77t2.5 -77q4 -1 45 1t64 5 q9 0 14 9q2 4 1 71.5t-5 71.5q-6 5 -54 3.5t-57 -7.5zM246 1272q2 3 -11.5 21t-17.5 18q-115 0 -119 -11q-3 -6 8.5 -20.5t20.5 -19.5q5 -3 60.5 2.5t58.5 9.5zM270 1294q3 12 2 34.5t-3.5 65.5t-2.5 58q0 7 -14 20t-19 11q-5 -3 -3 -76.5t8 -79.5q3 -4 8.5 -10t8.5 -10 t6.5 -7.5t5.5 -5t3 -0.5zM367 143q7 -124 -2 -131q-5 -5 -89 -8q-88 -5 -108 0q-5 2 -26.5 25.5t-22.5 29.5q-2 4 -10.5 91t-17 200t-11.5 176q-3 59 -8 377v60q0 106 10 114q8 8 86 8q53 0 63 -4q35 -13 63 -36.5t38 -40.5q11 -15 18 -187t11.5 -406t5.5 -268zM152 115 q4 -13 8 -17q9 -5 57.5 0.5t58.5 12.5q7 5 7 30q-2 128 -13 443.5t-18 406.5q-2 37 -6 46t-23 12q-11 3 -48.5 4.5t-45.5 -0.5q-26 -4 -29 -21q-2 -34 0.5 -118.5t1.5 -102.5q0 -105 17 -358q13 -242 33 -338zM326 35q1 4 -12.5 23.5t-18.5 21.5q-6 3 -66 -4t-63 -10 q-2 -4 8.5 -21t18.5 -20q9 -2 69.5 0.5t63.5 9.5zM346 66q3 3 -0.5 92t-9.5 223.5t-8 202.5q0 49 -7 224.5t-10 184.5q-4 7 -16.5 21.5t-15.5 11.5q-7 -10 26 -686q0 -68 6 -227q0 -4 7.5 -16.5t16 -23t11.5 -7.5z" />
<glyph unicode="j" horiz-adv-x="649" d="M233 1274q-22 37 -22 59q0 5 -1 28.5t-1 39.5q0 107 12 112q7 7 111 7q38 0 92 -4q19 -3 63 -58q8 -14 2.5 -123t-12.5 -114t-160 4q-14 1 -23 1.5t-17 3.5t-11.5 3.5t-9 6.5t-6.5 7.5t-8 12.5t-9 14zM434 1466q-4 -23 -5.5 -78t1.5 -65q2 -9 8 -23t12 -24.5t9 -9.5 q4 3 5.5 83.5t-1.5 84.5q-10 15 -19 26t-10 6zM420 1241q8 7 -5 38.5t-20 35.5q-6 5 -71.5 7.5t-73.5 -1.5q-4 -3 11 -29t20 -30q8 -5 70.5 -14.5t68.5 -6.5zM248 1481q-8 -5 -10 -58t8 -61q9 -7 77 -11t74 1q9 9 8 62t-10 61q-15 12 -78 12q-57 0 -69 -6zM555 856 q10 -61 10 -151q-4 -120 -8 -336q-8 -403 -82 -645q-19 -63 -70.5 -117.5t-115.5 -87.5q-179 -81 -209 -39q-27 42 -27 86q0 13 2.5 40t3.5 38q0 4 1 10q4 41 12 50.5t47 16.5q54 13 94 74q27 44 44.5 97t25.5 116.5t11 110.5t5 121.5t4 107.5q1 28 7 127.5t7 153.5 q0 133 -4 141q-3 5 -9.5 8t-12.5 4t-19 2t-20 2q-68 7 -72 9q-42 33 -57 90q-8 31 -4 97t8 73q5 8 33 14h-1h3q31 6 100 6q25 0 72.5 -1t68.5 -1q33 0 50 -14q9 -6 29.5 -42.5t38.5 -73t20 -38.5q11 -18 14 -49zM311 803q3 1 2.5 12.5t-4.5 25.5t-8 15q-35 8 -80 12t-55 0 q-5 -3 3.5 -21t14.5 -22q2 -2 26 -5.5t55.5 -8.5t45.5 -8zM129 -307q-2 -1 -11.5 -3.5t-16 -6t-9.5 -7.5q-6 -9 -6 -67q0 -63 6 -66q9 -5 62 10.5t88 32.5q10 5 34 21q28 19 50.5 45t37.5 47.5t28.5 60t20 57.5t14.5 67.5t10 62t9 67.5q27 186 27 570q0 84 -17 268.5 t-40 185.5q-18 2 -78 2q-150 0 -174 -6q-8 -5 -8 -73q0 -59 6 -62q2 -1 83 -5t89 -11q6 -4 10 -41.5t2 -71.5q-1 -77 -7.5 -224t-8.5 -235q-1 -100 -4.5 -167t-18.5 -160.5t-41 -159.5q-21 -50 -56 -86.5t-81 -44.5zM530 543q0 316 -8 336q-8 19 -25 55.5t-18 36.5 q-4 0 0 -54t11.5 -133t9.5 -112q4 -114 4 -168q0 -86 -6 -168q-2 -32 -6.5 -114t-9 -142.5t-11.5 -118.5q-10 -68 -16 -103t-23.5 -91.5t-42.5 -96.5q-40 -62 -110 -95.5t-164 -55.5q-1 0 -3 -1t-4.5 -3.5t-1.5 -6.5q5 -14 16 -15.5t40 5.5q171 56 254 178q21 31 36.5 70.5 t26.5 100t15 86t12 104.5t8 80q16 161 16 426z" />
<glyph unicode="k" horiz-adv-x="770" d="M711 61q13 -36 6 -47q-4 -4 -67 -24.5t-68 -18.5q-8 1 -56 49q-16 16 -43 105q-16 43 -38.5 123t-28.5 100q-20 75 -68 189q-10 20 -12 20q-5 4 -20 -14q-2 -3 -3 -4q-16 -22 -16 -43q0 -27 8 -179q4 -67 7 -171t3 -111q3 -46 -4 -55q-7 -7 -80 -20t-88 -3 q-12 6 -37.5 46.5t-25.5 53.5q-2 24 -9 243.5t-8 332.5q-1 61 -2 255t-6 300q-2 42 -1 127.5t-1 128.5q-1 23 0 34.5t9 16.5t14 5.5t27.5 -0.5t37.5 -1q46 2 86 -26q1 -1 9.5 -7t11.5 -8.5t8.5 -7.5t8 -9t3.5 -7q9 -113 11 -183q8 -168 8 -245q-1 -17 1 -106.5t1 -111.5 q0 -5 51.5 55.5t69.5 82.5q94 118 110 118q7 0 37 -25.5t43 -41.5q36 -45 18 -74q-13 -21 -46.5 -69t-57.5 -83.5t-25 -41.5q0 -1 5 -21q17 -56 88 -252q68 -188 129 -375zM588 950q-10 -10 -80.5 -108t-69.5 -101t15 -7.5t16 -2.5q9 0 18 17q31 38 70 93.5t47 76.5 q3 10 -2 20q-1 1 -2 4q-7 12 -12 8zM223 1446q-2 2 1.5 -98t7.5 -239.5t4 -205.5q1 -43 -0.5 -92t-2 -61.5t2.5 -22.5q11 5 21.5 16.5t10.5 18.5q-1 16 -4.5 185.5t-7.5 321.5t-6 154q-4 7 -27 23zM156 -25q3 -2 33.5 2.5t60 10t29.5 6.5q0 5 -18 24t-25 19q-13 -2 -53 -5 q-66 -7 -66 -12q27 -37 39 -45zM293 20q1 6 0.5 44.5t-2 91t-4 113t-4 111t-3.5 84.5l-1 34q-1 3 -23 7.5t-25 2.5q-2 0 3 -93t10.5 -199t5.5 -126q0 -33 2 -37q4 -5 22 -20.5t19 -12.5zM276 516q4 0 26 33.5t20 38.5q-4 8 -6.5 12.5t-7 8.5t-9.5 3q-4 0 -33 -38.5 t-28 -43.5q2 -3 16.5 -8.5t21.5 -5.5zM481 197q47 -146 51 -150q4 -3 45 6.5t44 14.5q3 3 -50.5 157t-109 315.5t-55.5 178.5q-1 7 2.5 15t7 13.5t10 13.5t8.5 11q8 12 44.5 63t65 92t27.5 44q-2 7 -23.5 26.5t-25.5 16.5q-15 -6 -49 -49q-80 -102 -115 -142 q-13 -14 -39 -46t-48 -55.5t-44 -39.5q-13 -10 -16 6q-2 8 -3.5 174t-4 349.5t-6.5 224.5q0 27 -7 34q-8 6 -55 7.5t-53 -4.5q-3 -3 6.5 -546t13.5 -675q1 -22 1 -74t0.5 -87.5t2.5 -37.5q6 -6 56.5 -3t56.5 9q10 11 -6 301q0 20 -1 59.5t-1 57.5q-3 22 0 41q0 7 8 19 q20 37 64 90q6 8 16 11t16 -3q12 -11 25 -35.5t26.5 -57.5t23 -58t20.5 -57.5t12 -35.5q28 -80 59 -194zM678 18q2 9 -33 27q-8 0 -50.5 -6.5t-45.5 -9.5q-1 -3 10.5 -17t20.5 -20q5 -2 51.5 9.5t46.5 16.5zM696 41q0 4 -48.5 144.5t-106 306t-66.5 192.5q-5 15 -18 23 q-2 1 -9.5 5.5t-9.5 5.5t-4 -1q0 -8 7.5 -34.5t11.5 -33.5q173 -510 184 -547q5 -33 18 -41q38 -25 41 -20z" />
<glyph unicode="l" horiz-adv-x="438" d="M385 176q6 -6 6 -12q-2 -12 -35 -85t-41 -79q-5 -3 -48.5 4.5t-45.5 9.5q-43 14 -67 35q-37 37 -61 141t-32.5 226t-9.5 274.5t3 263t9 216.5t5 112q0 9 1 44t2 59.5t4 55t7 46.5q2 5 16 8q37 7 87.5 8.5t68.5 -6.5q10 -5 17 -11t14 -16.5t8.5 -14t9.5 -17.5 q2 -4 -1.5 -91.5t-8 -202t-4.5 -165.5q-7 -612 26 -698q18 -46 47 -78q4 -8 23 -27zM221 43q11 2 43 59.5t21 71.5q-26 33 -42.5 90.5t-19.5 108.5q-16 229 -10 497q3 80 11.5 240t11.5 240q0 6 2 41t2 61t-4 29q-7 4 -63.5 -0.5t-61.5 -7.5q-2 -3 -4.5 -46.5t-7.5 -129.5 t-9 -142q-12 -204 -6 -403q0 -4 -0.5 -74t2 -145t8.5 -165t23 -167t43 -117q7 -13 30 -28t31 -13zM340 90q27 62 27 64q-41 6 -43 6q-4 0 -19 -31q-8 -12 -29 -50.5t-20 -41.5q3 -6 22 -11.5t25 -2.5q3 0 19 30.5t18 36.5zM362 174q1 0 -5.5 8.5t-8.5 10.5 q-25 27 -40.5 59.5t-22 71.5t-8.5 60.5t-3 59.5q-8 294 -8 418q0 17 3.5 119.5t8 236t5.5 183.5v41q-18 23 -21 22q-7 -12 -16.5 -345.5t-7.5 -530.5q0 -344 71 -400q7 -7 13 -10q3 -3 21 -4.5t19 0.5z" />
<glyph unicode="m" horiz-adv-x="1462" d="M1384 145q2 -27 2 -106q-2 -5 -18 -8q-4 -1 -36 -10t-50 -15q-19 -6 -27 2q-42 36 -61 78q-10 22 -10 111q0 19 -2 57t-2 57q-1 16 -2 59t-2 63t-3 58t-4.5 63t-7 57.5t-10.5 60.5q-18 101 -68 135q-33 22 -70.5 -0.5t-49.5 -58.5q-17 -62 -17 -158q-3 -20 -14 -25 q-27 -9 -105.5 -0.5t-105.5 17.5q-6 1 -24.5 28t-30.5 49q-15 25 -15 50q-4 96 -35 135q-20 25 -61.5 28.5t-65.5 -16.5q-119 -93 -137 -244q-19 -164 -10 -319q2 -59 2 -172q0 -77 -18 -90q-10 -8 -93 -13t-118 5q-6 2 -11 6t-10 11t-8 12t-8 14.5t-6 11.5q-9 20 -9 80 q0 78 -5 220t-5 212q0 33 -1 157.5t-0.5 192.5t3.5 72q4 2 6 2q6 1 22 4.5t24 5t22.5 2.5t24.5 0t22.5 -4.5t22.5 -9.5q9 -5 26.5 -17.5t26.5 -17.5l20 -10q21 20 31 30q61 54 151.5 72t149.5 10q98 -17 139 -45q24 -18 41 -45q8 -13 11 -13.5t18 7.5q11 7 40 28.5t46 30.5 q20 11 50.5 20.5t80.5 11t98.5 -13.5t102.5 -63t94 -127q24 -46 41 -161q15 -94 18 -191q2 -54 0.5 -186.5t-0.5 -186.5zM768 956q-8 26 -29 46t-51 26q3 -5 20 -26t25 -37q1 -2 3 -8.5t4 -11t4.5 -10.5t4.5 -7t5 0q1 1 4 5.5l5 7.5t4 7.5t1 7.5zM240 958q-40 22 -45 23 q4 -24 8 -72q2 -16 6 -16q11 3 26 20t23 31q1 2 -2 4.5t-9 5.5t-7 4zM293 51q6 6 -35 47l-12 4q-14 0 -78.5 -3.5t-67.5 -6.5q-8 -10 17 -41q5 -9 18 -12q16 0 84.5 4.5t73.5 7.5zM317 592q4 23 12 57.5t35.5 97.5t61.5 89q-47 -14 -81 -91.5t-48 -171.5q-1 -5 -4.5 -57 t-6.5 -125.5t-1 -118.5q1 -19 0 -56t-2.5 -69.5t-1.5 -35.5q2 -4 15 -18.5t17 -14.5q5 0 5.5 17t-1.5 24q-1 30 -5 138t-3 167q0 113 8 168zM909 586q13 0 -29 44q-14 15 -20 19q-17 10 -75 12.5t-83 -2.5q-3 0 4 -13.5t19 -27.5t20 -14q4 0 35.5 -3.5t71 -8t57.5 -6.5z M971 799q17 17 63 41q-82 11 -121 -82q-3 -7 -8 -19t-9 -21t-8 -18.5t-6 -17t-1 -10.5q0 -6 21 -34t24 -26q1 2 0 15.5t1 38t5 49t13.5 48t25.5 36.5zM1200 483q0 -35 7 -210.5t12 -180.5q7 -5 43 -1.5t43 9.5q6 6 0 76v356q0 10 -0.5 76.5t-4.5 102.5q-8 99 -37 169 t-68.5 103t-82.5 49.5t-85 14t-70 -8.5t-42 -14q-64 -31 -116 -90q-5 -6 -14.5 -19.5t-16 -22t-14.5 -14t-15 1.5t-12 27q-22 84 -84 118t-135 20.5t-143.5 -53t-112.5 -93.5q-51 -64 -62 -45l-2 4q-13 43 -20 113q0 19 -8 22q-4 3 -29 0t-35 -6q-10 -4 -8 -431t10 -437 q2 -4 70 -1.5t78 9.5q5 3 7 106.5t8 231.5t18 178q25 97 66.5 156t113.5 84q67 23 129 8q34 -8 52 -31t30 -61q3 -10 7 -37t8 -49t7 -25q5 -5 79.5 -6.5t80.5 4.5q9 6 35 76q31 79 90 96q44 13 82.5 -2t64 -48.5t41.5 -73t21 -79.5q12 -112 14 -172zM1270 27q8 -2 45.5 7 t40.5 13q1 4 -14.5 17t-26.5 16q-10 2 -45.5 -1.5t-38.5 -8.5q-2 -5 14.5 -24t24.5 -19zM1366 76q3 4 3 32.5t-1.5 66.5t-1.5 46q0 59 -4 191q0 155 -8 204q-1 7 -4 37t-5 43t-6 39.5t-7.5 41.5t-9.5 32t-13 27q12 -46 16 -113q7 -41 7 -235t-3 -273q0 -15 -1 -42t-1 -44 q0 -27 4 -33q5 -6 13 -11.5t14.5 -8t7.5 -0.5z" />
<glyph unicode="n" horiz-adv-x="978" d="M897 391q0 -10 2.5 -49t5 -85t4.5 -92t1 -76.5t-5 -31.5q-166 -34 -215 -8q-4 1 -20 32t-21 46q-6 18 -6 45q1 29 4.5 118.5t3.5 137.5q0 83 -1 127t-14 120t-38 120q-20 36 -47 43.5t-50.5 -7.5t-45.5 -45q-51 -71 -54 -217q-1 -28 -5 -102t-5.5 -111.5t-3 -98 t-1 -112.5t2.5 -104q1 -9 -51 -20t-109.5 -16.5t-70.5 -0.5q-9 2 -15.5 6t-12 10.5t-8 11t-8 15.5t-8.5 16q-4 8 -5.5 53t-1.5 101t-1 68q-37 832 -47 880q-5 21 156 21q27 -4 35 -12q38 -25 75 -76q9 -6 2 -72q93 42 180 47.5t158 -24.5t123.5 -98t75.5 -167 q41 -173 41 -393zM240 1126q7 -48 12 -159q1 2 25 22t24 23q0 76 -12 84q-37 28 -49 30zM139 76q-2 0 2.5 -11t12.5 -22.5t14 -13.5q7 -2 78.5 10t81.5 12q-6 15 -17 34t-16 19q-14 -1 -84 -14.5t-72 -13.5zM358 74q1 1 -2 142.5t7.5 315t44.5 242.5q-76 -85 -86 -334 l-3 -55q-1 -20 0.5 -119t-2.5 -127q2 -10 11.5 -26.5t19 -28t10.5 -10.5zM682 215q-4 -44 2 -53q4 -8 60.5 -6t68.5 12q3 3 -2.5 155.5t-11.5 243.5q-1 10 -3.5 44.5t-4 47t-4.5 43t-5.5 46.5t-7.5 43t-10 46t-12.5 41.5t-16.5 43.5q-25 56 -77.5 87.5t-118.5 37.5 q-53 7 -140 -31q-42 -16 -155 -98q-5 -4 -10 23q-4 25 -12 104q-10 103 -15 104q-22 2 -67 -2t-52 -12q-4 -5 4.5 -124t20.5 -268t14 -194q1 -58 2 -173t2 -173q0 -11 0.5 -26.5t1 -26l1 -21t2 -17t3.5 -8.5q5 -6 70.5 7t69.5 22q5 7 5.5 30t-0.5 66.5t-1 57.5q0 234 43 397 q12 49 49 97.5t92 75t106 3.5q23 -11 41 -29t29 -46t19 -50.5t12 -60.5t6 -56.5t4 -57.5t2 -46q7 -185 -4 -299zM743 74q119 0 127 10q5 8 -18 31t-33 22q-127 0 -133 -8q-2 -6 2 -18.5t19 -24.5t36 -12zM881 123q3 28 2 67t-7.5 140t-7.5 129q-2 84 -22 206.5t-47 194.5 q5 -23 10.5 -80.5t8.5 -103.5l3 -47q6 -83 13 -245t6 -198q2 -14 11.5 -30t18.5 -25t11 -8z" />
<glyph unicode="o" horiz-adv-x="1206" d="M872 539q-3 -101 -35 -186t-97 -139t-150 -48q-163 12 -259 107.5t-95 256.5q2 162 79 273.5t224 124.5q79 7 139.5 -11.5t97.5 -54t59.5 -89t30.5 -110.5t6 -124zM330 748q-62 -135 -62 -250q0 -116 62 -189q-37 109 -37 201q0 141 80 246q46 62 143 104q38 14 86 14 q28 0 111 -10q-41 33 -119 33q-80 0 -155.5 -38t-108.5 -111zM633 201q60 10 103.5 50t64.5 99t30.5 115.5t10.5 116.5q0 62 -17.5 129.5t-56.5 93.5q-27 18 -74 29.5t-92 11.5q-52 0 -82 -15q-56 -25 -97 -73t-62 -106.5t-28 -119.5t-1 -120q12 -107 74 -162t161 -55 q31 0 66 6zM1124 510q6 -119 -26 -202t-113 -171q-61 -67 -179 -107t-212 -32q-226 15 -366 157.5t-171 372.5q-4 23 -4 70q0 193 129 340q70 83 164 113t221 28q124 -3 240 -43.5t184 -120.5q118 -133 133 -405zM111 455q44 -200 194 -305q51 -36 140 -58t171 -22 q53 0 86 8q174 42 274.5 180.5t100.5 314.5q0 56 -12 115q-16 83 -74 172q-32 50 -117.5 104.5t-199.5 69.5q-52 8 -111 8q-138 0 -236 -45t-151 -114q-84 -110 -84 -271q0 -60 19 -157zM793 57q63 26 110.5 56t94 77.5t73 117.5t29.5 159q-20 -61 -39.5 -109t-28.5 -66 l-10 -18q-50 -78 -117.5 -127.5t-161.5 -85.5q-56 -20 -125 -20q-132 0 -311 72q158 -88 309 -88q99 0 177 32z" />
<glyph unicode="p" horiz-adv-x="1017" d="M53 -688q-4 8 -1.5 868t9.5 869q7 11 66 21.5t96 10.5q17 0 54.5 -34t39.5 -35q15 -6 50 14q122 68 276 37q65 -13 130.5 -66.5t105.5 -117.5q100 -165 75 -433q-6 -62 -16 -111t-37.5 -107.5t-70 -101t-116 -80t-171.5 -56.5q-139 -19 -146 -35q-3 -7 -4 -79.5 t-1.5 -178.5t-2.5 -158q-5 -105 -15 -206.5t-18 -108.5q-7 -5 -117 -16.5t-120 -4.5q-23 12 -41.5 42.5t-24.5 66.5zM295 993q4 3 -10 17t-31.5 25.5t-22.5 8.5q-3 -4 0.5 -33t6.5 -34q1 -2 15 2t28 9zM322 12q2 -1 12.5 -6t17.5 -8t17 -5t16 -1q72 12 119.5 22.5 t118.5 33.5t125.5 61t89.5 90q69 104 87.5 248.5t-9.5 266t-87 179.5q52 -107 60 -217q5 -96 -1.5 -176t-20.5 -139t-40.5 -106.5t-53 -79t-66.5 -56t-72 -37t-78.5 -23t-78 -14.5t-78 -9t-70.5 -9q-5 0 -11 -4.5t3 -10.5zM295 -676q3 -13 28 -39q13 -13 15 -8q3 3 9 120 t9 232q13 280 13 314q-1 12 -29.5 26.5t-34.5 10.5q-7 -4 -11 -325.5t1 -330.5zM84 -702q-4 -4 15.5 -36t25.5 -34q7 -3 103.5 2.5t97.5 11.5q2 4 -25.5 31t-34.5 29q-9 2 -94 0.5t-88 -4.5zM90 479q-6 -742 -2 -1145q2 -9 81 -4t87 11q3 3 5 114.5t3.5 279t1.5 197.5 q0 2 -0.5 19t0 27.5t1.5 26t4.5 26.5t9.5 18q16 18 137 25q60 3 111 14.5t89 27t69.5 39.5t53 46t39 52.5t27.5 53.5t18 54.5t11.5 50.5t7.5 47t6 37q9 49 10.5 104.5t-5.5 115t-27 113.5t-50.5 98.5t-80 73t-111.5 33.5q-78 7 -139 -11t-144 -62q-64 -35 -88 -21 q-5 4 -7 28t-2 50t-1 29q-2 8 -49 -1.5t-60 -19.5q-3 -2 -4.5 -45t-2 -115t-0.5 -137t0.5 -145t0.5 -105zM274 762q4 30 25 35q150 24 193 22q82 -4 137 -59.5t61 -130.5q7 -92 -15 -166.5t-64.5 -122t-92 -76t-104.5 -39.5q-28 -7 -65 -8t-62 8q-6 4 -9.5 220t-3.5 317z M385 662q2 -28 10.5 -117t14 -161.5t6.5 -117.5q32 4 73.5 21.5t63.5 44.5q48 53 75.5 123t26.5 135q0 19 -3.5 36t-13 36t-28.5 32t-46.5 21.5t-71 7t-99.5 -13.5q-13 -4 -8 -47zM365 733q1 0 15 5.5t36 10t51.5 6.5t70.5 -6.5t83 -27.5q-20 34 -57.5 52t-77 20t-77 -2 t-61 -11t-24.5 -10t17.5 -20t23.5 -17zM307 741q-3 -1 6.5 -228.5t12.5 -252.5q0 -3 11 -4.5t22 -0.5t12 5q3 7 -5 223.5t-14 223.5q-2 6 -21 21.5t-24 12.5z" />
<glyph unicode="q" horiz-adv-x="1052" d="M1155 -113q4 -15 -6 -110q-3 -10 -229 -25q-13 -413 -27 -424q-27 -16 -98 -13.5t-88 9.5q-11 5 -34.5 46t-23.5 59q0 188 2 313h-39h-90q-10 2 -21 7t-18.5 10.5t-24.5 17.5t-30 20q-19 12 -19 96t15 87q17 5 55.5 6t99 -0.5t76.5 -1.5q0 51 1 111.5t1 64.5q0 5 -141 -2 q-191 -10 -334 110q-78 64 -109.5 154t-19.5 179.5t48.5 175.5t90.5 151.5t111 99.5q50 29 99 41t98.5 6.5t92 -18t95.5 -35.5q0 4 1 15t1.5 17t3 12.5t6.5 10.5q11 7 83.5 3t93.5 -11q16 -6 46 -52t33 -65q2 -35 2.5 -40.5t-2 -42t-2.5 -40.5q-4 -152 -4 -206 q0 -51 -8.5 -299.5t-11.5 -292.5v-39q0 -4 4 -4h100q31 0 72 -47q4 -4 14 -13t15.5 -15t11.5 -13t8 -13zM887 737q-2 -27 -25 -751q27 0 39 2q31 943 31 944q-1 7 -4.5 18t-8.5 22t-10 20.5t-9.5 15t-6.5 4.5q-3 -2 -3.5 -52.5t-0.5 -120.5t-2 -102zM655 201q6 2 4 23 q-2 9 -6 9q-170 -48 -358 -4q90 -52 258 -43q85 11 102 15zM530 -229q10 -3 121 0v36q-76 -2 -184 -2q0 -5 23 -16.5t40 -17.5zM682 -498q0 -65 16 -67q71 -7 115 -2q8 0 8 43q3 51 5.5 143.5t3 158t1.5 66.5q2 3 56 4.5t107 2t53 2.5q5 8 5.5 52t-3.5 46q-7 4 -109.5 2.5 t-103.5 -0.5q-2 2 0.5 104t6 250.5t1.5 231.5q0 65 4.5 182t5.5 164q5 114 4 143q0 16 -61 18.5t-66 -4.5q-6 -5 -7.5 -37.5t-2.5 -33.5q-7 -1 -14 0t-19 6t-20 9t-17 9.5t-10 5.5q-68 33 -123 40t-123 -13q-72 -23 -134.5 -80.5t-102.5 -135t-57.5 -161t-0.5 -168 t70 -147.5q74 -88 240 -100q69 -5 138 6t91.5 19.5t48.5 -1.5q4 -3 3.5 -153.5t-5.5 -153.5q-2 -2 -120.5 -3.5t-119.5 -4.5q-4 -13 -3.5 -54t3.5 -51q1 -3 60.5 -1t111 4.5t62.5 -1.5q4 -4 4 -74t-1.5 -157.5t-0.5 -108.5zM858 -649q3 4 -13.5 26t-23.5 25q-8 5 -60.5 5.5 t-58.5 -3.5q-4 -5 8 -28t17 -25q14 -4 68.5 -5.5t62.5 5.5zM846 -590q1 -6 8 -15t14 -15.5t9 -4.5t16 379q-6 6 -17.5 19.5t-17.5 19.5q-1 -42 -4.5 -139t-6 -169t-1.5 -75zM907 -221q38 1 82 2.5t72.5 2.5t38.5 1q-4 9 -21 19t-28 12q-8 2 -172 -2q23 -28 28 -35z M1128 -199q4 1 6 38.5t-1 41.5q-10 19 -54 49q1 -6 1 -46.5t1 -43.5q2 -5 22.5 -22.5t24.5 -16.5zM522 889q103 9 178 -80q26 -30 32 -89t-1 -136q-3 -43 -6 -69.5t-15.5 -64t-33.5 -61.5q-39 -44 -108 -64t-132 -12q-111 13 -163 97.5t-42 199.5q10 125 86.5 196.5 t204.5 82.5zM260 541q4 -41 20 -89t42 -63q-35 64 -39 138t16.5 131t54.5 90q57 57 115.5 76.5t163.5 9.5q-52 21 -102 22t-88.5 -14.5t-64 -32t-44.5 -35.5q-15 -17 -31.5 -42.5t-32.5 -80.5t-10 -110zM698 635q6 109 -30 149q-18 22 -82 24t-105 -9q-56 -12 -99.5 -68.5 t-59.5 -130.5q-15 -77 2.5 -148t58.5 -96q63 -41 176 -4q31 11 54 26.5t37.5 37.5t23.5 41t13.5 51t6 51.5t3.5 56.5q1 13 1 19z" />
<glyph unicode="r" horiz-adv-x="733" d="M670 961q1 -27 -6 -67t-15.5 -68t-11.5 -29q-11 -3 -100 -13q-54 -6 -95 -32t-64.5 -63t-38 -89.5t-19.5 -102t-5 -108.5q0 -60 6 -153.5t5 -118.5q0 -82 -11 -86q-15 -3 -71 -16.5t-84 -14.5q-17 -1 -33 11.5t-23.5 24t-21.5 36.5q-3 5 -5.5 84.5t-2.5 113.5 q-1 87 -10 251t-11 237v237q0 54 2 64q1 5 4 8.5t9 4.5t10 1.5t12.5 0t9.5 -0.5q4 -1 56.5 2.5t66.5 1.5q11 -2 41.5 -19.5t44.5 -31.5q4 -4 10.5 -8.5t8.5 -7.5q29 19 77.5 30.5t83.5 8.5q8 0 32.5 -3.5t60 -12t62 -28t26.5 -44.5zM250 1038q-2 -13 0.5 -35.5t9.5 -23.5 q5 -2 19.5 5.5t23.5 16.5q-25 25 -53 37zM104 104q7 -3 64.5 6t64.5 17q2 12 1 28t-3 69t-2 98q0 307 78 432q69 110 232 143q19 3 26 8q7 6 9 52.5t-3 50.5q-23 18 -90 18l-65 -4q-32 -7 -80 -39q-26 -13 -57 -37q-38 -32 -52 34q-3 10 -6 31q-5 28 -8 33q-5 6 -62 4.5 t-65 -6.5q-4 -6 -4 -63q0 -71 4 -129q4 -65 6.5 -183.5t5.5 -168.5q2 -27 2 -113v-176q0 -101 4 -105zM154 27q5 -2 65 9t60 15t-16 22.5t-21 20.5q-10 3 -65 -6.5t-60 -13.5q-4 -3 12.5 -23.5t24.5 -23.5zM602 819q2 4 -11 27.5t-20 23.5q-21 -2 -84 -27t-90 -46 q-99 -81 -114 -217q-19 -148 -19 -275q0 -40 1 -85.5t1 -51.5v-47q0 -11 16 -30t21 -19q1 0 -0.5 46t-3.5 127.5t-2 145.5q0 140 10 189q37 183 182 223q23 6 51 9t44 4t18 3zM629 827q4 1 13 64t7 70q-3 8 -19.5 21.5t-23.5 10.5q-4 -1 -10 -47t-4 -53q1 -13 16.5 -39.5 t20.5 -26.5z" />
<glyph unicode="s" horiz-adv-x="843" d="M768 313q8 -64 -5 -115.5t-42.5 -85t-67.5 -57.5t-85.5 -36.5t-91 -18t-87.5 -4.5q-132 0 -221 86q-28 28 -73.5 108.5t-41.5 118.5q0 5 21.5 22t57.5 34.5t67 19.5q27 3 51 -14q38 -18 47 -27q3 -4 5 -9t3 -10t2.5 -16.5t3.5 -19.5q7 -29 31 -41.5t55 -9.5q45 6 65 39 t14.5 72.5t-27.5 72.5q-33 49 -121 112.5t-113 88.5q-51 51 -72 127.5t-9.5 147.5t63.5 123.5t135 57.5q118 6 237 -78q74 -55 105 -90q3 -5 12 -41t8 -43q-3 -9 -61 -47.5t-64 -38.5q-12 0 -49 33q-72 57 -112 33q-12 -9 -13.5 -26.5t15.5 -39.5q11 -12 26.5 -24t37.5 -27 t28 -20q96 -76 176.5 -180t89.5 -177zM557 770q0 29 -4 31l-11 7q-10 8 -19 14t-23.5 14.5t-26 14.5t-23.5 10.5t-20 4.5q-36 2 -51 -18.5t-13 -41.5t9 -28q0 46 30.5 56t68 -6.5t69.5 -45.5q12 -12 14 -12zM670 834q2 7 -1 29.5t-7 23.5q-5 0 -46 -40t-41 -44q-2 -6 -1 -20 t4 -15q2 -2 23.5 11t43.5 30.5t25 24.5zM276 334q-5 10 -38 18q5 -30 22 -60t43 -42q-13 26 -19 53t-8 31zM123 201q43 -91 106 -123q68 -34 172.5 -23t194.5 64q46 27 77.5 93.5t26.5 119.5q0 49 -26 101.5t-71.5 100.5t-84.5 83.5t-87 73t-58 46.5q-37 34 -31 84t48 67 t114 -24q11 -6 23.5 -15.5t20 -14.5t13.5 -5q8 0 43 33.5t35 40.5q-1 13 -61 55.5t-93 57.5q-60 28 -119 29.5t-106 -20.5t-76 -73.5t-28 -124.5q1 -60 31.5 -113.5t67.5 -85t94 -77t85 -74.5q23 -24 40 -50t27 -56t5 -61.5t-27 -57.5q-43 -50 -122 -42.5t-115 62.5 q-11 17 -20.5 41.5t-14.5 33t-20 9.5t-42 -14q-2 -1 -14.5 -6.5t-21.5 -10t-18.5 -11t-10.5 -11.5q-2 -9 7.5 -30t21.5 -44.5t14 -27.5zM604 59q90 36 125.5 129.5t-6.5 190.5q8 -81 -12.5 -145.5t-61 -102.5t-92.5 -63.5t-107.5 -32.5t-105 -4t-86.5 16q56 -33 147.5 -30.5 t198.5 42.5z" />
<glyph unicode="t" horiz-adv-x="765" d="M719 190q6 -21 -23 -73q-31 -59 -91 -87t-124 -28q-41 0 -71 10q-77 30 -123.5 85.5t-53.5 135.5q-3 32 5 201t15 320.5t5 152.5q-128 24 -139 27q-9 3 -37.5 41t-30.5 49q-3 27 7 82.5t18 60.5q14 7 79 0t70 -4q5 2 15.5 83.5t26 163.5t32.5 85q32 4 110 -6t85 -16 q6 -4 9.5 -9.5t8.5 -17.5t10 -21q27 -48 29 -67q0 -4 -9.5 -59.5t-17.5 -108.5t-4 -57q10 -7 55 -13q17 -1 35.5 -20.5t28.5 -38.5q5 -9 2.5 -89t-8.5 -83q-12 -4 -47.5 0t-57.5 7.5t-28 -3.5q-6 -49 -21 -215t-16 -178q-12 -82 -12 -135q0 -68 14 -93q39 -77 76 -10 q16 33 30 39q9 3 49.5 -17.5t51.5 -31.5q18 -17 32.5 -37t14.5 -25zM479 211q-49 19 -49 188q0 83 11.5 196.5t24 203.5t13.5 104q0 3 -14 17t-16 12t-16 -86.5t-29 -217.5t-15 -229q0 -52 4 -89.5t14.5 -66.5t28 -35.5t43.5 3.5zM592 905q2 1 -8.5 10.5t-23 19t-15.5 9.5 q-10 3 -48.5 6.5t-39.5 -0.5q-1 -1 6.5 -7.5t18 -13t16.5 -7.5q18 -6 54.5 -12.5t39.5 -4.5zM580 1087q-3 -2 -11.5 -62.5t-5.5 -68.5q4 -10 29.5 -28.5t28.5 -16.5q6 4 6.5 58.5t-2.5 64.5q-2 10 -20 33.5t-25 19.5zM500 1403q-2 0 -4.5 -12t-6.5 -31.5t-6 -28.5 q-38 -177 -30 -180q3 -1 13 -2.5t17.5 -3t10.5 -2.5q4 -2 9 37.5t10.5 97t8.5 76.5q3 12 -7 30.5t-15 18.5zM258 934q6 3 3 25.5t-9 31.5q-4 6 -80.5 8.5t-77.5 -0.5q0 -1 7.5 -10.5t19 -20t20.5 -12.5q19 -5 66.5 -14t50.5 -8zM334 92q56 -53 115 -53q43 0 83.5 29t65 65.5 t39 67t12.5 37.5q0 3 -29 20t-36 16q-5 -2 -26 -28t-49.5 -49.5t-55.5 -22.5q-95 7 -95 164q0 14 7 102q6 97 28.5 283t32.5 219q5 24 12 29q6 2 48 -2t44 -2q9 6 15 64.5t0 64.5q-2 2 -57 13t-58 13q-16 12 19 170q3 18 10.5 51t9.5 52q0 37 -4 43q-5 8 -69.5 16.5 t-82.5 1.5q-6 -3 -16 -62.5t-21 -132t-16 -92.5q-5 -24 -12.5 -32t-28.5 -7q-5 0 -25.5 2.5t-32 4t-27.5 2.5t-25 0t-11 -4q-4 -5 -6 -17t-3 -32t-1 -25q-4 -23 4 -33q6 -1 14.5 -0.5t31 1.5t40.5 1q73 0 94 -16t21 -117q0 -24 -10 -209q-1 -51 -9.5 -152t-9.5 -153v-64 q0 -75 14 -131t56 -96zM692 176q2 7 -3 17.5t-11.5 18t-9.5 5.5l-14 -31q-14 -30 -32 -64t-51 -65t-69 -37q25 5 33 7q46 11 89.5 47.5t67.5 101.5z" />
<glyph unicode="u" horiz-adv-x="1067" d="M987 276q16 -198 8 -210q-11 -18 -107.5 -46.5t-109.5 -15.5q-2 2 -15 16t-18 19.5t-13.5 16.5t-12 19t-4.5 15q-1 6 -10.5 -3t-38.5 -31t-64 -36q-46 -16 -106 -16q-59 0 -121.5 13t-102.5 34q-116 61 -174 285q-12 48 -20.5 106t-11.5 97t-7 110.5t-6 100.5 q-2 18 -2 94q0 203 19 227q15 11 57 10.5t72 -6.5q27 -6 56 -42.5t32 -49.5q7 -19 12 -82q1 -25 3 -69t4 -82t5 -74q19 -239 62 -337q40 -86 98 -87q41 0 90 41q131 111 131 393q0 34 -12 256q0 98 10 115q6 10 75 19t91 3q12 -4 28.5 -19t37 -38t24.5 -27q2 -2 3.5 -10.5 t2.5 -24t1.5 -28t1.5 -35t1 -33.5q2 -66 9.5 -197.5t9.5 -203.5q2 -30 6 -93.5t6 -93.5zM233 1012q-10 0 -2 -99q4 -105 18 -257.5t32 -229.5q4 -32 31.5 -88.5t74.5 -71.5q-16 19 -29.5 47t-24 58t-19 68t-14 71.5t-10 74t-7 70.5t-4.5 66.5t-3 55.5t-1.5 44.5t-0.5 26.5 q-1 9 -2 41t-2.5 56t-3.5 28q-5 12 -16 26t-17 13zM649 84q54 37 51 49q-1 3 -2 10t-1.5 9t-3 6t-5 2t-8.5 -2q-13 -7 -34.5 -23.5t-35.5 -25.5q-104 -74 -225 -76q66 -4 84 -4q50 0 86.5 8.5t53.5 18.5t40 28zM713 193q18 -8 23 -47.5t7 -41.5q2 -4 74.5 3t75.5 14 q2 10 -6 133q-3 28 -11.5 114.5t-13 143t-6.5 115.5q-4 53 -4 161q0 109 -2 168q0 76 -8 86q-6 7 -61 1t-58 -11q-4 -4 -4 -88q0 -40 1 -108.5t1 -77.5q0 -11 -0.5 -60.5t-1 -66.5t-3.5 -58.5t-7 -65.5t-12.5 -57t-20.5 -61q-30 -74 -93 -119t-132 -45q-55 0 -102 31.5 t-77 93.5q-13 30 -22.5 61.5t-14.5 70t-7 62.5t-5 72t-4 66q-4 59 -8.5 149t-7 144.5t-4.5 56.5q-7 11 -51 16t-48 -1q-10 -10 -10 -72q0 -39 -1 -117t-1 -117q0 -77 2 -116q2 -50 7.5 -99t16.5 -112.5t30.5 -118t46 -104.5t67.5 -83.5t92 -44.5q56 -12 133 14.5t138 76.5 q65 52 92 39zM793 35q8 -2 78.5 14.5t70.5 20.5q0 3 -10.5 12t-16.5 10q-17 0 -89 -8t-72 -14q0 -8 14.5 -21t24.5 -14zM971 92q3 2 -3.5 92t-17 226.5t-14.5 199.5q-1 13 -1.5 101.5t-2 167t-4.5 84.5q-11 26 -33 43q-9 7 -10 2q-4 -16 2 -361q2 -78 19 -299.5t24 -228.5 q5 -5 21.5 -17.5t19.5 -9.5z" />
<glyph unicode="v" horiz-adv-x="1095" d="M1014 952q3 -15 -2 -53q-43 -263 -121 -557q-4 -15 -33.5 -118.5t-44.5 -160.5q-5 -22 -8 -30.5t-11.5 -17t-23.5 -9.5q-46 -4 -154 -4q-80 0 -104 6q-47 13 -72 47q-5 6 -15.5 18t-18.5 22t-13 20q-15 25 -30 57t-22.5 51t-23.5 63t-20 56q-13 34 -55.5 136t-61.5 159 q-13 37 -52.5 138.5t-59.5 160.5q-4 13 -9 29t-7.5 24.5t-2.5 14.5q0 15 12 21t48 13q4 1 6.5 1.5t6.5 1t7 1.5q28 7 117 13q30 3 78 -30.5t59 -51.5q14 -21 57 -178q58 -183 113 -326l2 -6q52 194 78 336q9 55 40 161.5t40 110.5q9 6 65 6q94 0 152 -8q26 -3 37 -20 q32 -35 47 -97zM283 1004q-3 -3 13.5 -54.5t41 -128.5t35.5 -114q15 -59 48 -150t60.5 -157t32.5 -68q4 -1 10 12.5t11 32t6 31.5q0 7 -95 280q-5 14 -25 88t-34 113q-10 30 -31 72q-13 18 -40.5 33t-32.5 10zM367 262q3 -7 8 -20t7.5 -18.5t6.5 -15.5t6.5 -15t6.5 -12 t7 -11t7 -8.5t8 -7.5q13 -10 147.5 -1.5t137.5 21.5q15 69 75.5 301.5t99 397t27.5 169.5q-20 5 -88 5q-71 0 -86 -5q-12 -7 -34.5 -88t-34.5 -141q-38 -217 -74 -342q-27 -103 -43 -154q-5 -21 -29 -26q-36 -2 -121 237q-10 26 -51 155t-76.5 233t-42.5 106q-22 4 -81.5 -3 t-67.5 -20q-4 -5 15 -54.5t43.5 -107t27.5 -65.5q39 -93 104.5 -265t94.5 -245zM752 43q7 1 -0.5 21.5t-20.5 42t-20 24.5q-10 4 -137 -2t-132 -14q-3 -7 23.5 -37.5t44.5 -36.5q16 -4 102 -4q110 0 140 6zM901 522q5 26 29.5 128t44.5 190t20 100q0 27 -18.5 55t-28.5 25 q-2 0 -6 -19t-9 -42.5t-7 -30.5q-4 -16 -25.5 -91t-30.5 -116q-8 -44 -47.5 -224.5t-40.5 -183.5q-6 -21 -18.5 -74.5t-18.5 -76.5q-3 -7 15.5 -48.5t23.5 -41.5q7 1 47.5 161t69.5 289z" />
<glyph unicode="w" horiz-adv-x="1638" d="M864 381v2v-2zM1544 1036q14 -12 29 -38t14 -35q0 -18 -47 -201q-6 -24 -23 -81t-26.5 -95t-15.5 -76q-12 -66 -40.5 -178t-52 -194t-26.5 -85q-17 -20 -111 -12q-33 3 -93 5.5t-105.5 3.5t-51.5 3q-7 3 -36 37.5t-41 54.5q-4 9 -20 76t-19 101q-11 -38 -31.5 -106 t-30.5 -103q-15 -56 -36.5 -73t-80.5 -22q-15 -1 -56.5 -5.5t-80 -7.5t-69.5 -3q-16 0 -63.5 36.5t-65.5 57.5q-11 13 -56 144q-123 364 -137 401t-39.5 94.5t-38.5 89.5q-2 6 -16 34.5t-21.5 51t-3.5 35.5q9 33 116.5 56.5t145.5 15.5q24 -5 44 -22.5t34.5 -50.5t23 -56.5 t20 -66.5t14.5 -54q94 -338 116 -342q19 -4 60 93.5t55 146.5q18 60 51 73q10 4 90 4q102 0 152 -4q15 -1 39 -77.5t50.5 -177.5t39.5 -132q19 -49 49 39q8 24 8 25q39 97 60 174q8 25 40 160t61.5 231t51.5 104q11 4 87.5 -19.5t82.5 -29.5zM322 979q-2 -3 0 -16t8.5 -33.5 t12 -37.5t13 -40t9.5 -29q8 -26 43 -164q20 -78 55.5 -181.5t52.5 -135.5q5 -10 29 36l4 7q-76 217 -86 250q-46 153 -57 192q-14 64 -31 107q-1 6 -9.5 17t-13.5 14q-3 2 -8 6t-7 5.5t-5.5 3t-5.5 1.5t-4 -2zM489 37h15.5t30.5 0.5t40 1.5t44.5 2.5t43.5 3.5t36.5 4.5t25 6 t6.5 7.5q-7 16 -12 25.5t-10.5 17t-7.5 10.5t-8 5l-7.5 2.5t-10.5 0t-13 -0.5q-70 -2 -155.5 -10t-88.5 -17t26.5 -34t44.5 -25zM825 246q2 9 14 42.5t22 62.5t9 32q0 3 -3.5 19.5t-8 32t-6.5 14.5q-6 -2 -66 -150t-57 -158q21 -62 33 -61h2q12 4 61 166zM858 500 q26 -3 39 -71t23.5 -145t29.5 -94q8 -6 29.5 -11t52 -7t56.5 -3t56.5 -2t37.5 -1q54 -4 61 -4q26 0 37 13.5t20 57.5q19 94 61.5 265t55.5 229q23 102 58 205q4 12 12 30t12 30t2 20q-2 9 -52 28t-63 13q-16 -8 -77 -265q-60 -227 -86 -301q0 -1 -5.5 -17.5t-8.5 -25 t-10 -27.5t-12.5 -31.5t-13.5 -29.5t-15 -28t-14.5 -22t-15.5 -16t-16 -5q-24 0 -41 57q-12 35 -53.5 172.5t-59.5 179.5q-8 17 -94 17q-25 0 -53.5 -2t-46 -4t-19.5 -3q-11 -6 -19 -18t-11 -21t-10 -32q-83 -206 -156 -303q-15 -20 -32.5 -20.5t-24.5 18.5 q-24 59 -55 150.5t-36 115.5q-105 380 -122 389q-12 5 -66 -10q-5 -1 -23.5 -3.5t-34 -5t-32 -7.5t-24.5 -13t-5 -18q22 -72 78 -207.5t76 -196.5q48 -139 76 -213q48 -159 59 -168q12 -8 158 2.5t153 20.5q4 4 36 92t69.5 168.5t58.5 77.5zM1309 80q5 2 -0.5 12.5 t-14.5 20.5t-14 12q-19 9 -165.5 16t-151.5 -2q-1 -4 10 -21t22 -28q6 -4 90.5 -8t157.5 -4q54 0 66 2zM1337 109q8 1 116 418.5t108 428.5q-1 6 -7 18t-12.5 21t-9.5 6q-10 -6 -31.5 -79t-56 -207t-45.5 -174q-13 -48 -31 -129t-31 -131q-1 -7 -10 -40t-14.5 -58t-3.5 -31 q19 -43 28 -43z" />
<glyph unicode="x" horiz-adv-x="1007" d="M817 426q41 -77 84 -169t43 -105q-2 -17 -65.5 -70.5t-92.5 -54.5q-1 0 -13.5 7.5t-30.5 18.5t-29 19q-15 12 -27 37q-7 12 -24 37.5t-29 46t-21 40.5q-13 26 -44 77t-38 57q-1 1 -35 -47t-84.5 -119t-70.5 -99q-6 -8 -22.5 -31.5t-29 -39t-26.5 -27.5q-13 -12 -56.5 6.5 t-64.5 34.5q-55 34 -86 76q-4 10 -4.5 17t5 17.5t11 17.5t13 17t10.5 15q30 40 63 80.5t82.5 98.5t67.5 79q40 49 53.5 77t1.5 52q-29 59 -104 164q-88 119 -90 133q0 4 2 9t7.5 10.5l11 11t14.5 11.5t15.5 11t16.5 11.5t15.5 10t14.5 9t11 6.5q8 5 20.5 13.5t20 12 t15.5 3.5q6 0 58.5 -17.5t74.5 -27.5q11 -5 63.5 -79t55.5 -75q5 0 45 66t77 132l37 66q10 14 31 0q39 -31 84 -76q3 -3 7 -15t9.5 -31t10.5 -31q1 -13 1.5 -18.5t-6 -21.5t-12 -25.5t-16.5 -30.5t-19 -36q-9 -19 -33.5 -63.5t-41.5 -77t-17 -37.5q-1 -5 30.5 -77.5 t49.5 -106.5zM852 952q-3 -2 -13.5 -22.5t-30 -58.5t-36.5 -68q-20 -34 -46 -76t-41 -65t-15 -25q1 -4 25 -7.5t26 -0.5q8 12 14 22q13 22 41 80q6 13 28.5 53t42 74.5t19.5 36.5q3 10 -7 46q-4 14 -7 11zM379 965q-1 -3 13.5 -20.5t46 -52.5t34.5 -38q65 -83 72 -90t16 10 q6 6 4 10q0 1 -51.5 72t-58.5 80q-4 5 -39 18t-37 11zM514 389q3 3 -8 14q-22 16 -27 9q-38 -45 -145 -195t-119 -172q-1 -1 2.5 -4t8.5 -5.5t11.5 -5t11 -2.5t7.5 3q17 20 80.5 108.5t120 168.5t57.5 81zM700 141q3 -5 12 -8t15 -2q42 14 82 51q5 5 4 16.5t-6 18.5 q-26 40 -68.5 137t-73 176t-30.5 86q0 15 65 111q33 53 88 149t54 103q-1 8 -39.5 37.5t-42.5 27.5q-10 -2 -31 -45q-66 -120 -133 -219q-29 -43 -45 -46q-8 -1 -14 7q-3 3 -84 101q-57 57 -91 98l-7.5 10t-7 9.5t-6 7t-6 5t-5.5 1.5q-11 2 -72 -36.5t-61 -47.5q0 -7 55 -80 q68 -85 137 -203q1 -2 7.5 -14t7.5 -16t3 -13.5t0 -16.5t-8 -14q-65 -80 -155 -194q-7 -9 -51.5 -57t-74.5 -87t-30 -57q0 -13 29 -34.5t51 -34.5q15 -5 16 -5q5 1 147.5 190.5t151.5 190.5q12 2 32.5 -13t39.5 -44q29 -47 79 -133t66 -113zM907 135q4 4 -9 14.5t-28.5 18 t-19.5 4.5q-9 -6 -39 -25.5t-54 -34.5t-24 -16q0 -6 20.5 -20t39.5 -17q6 0 54 32t60 44zM852 197q50 -27 68 -31q-32 52 -97 184q-13 28 -40 92.5t-47.5 113t-22.5 50.5q-3 3 -29 7.5t-27 0.5q0 -6 91.5 -209t103.5 -208z" />
<glyph unicode="y" horiz-adv-x="1126" d="M1059 1028q7 -10 10 -21t4 -19t-0.5 -20.5t-3 -19t-6 -22t-6.5 -21.5q-13 -55 -38.5 -180t-43.5 -201q-26 -113 -59.5 -232t-85 -284.5t-72.5 -234.5q-23 -77 -67.5 -154.5t-102.5 -132.5q-92 -85 -295 -139q-27 -7 -56 8.5t-44 38.5l-5 4q-5 5 -6.5 7.5t-6 9.5t-6.5 17 l-5 25t-5 37.5t-3 50.5q0 39 10 52q9 13 67 20q71 11 127 74q94 105 115 315q6 53 -13.5 126.5t-37.5 115t-55 119.5q-105 225 -158 329q-20 38 -77.5 133t-80.5 146q-6 14 40.5 42.5t101.5 50t71 17.5q31 -5 58 -32q2 -1 25.5 -20t33.5 -25q10 -8 22 -27.5t20 -37t20.5 -46 t17.5 -39.5q26 -59 76 -151.5t87 -154.5l36 -63q64 161 114 349q47 175 49 180q3 8 8.5 24.5t7 20.5t6.5 13t9 9.5t12.5 2t19.5 -0.5t27 -6q13 -3 39 -6.5t42 -7t34.5 -13.5t28.5 -26zM381 967q-67 67 -70 58q-1 -2 2 -7q1 -2 23 -48t31 -69q76 -164 125 -256 q9 -18 28.5 -59.5t34.5 -67.5q2 -6 28.5 -46.5t39.5 -53.5q4 -4 9.5 8.5t8.5 22.5q2 3 -27 57t-70 128t-52 95q-14 25 -40 83.5t-46.5 104.5t-24.5 50zM209 -547q7 -22 35 -16q45 10 122 42t101 48q15 11 28.5 24t25.5 31t20.5 29.5t19.5 35.5t16 33t15 37.5t12 34t12 37 t11 33.5q39 121 76.5 245t80 270t68.5 232q11 36 55 170.5t64 208.5q20 70 20 86q-2 11 -19 15q-1 1 -3 1l-4 1q-84 12 -91 -2q-2 -4 -13.5 -47t-28.5 -103.5t-31 -97.5q-17 -47 -46.5 -142.5t-45.5 -142.5q-10 -31 -39.5 -88t-34.5 -57q-11 1 -29 18t-33 37 q-30 42 -58.5 96t-61.5 126.5t-47 101.5q-17 33 -62.5 133t-75.5 151q-9 11 -27 10.5t-42 -11t-45 -22.5t-34 -24t-11 -16q36 -66 151 -296t135 -276q8 -17 35 -75t40 -88t28.5 -78t19.5 -86q7 -68 -15 -159t-57 -161q-71 -138 -180 -162q-61 -11 -71 -24q-3 -6 1 -42.5 t13 -70.5zM1008 809q1 7 12.5 50.5t22 84t10.5 43.5q-2 11 -10.5 24t-14.5 9q-5 -4 -19.5 -47.5t-33.5 -108t-25 -82.5q-14 -37 -26.5 -78t-27 -94.5t-22.5 -79.5q-99 -376 -110 -411q-109 -356 -148 -451q-27 -68 -65 -115.5t-102 -82.5q-51 -26 -115 -48q-5 -2 -28 -8 t-41 -12t-19 -10q-1 -5 6.5 -9.5t18 -6.5t18.5 -1q15 1 33 6.5t33 11.5t18 7q125 50 194 113q31 29 59.5 71.5t46.5 76t40.5 95.5t31 87.5t29 96t23.5 80.5q102 345 145 515q12 45 32.5 136.5t33.5 137.5z" />
<glyph unicode="z" horiz-adv-x="1136" d="M1069 227q6 -15 6 -90q0 -97 -10 -110q-8 -6 -56.5 -13t-95.5 -8q-231 -6 -745 -6q-33 0 -72 39q-23 23 -43 168q-6 30 15 57q54 67 116 129q83 85 169.5 163.5t123.5 107.5q2 2 16 13t29 23.5t21 20.5q-7 0 -39 -2t-35 -2q-45 -2 -250 -23q-7 -1 -13 1t-12.5 7.5 t-11 9.5t-14 14t-14.5 15q-34 39 -39 62q-14 69 -21 127q-5 34 4 52.5t47 25.5q68 11 82 12q281 41 453 53q23 2 61 2q85 0 125 -8q36 -11 76 -61q37 -49 37 -80q3 -106 -10 -119q-9 -10 -62 -72q-16 -21 -68.5 -80t-98 -109t-46.5 -52q-15 -13 -81.5 -89.5t-80.5 -95.5 q-4 -6 -5.5 -10t1.5 -6q17 0 78.5 -1t65.5 -1q19 1 92 3.5t113 2.5q9 0 38 0.5t53 0.5t38 -1q12 -1 35.5 -29.5t27.5 -40.5zM893 1016q-3 -3 -2.5 -63.5t4.5 -69.5q6 -11 27 -33t28 -19q4 1 5 52.5t-1 54.5q-2 5 -16 26t-28.5 38.5t-16.5 13.5zM891 840q-2 0 -26 -30 t-58 -71t-53 -61q-43 -45 -119.5 -127.5t-106.5 -114.5q-126 -126 -122 -137q2 -4 40 -5.5t46 5.5q56 84 126 160q35 38 83 88.5t79.5 84t38.5 40.5q6 7 24.5 28.5t31 36t27 32t22 28t6.5 12.5q0 3 -17.5 16t-21.5 15zM436 739q15 2 51 5t62.5 5.5t30.5 6.5q1 2 11.5 14 t19 22.5t7.5 12.5q-12 2 -48 0.5t-85 -5t-51 -3.5q-26 -3 -99 -10.5t-115 -12.5t-44 -8q-3 -6 16 -23t33 -22q7 -1 211 18zM119 96q2 -16 37 -16q54 -4 98 -4q35 0 125 4q380 8 455 12q3 0 44.5 5t69.5 10t31 10q6 20 2 67t-10 72q-2 12 -88 12q-20 0 -49 -1t-33 -1 q-99 -8 -221 -8q-18 0 -56 1t-57 1q-41 0 -57 2q-85 5 41 143q12 12 14 15q48 58 147 159.5t138 145.5q15 16 39.5 41t36.5 38t24 33t16 42q4 20 -2 83t-18 72q-4 4 -80 4q-132 0 -264 -14q-341 -37 -363 -68q-9 -13 0.5 -86t18.5 -75q10 -2 62 3t116 12.5t78 8.5 q117 10 180 10q45 0 51 -8q5 -3 3 -15t-9 -22q-3 -6 -9.5 -14.5t-15 -18.5t-18.5 -20.5t-20.5 -21.5t-20.5 -21t-19.5 -19t-16 -15.5t-11.5 -10.5l-4 -4q-53 -51 -113 -104l-117 -105q-177 -177 -182 -203q-3 -14 1 -33.5t13 -51t13 -46.5zM1028 39q1 6 -17 21t-30 18 q-5 2 -86.5 -3.5t-168.5 -11.5t-97 -6q-62 -1 -195 -2.5t-218.5 -3t-90.5 -4.5q-5 -2 13 -13l20 -11q36 -1 108 -0.5t206.5 1.5t189.5 1q34 0 200 5.5t166 8.5zM1047 61q6 3 6 80q0 60 -4 72q-5 11 -22 32.5t-21 20.5q-2 -2 3.5 -82.5t8.5 -91.5q1 -9 12.5 -21t16.5 -10z " />
<glyph unicode="{" horiz-adv-x="565" d="M489 1448q2 -3 6 -53t3 -54q-4 -10 -35 -10q-106 0 -139 -49q-8 -15 -14.5 -64.5t-2.5 -125.5q0 -5 3.5 -48.5t4.5 -46.5q0 -1 1 -11.5t1 -12.5q5 -35 5 -86q-12 -120 -46 -154q-6 -5 -15.5 -8.5t-21 -6t-14.5 -3.5q5 -4 14 -9t13 -8q85 -44 72 -202q-13 -107 -15 -115 q0 -3 -2 -23.5t-4 -31.5q-7 -47 -2 -82q4 -27 33 -60q16 -12 43 -12q25 0 39 -2h22q7 -1 28 -22t23 -27q3 -17 2.5 -63.5t-4.5 -49.5q-8 -4 -32 -2t-33 4q-2 1 -30.5 4.5t-35.5 5.5q-2 1 -14 5.5t-14 5.5q-60 20 -78 32q-12 8 -19 15q-10 5 -36 31q-19 19 -28 63t-7 86 q1 15 1.5 66.5t2.5 74.5q1 5 7.5 49.5t5.5 51.5t-1 53q0 7 -3 21.5t-3 17.5q-11 51 -35 63q-18 9 -46 7.5t-30 1.5q-2 4 -5 44.5t1 49.5q2 6 25 12l24 16q40 26 48 113q0 5 2 30t2 29v68q-4 24 -4 41q0 8 -5 43q-2 23 -2 92q0 16 3.5 60.5t5.5 52.5l2 12q3 12 8 26t14 32.5 t24.5 35.5t36.5 32t54 24t72 10q11 0 46 -4l35 -4q6 -3 23 -15.5t20 -15.5zM457 131q-4 -12 -5 -40.5t1 -33.5q1 -3 6.5 -10t11 -13t6.5 -5q2 2 2.5 38t-2.5 44q-2 5 -9 12.5t-11 7.5zM440 45q-30 0 -53 2q-68 10 -84 16q25 -13 55 -20q72 -16 91 -16q0 1 -3.5 9t-5.5 9z M295 430q8 72 8 105q0 77 -27 116q11 -40 11 -108q0 -66 -6 -84q-2 -6 -11 -64.5t-10 -72.5q-2 -38 9 -79t36 -57q-24 36 -24 109q0 20 2 44t4 39.5t5 32t3 19.5zM246 670q-26 26 -33 30q-1 1 -13.5 6.5t-21.5 11t-8 9.5q0 5 20 12q25 17 50 77.5t24 125.5q0 11 -4 31 q0 6 -2 25t-2 20q-2 15 -5.5 54.5t-4.5 53.5q-3 32 0 64q0 60 14 106q8 24 21 35q2 1 6 5t6 5q9 9 41 25q20 8 37 8h61q6 1 8.5 4.5t2.5 10.5t-0.5 13t-2.5 15.5t-2 14.5q-1 2 -1.5 13.5t-2.5 14.5q-8 8 -47 8q-68 -5 -97 -16q-93 -34 -116 -158q-1 -6 -4 -37.5t-4 -37.5 v-25q0 -4 1 -12t1 -11q0 -1 2 -36t2 -43q4 -16 4 -72v-62q0 -25 -4 -53q0 -35 -6 -47q0 -5 -2.5 -16.5t-9.5 -30t-24.5 -34t-41.5 -21.5q-1 -1 -5 -2t-6.5 -2t-2.5 -2q-2 -4 1 -33.5t7 -32.5q3 -2 7 -1.5t11.5 1.5t12.5 0q15 -1 27.5 -6t20.5 -14t13.5 -17t9 -21t5 -19 t3 -18.5t1.5 -13.5q2 -5 2.5 -32t-0.5 -45q0 -8 -2.5 -36.5t-2.5 -31.5q-6 -69 -6 -133v-68q0 -43 4.5 -65.5t20.5 -41.5t45.5 -28t81.5 -16q6 -1 29.5 -5.5t42.5 -8t22 -1.5q4 3 5.5 37.5t-1.5 44.5q-1 2 -24.5 3.5t-54 4t-42.5 7.5q-13 6 -29 19.5t-22 23.5q-19 31 -22 82 q0 6 2 34t2 33q0 25 20 125q4 31 4 76q0 67 -22 117zM295 1257q6 31 25 51.5t46.5 29t49.5 11t45 1.5q-4 9 -10 10q-13 3 -55 -1t-66 -20q-15 -9 -26 -20t-17.5 -25.5t-11 -25t-6 -28.5t-2 -26t0 -27t0.5 -22q-1 -20 0.5 -53.5t1.5 -44.5q-1 -11 15 -123q2 -25 -9 -80 q-2 -5 -5 -16t-5.5 -20t-3.5 -11q-2 -6 -6.5 -18.5t-7.5 -20.5q-10 -16 -33 -47q58 17 72 74q14 52 14 117q0 2 -3.5 41t-7.5 84t-5 59q-2 10 2 68t8 83zM481 1358q2 2 -0.5 38.5t-5.5 39.5q-1 1 -6 6.5t-8.5 9t-5.5 2.5q-1 0 0.5 -37.5t3.5 -42.5l4 -4t6.5 -6t7.5 -5.5 t4 -0.5z" />
<glyph unicode="|" horiz-adv-x="337" d="M264 582q4 -83 6 -352.5t4 -295.5q0 -10 1 -41t1 -49q0 -58 -6 -67q-13 -13 -94 -13q-51 0 -65 7q-9 4 -16 11.5t-18 25.5l-11 18q-3 4 -4 25t-1.5 61t-1.5 55q-2 104 -3.5 698t-2.5 633q0 19 -1 51t-1.5 46.5t0.5 23.5q3 5 53.5 6.5t65.5 -0.5q22 0 46 -31t30 -53 q3 -10 4.5 -56.5t2 -102.5t1.5 -70q0 -42 0.5 -163.5t2.5 -204.5t7 -162zM84 -20q0 -31 5 -84.5t9 -57.5q3 -2 35 -2q48 0 60 8q8 3 8 101v71q0 215 -17 738q-3 77 -4.5 226t-5.5 234q-1 20 -1 63.5t-0.5 75t-2.5 38.5q-1 10 -45 11.5t-47 -3.5q-3 -18 -2 -50t4.5 -100.5 t3.5 -101.5v-322v-845zM102 -188q-2 -1 2 -7.5t10.5 -13.5t10.5 -8q115 0 117 4q1 3 -12.5 15t-18.5 14q-6 3 -56.5 1t-52.5 -5zM256 -184q3 4 3 34t-1.5 69t-1.5 44q0 38 -2 102t-2 97q0 74 -5.5 210.5t-6.5 194.5q-1 57 -4.5 157t-5.5 178.5t-1 150.5q0 11 -1 143.5 t-1 138.5q0 2 -2.5 8t-6.5 12l-8 12t-7 10t-4 3q-4 -4 2 -55q1 -66 5.5 -363.5t10.5 -455.5q1 -37 1 -102.5t1 -123.5t4 -116q2 -20 2 -64v-104l-1 -26v-52v-52t1 -28q2 -6 15 -16t16 -6z" />
<glyph unicode="}" horiz-adv-x="663" d="M586 762q2 -3 2 -80q2 -16 -2 -31.5t-11 -15.5q-12 -1 -23 -3t-19.5 -4.5t-15.5 -6.5t-12 -8t-10 -9t-7.5 -8.5t-5 -8.5t-3.5 -7.5t-3 -6.5l-1 -4q-12 -27 -8 -71q0 -72 22 -242q6 -67 -24 -135l-5 -11q-5 -11 -7 -15t-10 -15.5t-15.5 -18t-21 -16.5t-28.5 -16t-36.5 -12 t-46.5 -9q-81 -10 -94 -6q-3 0 -27.5 25t-26.5 30q0 1 -2 17t-4 34t-2.5 35.5t2.5 20.5q6 5 20 6t30.5 0t21.5 0q19 3 35 16q24 21 39 58.5t14 77.5q0 25 -8 71q-21 111 -21 150q0 21 11 65q9 40 18 58q16 29 41 43l20 6q0 2 -4 6t-8 7l-4 3q-9 9 -21 24.5t-12 18.5 q-1 2 -12 47q-2 14 -2 53q4 52 8 78q1 10 3 29t3 29q3 19 10.5 102t4.5 109q-2 9 -6.5 18t-12 20.5t-10.5 16.5q-18 31 -56 49.5t-87 17.5q-4 0 -19.5 -1.5t-29.5 -1.5t-21 3q-4 2 -14.5 13.5t-10.5 15.5q-3 6 -7 39t1 55q8 20 70 25h61q74 -3 127.5 -30t110.5 -91 q45 -49 63.5 -165t16.5 -206q0 -20 -6 -85.5t-4 -79.5q4 -21 14 -31q2 -3 9 -5.5t16 -5.5l12 -4q3 -2 21.5 -13.5t19.5 -12.5zM406 1358q-10 11 -27 26q7 -13 22 -35t23 -38q26 -78 33 -135q2 -8 3.5 -28.5t2.5 -37t2 -18.5l-1 -25q-1 -25 -1 -35q0 -5 -0.5 -15t-1 -17.5 t-0.5 -8.5t-1.5 -18.5t-2.5 -37.5t-1 -45.5t3 -41.5t7.5 -23.5t10 -10t6.5 -3.5q-8 11 -8 59q0 34 4.5 103.5t3.5 81.5q-10 80 -10 110q-21 141 -67 193zM100 1358q39 8 91 1.5t81 -28.5q-20 26 -47 35q-23 6 -56.5 8t-56.5 -0.5t-24 -5.5t4.5 -6.5t7.5 -3.5zM174 68 q2 -3 16.5 -3t33 1.5t20.5 1.5q50 0 91 14.5t54 32.5q1 1 11 15.5t14 21.5q14 27 10 86q0 2 -5 31.5t-10 67t-6 58.5q-1 18 0 40t2 49.5t1 31.5q10 50 10 57q5 21 18 43q5 10 25 33q13 14 41 27q2 1 12.5 4t11.5 4q4 4 4 41t-4 43q-1 1 -5 2l-10 2.5t-9 3.5q-19 4 -25 10 q-26 13 -39 74q-2 23 -2 32.5t2.5 32.5t3.5 33q4 86 4 127q0 29 -2 43q-1 6 -3 25t-3 27q-14 74 -20 88q-1 3 -9.5 25t-11 28.5t-11.5 24.5t-15.5 27.5t-17.5 23t-23 24.5q-48 37 -162 52q-13 0 -49 -5.5t-37 -9.5q-3 -6 -1.5 -40t7.5 -34q65 9 74 9q34 0 62 -7.5t43 -16 t29.5 -25t18 -22t11.5 -19.5q6 -12 16 -37t10 -66q0 -16 -2.5 -47.5t-3.5 -40.5q-2 -20 -4 -60t-4 -59q0 -27 -6 -45q0 -21 -6 -51q-4 -41 -2 -61q8 -38 8 -39q15 -49 59 -70q3 -2 8.5 -4t9.5 -3.5t7 -5t2 -7.5q0 -7 -3.5 -9.5t-13.5 -1.5l-10 2q-20 2 -35.5 -6.5t-26 -27 t-15.5 -32.5t-11 -36q-9 -44 -4 -113q0 -17 8 -41q12 -36 12 -47q2 -4 2 -16q9 -45 3 -98q-7 -43 -43 -93q-14 -18 -37 -30q-16 -6 -52 -6q-20 1 -23 -5.5t1 -21.5q4 -28 4 -39q1 -1 1 -5.5v-8.5t1 -4zM475 614q13 16 29 25.5t30.5 14t16.5 5.5q-2 7 -14 7q-2 0 -6 -1t-5 -1 q-45 -17 -61 -35q-24 -33 -33 -76q-6 -39 -4 -49q0 -1 -1 -9t-1 -10q0 -111 8 -168q0 -1 4 -33.5t6 -60.5t0 -49q-5 -21 -30 -61q-38 -49 -142 -64q-7 -1 -82 -6q1 -1 4 -6t6 -9.5t5 -4.5q102 -2 170 32q18 9 26 15q37 37 54 96q12 40 12 67q0 4 -3.5 40t-7.5 73t-7 55 q-1 20 -4 61l-3 40q0 11 6.5 43t10.5 41q1 1 6 11.5t10 16.5zM573 666q1 2 1 39t-1 40q-5 7 -13 13.5t-11 5.5q-3 0 -3.5 -38t1.5 -42q0 -3 11.5 -12t14.5 -6z" />
<glyph unicode="~" horiz-adv-x="1019" d="M942 1022q11 -19 10.5 -39t-7 -34.5t-21.5 -37.5l-22.5 -37.5t-26 -42t-25.5 -35t-32 -37t-34 -26.5t-43 -24q-47 -17 -102 -17q-36 0 -72.5 5.5t-94 19t-71.5 16.5q-18 3 -32.5 3.5t-23.5 0.5t-22.5 -6.5t-18 -8.5t-22.5 -14l-24 -16q-11 -7 -51 -43q-9 -5 -26 -3.5 t-29 5.5q-10 2 -22 4t-19.5 3.5t-10.5 3.5t-49 59q-9 12 13 47t36 47q12 11 40.5 38t43.5 39t40.5 29t52.5 24.5t59 8.5q36 1 95 -16.5t87 -19.5q55 -4 164 16q77 13 127 72q4 5 15.5 24t23.5 33t22 16q8 1 38 -24t34 -33zM70 735q2 -2 14 -3t27 -2.5t22 -4.5q14 -2 17.5 -3 t9 0.5t6 3t6 8t10.5 11.5q58 60 160 60q32 0 74 -6q27 -2 77.5 -14t75.5 -15q73 -5 134 20t83 50q25 30 77 100t52 74q-3 11 -17.5 24.5t-23.5 10.5q-3 -1 -21 -23.5t-46 -51t-53 -42.5q-74 -39 -205 -35q-37 0 -107 16.5t-106 16.5t-76 -15q-36 -14 -84 -57.5t-78 -80.5 t-28 -42zM170 668q0 5 -5 19t-9 18q-6 4 -37.5 8t-40.5 0v-1q1 -2 3 -4.5t4.5 -5.5t5.5 -7t5.5 -7t5.5 -7t4 -5q2 -2 32.5 -6.5t31.5 -1.5zM942 975q2 3 -0.5 10.5t-5.5 14.5l-4 6q-4 -5 -25 -45q-67 -119 -151.5 -173t-202.5 -36q-31 5 -70.5 13.5t-65.5 12.5t-50 4 q-42 0 -97 -14q-37 -9 -71 -37q-5 -3 -14 -12t-9 -10q0 -6 8 -23.5t11 -19.5q6 0 45 39q59 51 131 51q31 0 130.5 -22t172.5 -15q97 9 160 96q87 112 108 160z" />
<glyph unicode="&#xa1;" horiz-adv-x="421" d="M270 1307q0 -5 1 -47t1 -70q0 -92 -8 -100q-4 -2 -84.5 -8t-89.5 -3q-4 1 -12.5 11t-20 26t-18.5 23q-8 11 -8 61q0 46 6 99t12 59q1 2 25 8h61q68 0 76 -4q59 -30 59 -55zM76 1331q-8 -5 -11.5 -76.5t3.5 -76.5q3 -2 43 0.5t63 5.5q10 0 14 8q3 3 1.5 71t-5.5 72 q-6 4 -53 2.5t-55 -6.5zM225 1114q2 3 -11 21t-17 18q-114 0 -119 -10q-1 -6 9.5 -21t18.5 -20q5 -3 60.5 2.5t58.5 9.5zM252 1137q2 11 1 34t-3 64.5t-2 58.5q0 7 -15 20t-20 11q-4 -3 -2.5 -76.5t6.5 -79.5q31 -36 35 -32zM348 -16q7 -124 0 -131q-6 -6 -90 -9 q-88 -5 -108 0q-5 2 -27 26t-23 30q-2 4 -10.5 90.5t-17 199.5t-11.5 177q-6 125 -6 376q0 13 -1 38t-1 36q0 88 10 98q8 11 91 11q51 0 59 -4q61 -23 102 -78q10 -15 16.5 -188t11 -403.5t5.5 -268.5zM133 -45q4 -12 10 -16q8 -5 57 0t58 12q6 4 6 31q-2 122 -12 438.5 t-16 410.5q-3 37 -7.5 46t-21.5 12q-18 4 -94 4q-29 -4 -29 -21q-2 -16 -2 -63q0 -23 1.5 -82.5t0.5 -77.5q0 -118 16 -356q13 -244 33 -338zM307 -125q1 4 -12.5 23.5t-18.5 21.5q-6 3 -66 -4.5t-63 -11.5q-1 -1 3.5 -10t11.5 -18.5t12 -10.5q6 -4 68 -0.5t65 10.5z M328 -94q3 3 -1 92.5t-9.5 221.5t-6.5 204q-13 395 -18 410q-1 4 -8.5 12.5t-15 14.5t-9.5 3q-2 -2 3.5 -132.5t13.5 -311.5t10 -240q0 -68 6 -227q2 -8 16.5 -29.5t18.5 -17.5z" />
<glyph unicode="&#xa2;" horiz-adv-x="1077" d="M475 842q7 3 9.5 -0.5t2.5 -14.5q0 -430 -2 -620q0 -7 -1.5 -8t-10.5 0q-50 8 -94 34q-61 39 -91 105t-30 143q0 140 82 246q57 75 135 115zM408 244q3 -2 0 2q-1 2 -6 8q-25 31 -33 49q-29 65 -29 152q0 83 25 160.5t65 117.5q14 17 35 31v41q-62 -37 -107 -98 q-73 -105 -73 -226q0 -111 71 -190q4 -6 25.5 -25t26.5 -22zM395 307q22 -54 70 -74v490q-48 -46 -75.5 -114t-27.5 -144q0 -82 33 -158zM1047 213q6 -11 -5 -33q-61 -97 -161 -145q-94 -48 -246 -45v-68q6 -126 -2 -139q-7 -9 -61 -10.5t-64 4.5q-14 7 -35 49q-3 4 -4 23.5 t-1 53.5t-1 50v55q-145 31 -238 88q-155 93 -174 273q-4 46 -4 67q0 134 41 234q48 132 146.5 235t224.5 148v86q0 16 -1 43.5t-1.5 41t0.5 21.5q2 6 92 6q18 -1 36.5 -27.5t24.5 -47.5q4 -20 4 -95q75 2 153 -13t116 -52q45 -45 45 -90q0 -27 -21 -88q-21 -81 -39 -97 q-11 -11 -56 14q-3 2 -5 3q-25 12 -97.5 29.5t-92.5 5.5q-3 -3 -1 -105t7 -188q6 -89 6 -279q8 0 14 2q70 5 148 49q9 5 22 14t20 13.5t19.5 11.5t20 8t22 3t25.5 -3q7 -1 27 -4.5t28 -5.5t20 -10.5t19 -22.5q18 -32 29 -63zM809 784q4 -3 4 4q0 20 -17 44q-7 9 -12 10 t-22.5 3t-22.5 3q-85 8 -137 2q4 -5 12.5 -15.5t12.5 -15.5q72 -2 104 -7t78 -28zM608 487q-1 67 -4 165t-4 157q1 0 -3.5 7.5t-9.5 15.5l-5 8q4 -272 8 -408q1 -36 2 -106t2 -107h22q-1 45 -4 134t-4 134zM909 920q4 13 -18 46q-18 27 -23 15q-2 -6 -18.5 -47t-25.5 -66 t-7 -30q6 -20 21.5 -45.5t23.5 -20.5q4 1 24.5 68t22.5 80zM578 1210q-1 -8 -0.5 -29t1.5 -56.5t1 -45.5q12 0 20 2v88q-2 12 -22 41zM600 1081q-10 -2 0 -2v2zM610 -209q1 3 -9.5 14t-14.5 13q-5 3 -44 1t-42 -5q-2 -2 6 -13.5t12 -11.5q5 -1 47.5 -0.5t44.5 2.5zM621 -184 q3 4 3.5 30.5t-0.5 64.5l-1 38q0 29 -2 41q-15 0 -23 2v-15v-141q0 -3 5.5 -8.5t11 -9.5t6.5 -2zM586 45q56 3 98 14q167 39 227 103q1 2 7 8.5t9 10.5t5.5 10t1.5 10q-7 22 -23 48.5t-22 39.5q-6 12 -39 -15q-42 -39 -114.5 -61.5t-151.5 -24.5q-10 0 -6 17 q-2 73 -6.5 221.5t-6.5 226.5q-4 144 -4 197v5v5t0.5 3.5t1.5 3t3 2t5 1.5q51 7 84 7q58 0 111 -11q14 -2 26.5 8t18.5 27l11 24q12 24 19 42t5 24q-5 21 -111 45q-84 17 -164 8q-3 -1 -5.5 1.5t-2.5 7.5q-3 26 -5 94.5t-3 71.5q-1 8 -36 10t-38 -2q-4 -5 6 -193v-5 q0 -8 -1.5 -10t-10.5 -5l-2 -2q-248 -111 -330 -318q-59 -148 -59 -262q0 -141 88 -242q111 -128 311 -145q6 0 2 -33v-51q0 -27 4.5 -74t8.5 -51q4 -2 28 -2q40 6 47 8q7 4 7 88v88q-2 17 -1 21.5t7 5.5zM674 20q101 0 200 41.5t134 110.5q-4 1 -12.5 3t-12.5 3 q-10 2 -14 -2q-34 -40 -84 -70t-90 -45t-121 -41zM1032 203q3 5 -18 43.5t-25 40.5q-74 18 -78 14t17.5 -48t27.5 -46q11 -3 41.5 -5t34.5 1z" />
<glyph unicode="&#xa3;" horiz-adv-x="1349" d="M1300 231q1 -15 5 -35t4 -28q0 -32 -41 -49q-8 -4 -33.5 -16.5t-34 -16.5t-31 -14.5t-34 -14.5t-32 -11.5t-35.5 -11t-34.5 -7t-38.5 -4.5q-63 -4 -173 23.5t-160 29.5q-148 3 -365 -66q-39 -15 -62.5 -9.5t-48.5 38.5q-16 20 -17.5 32t5.5 20.5t31 27.5q56 49 110 119 q39 50 39 143q0 96 -39 215q-3 8 -6 19.5t-5 16.5t-5.5 10t-9.5 7q-9 2 -37 -4q-2 -1 -5.5 -2t-13.5 -4t-19.5 -6t-21 -6.5t-20.5 -6t-16 -3.5t-9 -1q-14 3 -28 21q-26 26 -29 33q-3 6 -20 64.5t-17 64.5q0 10 74 18q7 1 24 2t27 2.5t22 4t17 7.5t4 13q-3 23 -17 82t-16 94 q-11 209 66 332q49 73 105 100.5t155 38.5q70 9 169 -22t142 -82q153 -196 109 -248q-17 -19 -73.5 -57.5t-69.5 -30.5q-28 15 -42 44t-26.5 66t-28.5 60q-48 69 -90 69q-32 0 -76 -41q-43 -38 -43 -106q0 -18 3.5 -40t7 -36.5t11 -40t9.5 -35.5q24 -108 33 -112q9 -7 63 -7 q24 0 52 -12q16 -7 45.5 -29.5t31.5 -27.5q5 -21 0.5 -49t-12.5 -45q-3 -6 -15 -11.5t-23 -8t-26.5 -5.5t-17.5 -4q-26 -7 -29 -12q0 -1 4 -8t9.5 -19.5t9.5 -24.5q12 -46 12 -94q0 -79 -35 -145q62 -5 164.5 -56.5t155.5 -60.5q78 -15 178 25q20 8 80 43q31 19 47 0 q10 -12 23 -24t18.5 -18.5t10 -20.5t5.5 -36zM588 379q35 38 35 129q0 33 -9 78q-1 7 -6.5 25t-14.5 42t-21 37t-23 4q22 -81 22 -172q0 -80 -14 -151q22 4 31 8zM684 819q-5 -3 -11 -26t-3 -33q1 -7 18 -17t21 -8q6 3 13.5 25.5t4.5 32.5q-3 8 -21 18t-22 8zM696 713 q0 1 -41 22q-10 2 -52.5 -2.5t-43.5 -9.5q-1 -4 9 -10.5t23 -12t21 -6.5q6 0 26.5 3t39.5 7.5t18 8.5zM489 1257q11 13 56 43q5 4 2 3q-71 -4 -105 -63.5t-16 -135.5q35 -181 51 -236q3 -4 20 2t17 11q-1 3 -15 52.5t-27 101.5t-15 75q-13 94 32 147zM907 1206 q-5 1 -19.5 -10t-21.5 -20q-10 -10 -32.5 -25.5t-38.5 -28t-17 -18.5q0 -8 11 -18.5t20 -10.5t61.5 40.5t53.5 49.5q2 9 -4.5 24.5t-12.5 16.5zM281 678q3 3 -4.5 17t-14.5 14q-9 0 -67.5 -17t-59.5 -22q-1 -7 8.5 -18t16.5 -13q9 0 62 17t59 22zM676 104q42 -1 142 -29 t155 -20q-15 3 -67 11t-79 16q-139 47 -229 47q-114 0 -219 -68q32 5 93 18t109 19.5t95 5.5zM758 131q16 -4 51.5 -14t57 -15.5t52 -10.5t56.5 -5q41 0 82 12q89 27 143 78q11 10 16.5 18t6 17.5t0 14.5t-5.5 19.5t-7 22.5q-1 4 -2.5 13.5t-3 12.5t-4.5 3q-1 0 -8.5 -4.5 t-21 -12.5t-27.5 -14q-86 -33 -129 -39q-52 -6 -102 9.5t-113 49t-90 44.5q-85 30 -140 8q-67 -26 -64 -1q1 11 13 30q31 47 31 133q0 62 -23 166q-3 14 -7.5 29t-6.5 23.5t-2 12.5q0 3 1 5.5t4 4.5t6 3.5t9 3t12 2.5t16.5 3.5t19.5 4.5q26 6 41.5 2t22 1.5t7.5 31.5 q3 42 -6 51q-8 10 -76 6q-15 -1 -48 -7.5t-48 -4.5q-7 2 -13 9t-10 19t-6 19.5t-5 22.5l-3 14q-3 14 -10 47t-10.5 51.5t-8 45.5t-6.5 49.5t-2 43.5q0 105 68 146q55 30 102 30q119 0 199 -198q2 -3 30.5 17t57.5 43.5t33 31.5q3 7 -16.5 44t-54 80.5t-64.5 59.5 q-107 57 -224 57q-77 0 -137 -28q-91 -41 -131.5 -134.5t-40.5 -213.5q0 -102 31 -230q1 -6 4 -16t4 -14t0.5 -10t-4.5 -11q-6 -9 -84.5 -22.5t-81.5 -20.5q-2 -6 14.5 -40.5t22.5 -35.5q5 -2 74.5 21t76.5 20q4 -1 7.5 -4t7.5 -9t7.5 -11t9 -14.5t9.5 -16.5q28 -46 54 -156 q17 -74 10 -162q-3 -56 -26 -104t-49 -76.5t-73 -72.5l-5 -5l-5 -5t-6 -5q-1 -1 -6.5 -5.5t-7.5 -7.5t-2 -7q0 -7 15.5 -23t23.5 -16q4 -1 32.5 12.5t69 34t61.5 29.5q105 45 199 45q70 0 156 -25zM1165 96q19 7 70 30.5t51 27.5q0 5 -17 18t-24 10q-3 -1 -6.5 -5t-11.5 -12 t-22 -19.5t-43 -30.5t-68 -41q56 12 71 22zM1284 205q3 2 2 14.5t-3.5 27.5t-4.5 17q-4 3 -13 13.5t-15.5 17.5t-8.5 4q-3 -5 0.5 -38t7.5 -40q3 -7 14 -13t21 -3z" />
<glyph unicode="&#xa4;" d="M479 735q61 27 113 27q90 0 135 -88l3 -6q4 -6 7.5 -12.5t8 -18t7.5 -23t6.5 -29t3 -34.5t-2.5 -39l-2 -10q-2 -11 -3.5 -18.5t-6.5 -21t-11 -24t-16.5 -22t-23 -19.5t-31.5 -13t-41 -5q-34 0 -90 16q-40 12 -66 24t-51.5 33.5t-33.5 54.5t1 79q6 31 17 57.5t23 42.5 t24.5 27.5t19.5 16t10 5.5zM410 565q-7 -108 102 -139q-47 53 -47 131q0 52 22 94q11 18 29.5 38t31.5 31l13 11q-5 -2 -20.5 -3.5t-31 -6.5t-26.5 -16q-68 -65 -73 -140zM715 496q14 35 14 65q0 37 -24 84q-41 83 -103 76q-10 -1 -18.5 -5.5t-13 -8t-14.5 -13t-13 -12.5 q-29 -28 -33 -39q-16 -37 -16 -78q0 -58 28 -103.5t76 -51.5q43 -5 74 22q24 20 43 64zM1022 965q1 -5 0.5 -39.5t-2.5 -36.5q-1 -2 -19 -17.5t-45.5 -40t-44.5 -40.5q17 -21 21 -31q45 -99 45 -244q0 -96 -28 -174.5t-87 -118.5q11 -11 45 -67q2 -2 7.5 -10.5t13 -20.5 t10.5 -16q2 -3 18 -22t29.5 -36.5t11.5 -21.5q-5 -11 -61 -19t-78 -8q-5 0 -31.5 14t-33.5 23q-1 0 -26 38.5t-28 45.5q-2 2 -5.5 7.5t-9 13.5t-9.5 14q-2 0 -6.5 -1t-6.5 -1q-54 -4 -75 -4q-29 0 -66 6q-35 5 -41 8l-6 2q-7 2 -15.5 4.5t-20.5 6.5t-26 10t-29.5 13 t-33 16.5t-33.5 19.5q-169 -165 -178 -172q-13 -12 -58.5 2.5t-58.5 27.5q-2 4 -6.5 40.5t-3.5 41.5q2 6 10 14.5t20.5 19.5t16.5 15q15 15 43 42t50 49t40 42q-58 94 -55 218q5 156 96 262q-4 6 -11 17.5t-12.5 20.5t-8.5 13q-29 41 -33 47q-1 2 -17 23.5t-31 42.5t-27 42 t-11 27q3 3 60.5 1.5t74.5 -3.5q8 0 37.5 -15.5t38.5 -21.5q1 -2 12.5 -21.5t26 -43.5t20.5 -35q21 9 83 20t73 11q159 5 246 -60q54 54 69 66q2 2 11 12t16 17t15.5 13t13.5 5q8 -3 24.5 -10.5t24.5 -10.5q49 -19 55 -32zM315 1020q-6 6 -20.5 15.5t-15.5 6.5q0 -3 81 -127 q9 6 15 9q-10 17 -24.5 40.5t-24.5 39t-11 16.5zM154 82q5 6 3.5 29t-7.5 24q-13 7 -42.5 18t-33.5 7q-3 -1 1 -27t7 -29q7 -6 37.5 -16t34.5 -6zM176 94q6 0 162 156q-21 14 -33 26q-4 -4 -12 -11t-12 -11q-26 -22 -66 -61.5t-41 -47.5q-2 -7 -1.5 -29t3.5 -22zM543 190 q20 -14 53.5 -13t65.5 9l32 7q-2 3 -5 8t-5 8q-13 -4 -43 -8q-73 -15 -98 -11zM823 41q9 0 47 6.5t41 9.5q1 2 -10.5 18t-27 37t-19.5 27q-3 3 -8.5 9.5t-9.5 12t-7 9.5q-49 70 -55 82q-2 0 -6 8q-6 8 -3.5 14.5t5.5 10.5l4 4q37 32 65 72t38 71l1 5q1 5 2 13t2 19t2 25.5 t1 29.5q0 142 -64 273q6 7 83 85t81 83q-52 31 -67 28q-2 0 -69 -60t-73 -67v2q-8 6 -27 16t-54 23.5t-88 20t-109 0.5q-67 -5 -133 -56q-2 2 -51 75.5t-50 74.5q-3 4 -7.5 11.5t-8 12.5t-6.5 9q-2 2 -22.5 2.5t-40 -0.5t-19.5 -2l28 -45q2 -3 47.5 -69t47.5 -69 q2 -2 8.5 -11t14.5 -19.5t11 -14.5q-13 -14 -22.5 -26.5t-14.5 -19.5l-4 -7q-23 -30 -38 -76q-21 -79 -21 -141q0 -65 25 -111q14 -26 47 -73q-2 -2 -52 -50.5t-94.5 -91.5t-44.5 -45q3 -6 27 -16t27 -8q55 51 137 129q25 25 39 37q105 -111 235 -111q30 -2 121 21 q3 2 4.5 2t2.5 -1.5t3 -5t4 -6.5q7 -13 22 -34.5t21 -30.5q2 -3 11.5 -19.5t11.5 -19.5q14 -24 20 -31q33 -50 39 -51zM862 14q10 0 53 5.5t43 9.5q0 2 -10.5 9t-15.5 7q-8 0 -49.5 -8.5t-42.5 -11.5l8 -6q12 -5 14 -5zM870 180q-2 3 -15 19t-19 24q-4 2 -13.5 6.5 t-13.5 6.5q9 -15 24 -36.5t17 -21.5q4 -4 8 -10t8.5 -14.5t7.5 -12.5q3 -2 7.5 -7.5t8.5 -10.5t5 -6q40 -53 41 -54q8 -8 31 -14q-8 10 -45.5 60t-51.5 71zM946 586q-7 48 -27.5 112t-31.5 82l-23 4q4 -8 4 -12q52 -117 52 -266q0 -38 -5 -68q-8 -47 -32 -95t-56 -75 q-2 -1 -7 -4.5t-7 -5.5l29 -14l43 37q63 68 69 204q1 23 -8 101zM1001 903q4 17 -2 39q-2 -2 -7.5 -6.5t-8.5 -7.5q-119 -111 -119 -119q4 -1 14.5 -4t14.5 -4q25 25 27 26q19 19 57 52q3 3 9 8t10 9t5 7z" />
<glyph unicode="&#xa5;" horiz-adv-x="1034" d="M1006 504q4 -21 0 -86v-37q-2 -2 -23 -2q-42 -5 -102 2h-2q-40 2 -156 -2q1 -31 2 -69t2 -66q6 -48 6 -125q0 -97 -20 -105q-24 -9 -105 -14q-10 -1 -20.5 5t-17 12t-20 20.5t-18.5 19.5q-9 9 -15 39t-7.5 59t-2.5 65t-1 40q-2 33 -2 100q-203 -19 -211 -16q-13 3 -29 25 t-18 32q-6 30 -6 60q-3 19 -3 53t3 39q3 6 19.5 8.5t33.5 1.5t36.5 -2.5t22.5 -1.5q96 4 142 8v45q-205 -19 -213 -16q-13 3 -30.5 25.5t-19.5 31.5q-1 5 -3 29.5t-3 30.5q-3 19 -3 53t3 39q7 14 183 14q-14 20 -66 89.5t-78 111.5q-17 28 -46 78.5t-54.5 91t-50.5 74.5 q-8 12 -29.5 37.5t-30.5 39.5q-2 7 -3.5 11.5t3.5 12t8 11.5t11 10.5t12 10t11 8.5t9 6q32 28 93 49q26 10 77 0q4 -1 12.5 -2t13 -2.5t11 -4.5t11.5 -9q20 -22 69 -86.5t68 -87.5q7 -8 38.5 -48t56 -69t30.5 -29q6 1 15.5 19t19.5 41.5t12 27.5q51 114 106 213 q6 11 17.5 35t19.5 33t19 10q37 7 65 0q8 -3 29.5 -19.5t38.5 -31.5l18 -16q21 -21 23 -33q2 -16 -13 -51q-14 -37 -55.5 -154.5t-52.5 -146.5q-6 -15 -20.5 -51t-22.5 -58q-6 -16 -18 -48.5t-17 -45.5q29 -2 86 -2q52 0 68 2q18 3 30 -6q4 -3 20.5 -39t18.5 -45q2 -5 2 -86 q-1 -8 -1 -17v-13.5t-1 -6.5t-20 -2q-44 -5 -103 2h-4q-35 2 -143 -2q0 -7 -1 -20.5t-1 -20.5q164 0 215 4q20 3 33 -6q3 -3 20.5 -39.5t18.5 -44.5zM956 801q-3 -3 -1.5 -44t3.5 -50q3 -14 12.5 -31t12.5 -17q2 0 2 78q-1 5 -7.5 21t-13 30t-8.5 13zM961 651q0 3 -6.5 18 t-10.5 21q-4 4 -61 -4q-57 -4 -82 0q-11 1 -62 2t-71 2q24 -29 39 -41h8q37 2 76 2q170 -8 170 0zM698 592v37q-2 4 -10 11t-19 17t-16 15q4 -54 4 -82q12 2 41 2zM950 1399q-3 7 -31.5 1t-31.5 -16q-8 -25 -13 -47q-15 -52 -51.5 -148.5t-50.5 -139.5q-29 -89 -57 -158 q0 -2 -3 -8l-8.5 -17t-9.5 -20h51q16 37 41 107t31 87q10 26 35 86t35 93q9 21 37.5 98.5t25.5 81.5zM858 1491q-6 0 -24.5 -2.5t-18.5 -5.5t34.5 -35.5t39.5 -36.5q3 -2 24 2.5t21 7.5q1 5 -34.5 36t-41.5 34zM303 1425q-14 11 -63 11q36 -42 45 -58q19 -23 58 -71.5 t58 -71.5q17 -20 54 -70t62.5 -82t31.5 -32q6 2 11.5 11t4.5 21q-2 8 -34.5 50t-69 87.5t-43.5 55.5q-7 9 -33.5 45.5t-49.5 66.5t-32 37zM283 616l29 2q28 3 80.5 7t101.5 8q-1 7 -3.5 21.5t-3.5 21.5q-47 -4 -104 -8.5t-91 -7.5l-34 -3q-2 -2 9.5 -20t15.5 -21zM295 365 q1 0 28.5 2t80 6.5t100.5 7.5q-2 14 -2 43q-48 -3 -106 -8t-91.5 -7.5t-34.5 -2.5q-2 -2 9.5 -20t15.5 -21zM545 88q5 -7 53.5 -1t48.5 17q0 25 -2 78t-2 80q0 7 -2 33t-3.5 50t-2.5 50t-0.5 43t2.5 19q4 4 63 4q83 0 95 -2q70 -4 108 -4q6 0 14 0.5t13 1l10 1t8 2t4 3.5 q5 13 2 63q-4 33 -10 37q-4 3 -35.5 2t-54.5 -4q-25 -2 -110.5 1.5t-106.5 2.5q-3 0 -7.5 72.5t-0.5 73.5h151q74 -4 111 -4q7 1 20.5 1t19.5 1t7 4q5 11 2 65q0 29 -8 37q-6 3 -37.5 2t-54.5 -4q-25 -1 -90.5 -0.5t-90.5 2.5q-13 8 93 258q60 154 98 275q12 36 12 49 q0 4 -1.5 8t-3.5 5.5t-6.5 6l-6.5 6.5q-34 43 -45 41q-11 -3 -21 -20q-21 -32 -40 -70t-41 -89.5t-33 -74.5l-26 -56q-27 -56 -48 -94t-29 -38q-29 2 -59 45q-46 68 -109 141q-15 17 -42.5 52t-43.5 53q-3 4 -15.5 21t-24 32t-25 31.5t-25.5 26.5t-20 10q-13 0 -52 -26.5 t-53 -47.5q-3 -4 -0.5 -10t9.5 -16t8 -11q36 -53 93.5 -147.5t76.5 -124.5q25 -38 75 -105t72 -100q12 -14 31 -41q10 -10 -8 -10q-44 -3 -94 -6t-78 -5t-29 -2q-5 -3 -5.5 -48.5t3.5 -51.5q4 -3 134 6t134 6q6 -6 6 -69q6 -70 -2 -78q-4 -4 -67 -8t-125.5 -6t-63.5 -3 q-6 -3 -6.5 -48.5t4.5 -51.5q8 -8 258 12q8 2 9 1t3 -9q0 -14 5 -106q2 -45 2 -125q0 -103 8 -115zM692 37q1 4 -15.5 19t-25.5 18q-10 3 -51.5 -1t-44.5 -10q-1 -5 19.5 -23t29.5 -22q80 0 88 19zM713 57q6 6 -6 179q-2 28 -2.5 62.5t-1 54.5t-1.5 22q0 2 -6.5 9t-17 18 t-14.5 16q1 -6 2.5 -162.5t3.5 -163.5q3 -10 20 -25.5t23 -9.5zM975 399q0 3 -6.5 18t-10.5 21q-5 3 -63 -4q-56 -4 -82 0q-46 4 -139 4q5 -5 14.5 -16t16 -18.5t10.5 -8.5t23.5 0t40.5 2.5t24 1.5q169 -8 172 0zM995 408q1 0 2 18.5t1 35.5t-1 23t-6.5 21.5t-12 29.5 t-9.5 13q-1 -1 0.5 -43.5t3.5 -50.5q2 -9 7 -20.5t9.5 -19t5.5 -7.5z" />
<glyph unicode="&#xa6;" horiz-adv-x="413" d="M332 1153q4 -8 4 -188q0 -359 -8 -367q-10 -10 -88 -10q-81 0 -93 6q-5 2 -8.5 4t-6.5 4t-7.5 8t-8.5 11t-13 17.5t-17 23.5q-25 34 -25 258q0 54 1 129.5t1 83.5q-1 33 -1 52.5t9 30t33 15.5q19 4 53 5t59 0l24 -1q11 0 48.5 -33.5t43.5 -48.5zM98 1188q-1 -2 -3 -49.5 t-3.5 -123t-1.5 -138.5q0 -167 10 -170q20 -5 75.5 -1t64.5 13q1 1 3 62t3.5 149.5t1.5 154.5q0 109 -4 113q-13 10 -60 10q-80 0 -86 -20zM295 625q1 11 -11.5 29.5t-21.5 23.5q-6 5 -78 3.5t-75 -7.5q-2 -2 5.5 -13t19.5 -22.5t20 -13.5q11 -3 75.5 -3.5t65.5 3.5z M311 676q3 3 5.5 222t0.5 228q-7 21 -26 43q-9 10 -12 5q-5 -10 -5 -300q0 -143 2 -147q2 -6 6 -14.5t10 -19t11 -16t8 -1.5zM324 436q7 -16 14 -281t2 -272q-9 -12 -89.5 -15.5t-92.5 1.5q-5 2 -9 4l-7 3.5t-8 7.5t-8.5 10.5t-13.5 17l-18 22.5q-17 20 -25 117.5 t-10.5 217.5t-3.5 134q-6 50 -0.5 71.5t39.5 29.5q18 4 52 6.5t58 3.5h25q10 1 49.5 -31t45.5 -47zM88 461q-3 -16 1.5 -248t16.5 -233q21 -5 77 2t63 16q3 5 -1.5 240t-8.5 239q-15 13 -78.5 7t-69.5 -23zM305 -92q1 11 -12 28t-23 23q-6 3 -78 -1.5t-75 -8.5 q-3 -5 15.5 -25.5t31.5 -23.5q13 -2 77 1t64 7zM319 -41q3 1 -2 221.5t-8 229.5q-6 19 -26 39q-10 11 -13 6q-3 -4 3.5 -221.5t9.5 -225.5l9 -18q10 -19 16.5 -27.5t10.5 -3.5z" />
<glyph unicode="&#xa7;" horiz-adv-x="1107" d="M745 676q35 -57 35 -129q0 -51 -18 -103q-4 -13 -13 -31.5t-22.5 -42.5t-29.5 -35t-29 -1q-66 51 -187 115q-11 6 -55.5 26.5t-67 32.5t-53.5 34t-47 44q-31 48 -31 102q0 75 48.5 137.5t121.5 71.5q93 10 194 -61t154 -160zM295 801q-37 -50 -37 -111q0 -45 23.5 -82 t68.5 -51q-18 33 -23.5 84.5t1.5 89.5q3 32 29.5 76.5t50.5 62.5q-32 -8 -64.5 -27t-48.5 -42zM721 432q29 59 29 111q0 55 -27.5 106.5t-79.5 112.5q-30 35 -79.5 62.5t-92.5 27.5q-58 0 -80 -49q-33 -71 -33 -127q0 -62 33 -112t96 -81q6 -3 28 -13t28 -13.5t23 -12 t26 -14.5t22.5 -15.5t26.5 -19.5q7 -6 22.5 -12t20.5 -4q11 0 37 53zM999 311q-10 -26 -52.5 -72.5t-43.5 -52.5q-1 -5 8.5 -39t19.5 -84.5t9 -93.5q-3 -98 -62 -172.5t-157 -105.5q-29 -10 -78 -10q-90 0 -186 37.5t-135 91.5q-20 27 -35.5 55.5t-27.5 64t-17.5 53.5 t-15 60.5t-11.5 48.5q-6 23 -5.5 27.5t11.5 7.5q93 33 141 33q8 0 31 -16t29 -29l5 -17q5 -18 11 -38t18 -46t26.5 -46t36 -34t46.5 -14q40 0 86 35q31 25 31 57q0 46 -59 105t-121.5 99t-112.5 63q-118 55 -199 125.5t-124 175.5q-17 49 -17 108q0 87 34.5 169t104.5 128 q29 18 101 31q-78 105 -78 227q0 103 57 174q66 86 195 86q116 0 188 -69q31 -31 56.5 -77t31.5 -69q5 -11 9 -32t0 -29q-3 -9 -18 -25t-32 -28q-26 -19 -43 -19q-37 5 -57 19q-6 5 -24 22.5t-33.5 30.5t-33 23t-30.5 3t-18 -32q-8 -36 3 -69.5t40 -62.5t54 -49t65 -46.5 t55 -37.5q21 -16 71.5 -50.5t81.5 -57.5t66.5 -59t54.5 -72q84 -152 84 -256q0 -76 -35 -150zM565 1008q-135 105 -135 196q0 46 35 76q-62 0 -68 -49q-4 -46 33 -105.5t135 -117.5zM731 1235q3 9 -3.5 22t-14.5 15q-6 0 -49.5 -38t-42.5 -46q1 -5 20 -7.5t27 -0.5 q16 9 38 27t25 28zM408 104q-5 10 -23 19q0 -25 16 -71.5t41 -74.5q-15 39 -23 69.5t-9 43.5zM260 27q15 -123 111 -207t217 -84q54 0 106 18q62 23 102.5 74t52.5 108t3 111q-5 29 -13 61t-14.5 51.5t-12 40t-6 27.5t4.5 13q50 27 83.5 69.5t47.5 83.5q23 74 23 139 q0 125 -70 209q-46 58 -119 107.5t-159.5 99t-135.5 88.5q-38 31 -73 87.5t-35 103.5q0 67 80 84q8 4 20 1.5t19 -3.5t17.5 -7.5t16.5 -10.5t15.5 -13t15 -14.5t14.5 -15t13 -13.5q19 -23 26 -23q8 1 17.5 9.5t22 22t22.5 20.5q32 27 30 41q-5 16 -47.5 71t-79.5 78 q-50 29 -112 29q-72 0 -119 -35q-98 -66 -98 -205q0 -73 33 -147q0 -1 20.5 -29.5t31 -49.5t1.5 -24q-7 -2 -43.5 -12t-51.5 -15.5t-39 -20.5t-38 -34q-78 -106 -78 -215q0 -110 72.5 -206t193.5 -158q4 -2 28.5 -14t31.5 -16t30.5 -16t33.5 -17.5t31 -17t32.5 -19.5 t29 -19.5t30 -21t26 -21.5t24.5 -23q64 -67 64 -131q0 -70 -84 -108q-32 -14 -64 -14q-61 0 -111 44.5t-73 110.5q-2 8 -6.5 29.5t-9 33t-9.5 15.5q-5 2 -50.5 -10.5t-49.5 -16.5q-2 -11 -2 -13.5t4 -23.5t6 -36zM913 -33q2 23 -2.5 60t-11.5 67.5t-13.5 58t-6.5 29.5 q-1 0 -8.5 5t-13.5 8t-7 0q1 -2 10 -39.5t13.5 -58t8.5 -52t3 -51.5q-1 -39 -14 -84.5t-21 -61.5q-49 -87 -209 -141q21 -3 52 4t67 27t68 49.5t56 77t29 102.5zM885 213q121 110 121 250q0 39 -15 90q6 -67 -13 -131t-48 -107q-15 -26 -36 -53t-32 -35q-8 -5 12 -12 q10 -3 11 -2z" />
<glyph unicode="&#xa8;" horiz-adv-x="696" d="M242 1378q6 0 11.5 -2t11.5 -6.5l10 -7.5t10.5 -9.5l9 -9t9 -10t7.5 -8.5q15 -21 21 -33q4 -16 4 -61v-72q-3 -17 -17 -20q-25 -1 -72 -3t-73 -3q-44 -5 -56.5 -1t-43.5 39q-21 23 -21 113q0 7 -0.5 25.5t0 22.5t2 15.5t5.5 13.5t10.5 7t17 6.5t25.5 1.5q92 4 129 2z M88 1341q-6 -9 -6 -59q0 -62 8 -70q6 -4 73 -1t73 8q7 3 8.5 60.5t-2.5 66.5q-2 10 -62 10q-30 0 -59 -4.5t-33 -10.5zM313 1176q3 3 4 42.5t-2 61.5q-1 4 -11 16.5t-20 23t-12 7.5q-3 -2 -4 -51.5t2 -54.5q5 -10 22.5 -29t20.5 -16zM96 1184q-1 -6 10.5 -17t20.5 -14 q8 -2 78.5 1t73.5 7t-15 18.5t-24 16.5q-7 2 -75 -3t-69 -9zM625 1294q5 -7 7.5 -15t3.5 -18t1.5 -16.5t0 -19.5t-0.5 -17q0 -47 -4 -78q-1 -3 -5.5 -4t-13 -1t-12.5 -1q-21 -1 -58.5 1.5t-51.5 2.5q-20 0 -31 5.5t-13.5 8.5t-15.5 25l-3 5q-3 5 -5.5 10t-5 11.5t-2.5 12.5 q0 14 -2 36.5t-2.5 37t-0.5 30.5t2.5 26t8.5 14q15 12 131 12q20 0 39 -19q9 -11 18 -25.5t15 -23.5zM449 1210q9 -9 45.5 -5.5t44.5 12.5q6 6 6 52.5t-6 55.5t-50 8.5t-49 -8.5q-7 -14 -2.5 -62t11.5 -53zM586 1147q3 4 -18 19.5t-27 17.5q-4 2 -42.5 0t-39.5 -6 q-3 -7 24 -29q5 -3 52.5 -4t50.5 2zM612 1165q3 2 3 25.5t-1.5 53t-1.5 30.5q-1 6 -10 19t-18 23t-11 7q-2 -5 -2.5 -60t0.5 -61q4 -10 19 -26t22 -11z" />
<glyph unicode="&#xa9;" horiz-adv-x="1349" d="M625 1210q217 14 361.5 -103t180.5 -355q11 -86 11 -152q0 -149 -43 -235q-52 -107 -148.5 -168.5t-220.5 -77.5q-124 -15 -251 38.5t-216 163t-102 242.5q-7 65 -7 101q0 91 20 164.5t62 160.5q40 85 150 158q54 35 91.5 46.5t111.5 16.5zM268 406q75 -123 135 -156 q-88 121 -117.5 208.5t-29.5 170.5q0 16 1 46t1 44q0 108 64 229q25 47 78 101.5t100 76.5q41 20 85.5 31.5t81.5 13.5t56.5 1.5t32.5 -1.5q8 0 22.5 -0.5t25 -1t9.5 -0.5q-47 21 -113 21q-53 0 -108 -9.5t-78 -17.5q-89 -32 -147 -89t-95 -148q-55 -135 -55 -293 q0 -9 1 -29.5t1 -30.5q6 -95 49 -167zM1149 575q9 130 -64 347q-29 87 -120 152t-209 71q-95 7 -160 -12q-114 -34 -207 -138q-60 -67 -83 -152t-25 -194q-3 -121 41.5 -230t135.5 -184t210 -88q86 -9 179.5 17.5t162.5 77.5q86 63 110 151q22 72 29 182zM1274 813 q35 -144 35 -252q0 -55 -9 -110q-8 -49 -14 -79t-19.5 -69.5t-36 -70.5t-54.5 -56q-225 -174 -478 -174q-130 0 -247 47q-187 72 -316 268q-39 60 -62.5 161t-23.5 192q0 25 4 61q7 53 24 114t54 137t86.5 138t127.5 110t171 60q55 8 119 8q121 0 218 -28.5t136 -57.5 q97 -66 150 -122q34 -31 79.5 -132t55.5 -145zM840 57q114 20 214.5 74.5t139.5 140.5q49 106 49 271q0 134 -33 295q-26 116 -98.5 210t-177.5 150q-125 66 -277 66q-160 0 -321 -80q-44 -23 -92.5 -82t-73.5 -113q-84 -179 -84 -330q0 -48 10 -116q41 -254 248 -391 q164 -111 336 -111q69 0 160 16zM1282 463q8 52 8 115q0 111 -37 229q-66 223 -180 323q182 -209 189 -473q4 -74 4 -127q0 -216 -76 -317q65 65 92 250zM1022 489q6 -10 20 -45q4 -7 -4 -22q-40 -67 -110 -103q-64 -30 -158 -30q-79 0 -161 21t-136 55q-108 62 -121 188 q-12 110 25 209q31 81 106 162t174 110q50 13 93 13q60 0 114 -15.5t66 -27.5q33 -30 33 -64q0 -16 -15 -59q-2 -4 -6 -20.5t-9 -29.5t-11 -18q-10 -10 -45 10q-56 32 -140 25q-71 -4 -120.5 -71t-49.5 -156q0 -58 23 -111q25 -64 115 -64q9 0 59 5q50 6 102 36q7 4 18 11 t16.5 10t16.5 7.5t18 4l21 -1.5q4 -1 15.5 -2t16 -2t12.5 -4t13 -8t9 -13zM877 842q4 -2 3 5q-3 21 -16 34q-2 2 -4 2q-17 0 -33 4q-182 19 -264 -99q-51 -75 -51 -157q0 -77 49 -131q31 -31 37 -35l-3 5q-19 23 -26 38q-20 44 -20 102t18.5 113.5t46.5 83.5q58 61 150 61 q59 0 113 -26zM946 936q4 10 -14 35q-10 15 -14 8q-3 -9 -13 -33.5t-17.5 -44t-6.5 -22.5q1 -1 2.5 -5t3 -6.5t4 -7t4 -7t4 -7t4 -6t4 -4.5t3.5 -2.5t3 0.5q3 1 17 46.5t16 55.5zM434 430q86 -104 254 -104q54 0 103 12q113 26 157 72q1 2 6.5 7.5t8.5 10t2 8.5 q-4 15 -16 33t-17 29q-4 6 -27 -11q-65 -59 -194 -59q-82 0 -133 31q-84 56 -84 174q0 99 55 170q68 84 158 98q35 6 63 6q38 0 78 -8q20 -3 31 25q1 2 8 17.5t12 27.5t4 16q-4 12 -34.5 21t-51.5 12q-64 9 -124 -3.5t-103.5 -38.5t-80.5 -61.5t-59.5 -69t-35.5 -65.5 q-43 -105 -43 -182q0 -94 63 -168zM782 311q71 0 140 28.5t94 76.5q-3 1 -9.5 3t-9.5 3q-8 0 -10 -4q-23 -27 -59 -48t-61.5 -30t-84.5 -29zM1032 438q1 3 -13.5 30.5t-17.5 27.5q-5 2 -28.5 7.5t-26.5 2.5q-1 -3 14.5 -33.5t18.5 -32.5q8 -3 29 -4t24 2z" />
<glyph unicode="&#xaa;" horiz-adv-x="788" d="M733 956q8 -146 4 -153q-2 -4 -10.5 -7t-19 -6t-13.5 -4q-7 -2 -24.5 -8t-23.5 -6t-23 2q-7 1 -28.5 26.5t-27.5 35.5q-1 1 -3 6t-4.5 9.5t-4.5 4.5q-3 1 -59 -27q-23 -10 -78 -14.5t-88 0.5q-150 38 -172 57q-6 5 -27.5 23t-33 31t-17.5 30q-17 38 -17 101q0 65 15 108 q8 25 38.5 56t51.5 45q30 22 81.5 37t104.5 18q67 0 72 8q7 10 -3.5 32t-29.5 32q-4 2 -14 5t-14 5q-25 10 -72 10q-68 0 -139 -27q-4 -1 -13.5 -5.5t-16.5 -7t-11 -1.5q-2 0 -8 6t-13 14t-8 9q-3 3 -10 9t-11 11t-6 9q-5 15 -4.5 52t6.5 44q4 6 58.5 24t75.5 21q47 8 90 8 q41 0 76.5 -10t51.5 -18.5t44 -26.5q57 -34 65 -41q30 -24 98 -119q62 -98 84 -176q12 -46 21 -105q1 -10 5 -63.5t5 -63.5zM174 1423q62 15 113 15q58 0 98 -19q-1 1 -22 19t-29 23t-28 11.5t-40 4.5q-55 -7 -86 -17q-13 -3 -50.5 -15.5t-37.5 -14.5q-1 -4 10.5 -16.5 t16.5 -12.5q7 -1 29 10t26 12zM506 862q37 18 37 29q-15 -9 -37.5 -17.5t-37.5 -12.5t-47 -11.5t-42 -9.5q58 -5 127 22zM588 854q6 -3 37 1.5t34 8.5q1 1 0 9.5t-2.5 18.5t-1.5 13q-1 12 -6 60t-6 73q-1 7 -2 20q-6 69 -10.5 106t-17 90t-31.5 89q-24 55 -43 78 q-48 60 -146 109q-30 16 -82 23.5t-88 0.5q-23 -4 -81.5 -21t-63.5 -20q-8 -7 -3 -28t9 -23q2 -1 43.5 11t97 21.5t88.5 0.5q22 -6 56 -27q89 -60 94 -118q0 -31 -4 -35q0 -13 -62 -15q-142 -7 -198 -45q-76 -42 -105 -114q-14 -37 -10 -105q7 -75 59 -118q10 -8 62 -31 q55 -25 127 -25q32 0 67 6q13 3 37.5 12t32.5 11q9 2 41 21t39 18q15 -2 22.5 -37t16.5 -39zM633 793q5 -2 38.5 7.5t33.5 12.5q0 2 -14 15t-21 14q-9 0 -36 -4t-28 -9q-1 -4 11 -19t16 -17zM715 836q5 6 -1.5 95.5t-15.5 139.5q-33 196 -88 262q6 -9 17.5 -41.5t11.5 -40.5 q2 -11 5.5 -36t6.5 -49.5t4 -28.5q1 -6 5 -34t8 -53t4 -28q0 -144 10 -156zM449 1178q33 -19 40 -109q5 -42 -3 -63.5t-35 -34.5q-54 -26 -127 -23q-82 3 -129 70q-12 18 -12.5 50t12.5 62q33 59 102 68q26 4 92 -2q6 0 28.5 -6.5t31.5 -11.5zM274 1169q-36 -11 -56 -58 t5 -85q-13 89 51 143zM397 979q58 11 58 65q0 87 -25 107q-22 22 -88 10q-63 -8 -86 -53q-14 -30 -9.5 -69t27.5 -54q20 -14 62 -14q29 0 61 8z" />
</font>
</defs>
</svg>
